{
.appVersion = "3108";
classes = (
{
automatic = 1;

glyphs = (
{
glyphname = A;
lastChange = "2020-06-22 01:19:25 +0000";
layers = (
{
anchors = (
{
name = bottom;
position = "{590, 0}";
},
{
name = ogonek;
position = "{1253, 0}";
},
{
name = top;
position = "{904, 1475}";
}
);
layerId = "3FDD6C00-F7FD-4E85-84B0-0136AF7D7529";
paths = (
{
closed = 1;
nodes = (
"359 0 LINE",
"874 1234 LINE",
"872 1234 LINE",
"858 0 LINE",
"1253 0 LINE",
"1226 1475 LINE",
"585 1475 LINE",
"-72 0 LINE"
);
},
{
closed = 1;
nodes = (
"1022 310 LINE",
"1087 613 LINE",
"359 613 LINE",
"294 310 LINE"
);
}
);
width = 1405;
},
{
anchors = (
{
name = bottom;
position = "{469, 0}";
},
{
name = ogonek;
position = "{928, 0}";
},
{
name = top;
position = "{782, 1475}";
}
);
layerId = "2503C51C-5A6C-4B2C-A968-78FEA18C2585";
paths = (
{
closed = 1;
nodes = (
"38 0 LINE",
"777 1449 LINE",
"775 1449 LINE",
"896 0 LINE",
"928 0 LINE",
"803 1482 LINE",
"762 1482 LINE",
"2 0 LINE"
);
},
{
closed = 1;
nodes = (
"873 451 LINE",
"879 479 LINE",
"262 479 LINE",
"256 451 LINE"
);
}
);
width = 1156;
},
{
anchors = (
{
name = bottom;
position = "{505, 0}";
},
{
name = ogonek;
position = "{1041, 0}";
},
{
name = top;
position = "{818, 1475}";
}
);
layerId = "BEF1FBB1-ACEC-4AC1-9895-C09886024D55";
paths = (
{
closed = 1;
nodes = (
"149 0 LINE",
"804 1368 LINE",
"802 1368 LINE",
"872 0 LINE",
"1041 0 LINE",
"952 1479 LINE",
"686 1479 LINE",
"-35 0 LINE"
);
},
{
closed = 1;
nodes = (
"920 391 LINE",
"948 541 LINE",
"289 541 LINE",
"261 391 LINE"
);
}
);
width = 1231;
}
);
leftKerningGroup = A;
note = A;
rightKerningGroup = A;
unicode = 0041;
},
{
glyphname = AE;
lastChange = "2020-06-22 01:19:25 +0000";
layers = (
{
anchors = (
{
name = bottom;
position = "{881, 0}";
},
{
name = top;
position = "{1473, 1475}";
}
);
layerId = "3FDD6C00-F7FD-4E85-84B0-0136AF7D7529";
paths = (
{
closed = 1;
nodes = (
"325 0 LINE",
"1125 1127 LINE",
"1100 1151 LINE",
"855 0 LINE",
"1813 0 LINE",
"1877 300 LINE",
"1192 300 LINE",
"1282 186 LINE",
"1390 694 LINE",
"1264 590 LINE",
"1828 590 LINE",
"1891 890 LINE",
"1317 890 LINE",
"1407 776 LINE",
"1520 1306 LINE",
"1361 1175 LINE",
"2063 1175 LINE",
"2127 1475 LINE",
"977 1475 LINE",
"-112 0 LINE"
);
},
{
closed = 1;
nodes = (
"1094 260 LINE",
"1154 544 LINE",
"509 544 LINE",
"370 260 LINE"
);
}
);
width = 2036;
},
{
anchors = (
{
name = bottom;
position = "{766, 0}";
},
{
name = top;
position = "{1135, 1475}";
}
);
layerId = "2503C51C-5A6C-4B2C-A968-78FEA18C2585";
paths = (
{
closed = 1;
nodes = (
"-62 0 LINE",
"1065 1428 LINE",
"1058 1430 LINE",
"754 0 LINE",
"1470 0 LINE",
"1476 28 LINE",
"777 28 LINE",
"788 14 LINE",
"943 740 LINE",
"926 726 LINE",
"1514 726 LINE",
"1520 754 LINE",
"932 754 LINE",
"943 740 LINE",
"1096 1461 LINE",
"1079 1447 LINE",
"1778 1447 LINE",
"1784 1475 LINE",
"1062 1475 LINE",
"-98 0 LINE"
);
},
{
closed = 1;
nodes = (
"853 386 LINE",
"859 414 LINE",
"237 414 LINE",
"221 386 LINE"
);
}
);
width = 1758;
},
{
anchors = (
{
name = bottom;
position = "{800, 0}";
},
{
name = top;
position = "{1375, 1475}";
}
);
layerId = "BEF1FBB1-ACEC-4AC1-9895-C09886024D55";
paths = (
{
closed = 1;
nodes = (
"99 0 LINE",
"1080 1315 LINE",
"1067 1325 LINE",
"785 0 LINE",
"1591 0 LINE",
"1623 150 LINE",
"930 150 LINE",
"970 99 LINE",
"1102 720 LINE",
"1043 665 LINE",
"1622 665 LINE",
"1653 815 LINE",
"1071 815 LINE",
"1110 756 LINE",
"1243 1383 LINE",
"1173 1325 LINE",
"1873 1325 LINE",
"1905 1475 LINE",
"1016 1475 LINE",
"-97 0 LINE"
);
},
{
closed = 1;
nodes = (
"934 326 LINE",
"965 476 LINE",
"330 476 LINE",
"264 326 LINE"
);
}
);
width = 1845;
}
);
leftKerningGroup = AE;
rightKerningGroup = E;
rightMetricsKey = E;
unicode = 00C6;
},
{
glyphname = B;
lastChange = "2020-06-22 01:19:25 +0000";
layers = (
{
anchors = (
{
name = bottom;
position = "{533, 0}";
},
{
name = top;
position = "{847, 1475}";
}
);
layerId = "3FDD6C00-F7FD-4E85-84B0-0136AF7D7529";
paths = (
{
closed = 1;
nodes = (
"311 1475 LINE",
"-3 0 LINE",
"642 0 LINE SMOOTH",
"1026 0 OFFCURVE",
"1246 233 OFFCURVE",
"1246 507 CURVE SMOOTH",
"1246 648 OFFCURVE",
"1125 761 OFFCURVE",
"1002 765 CURVE",
"1128 776 OFFCURVE",
"1354 927 OFFCURVE",
"1354 1202 CURVE SMOOTH",
"1354 1333 OFFCURVE",
"1287 1475 OFFCURVE",
"956 1475 CURVE SMOOTH"
);
},
{
closed = 1;
nodes = (
"670 1353 LINE",
"449 1175 LINE",
"787 1175 LINE SMOOTH",
"907 1175 OFFCURVE",
"931 1140 OFFCURVE",
"931 1078 CURVE SMOOTH",
"931 977 OFFCURVE",
"847 903 OFFCURVE",
"727 903 CURVE SMOOTH",
"389 903 LINE",
"548 794 LINE"
);
},
{
closed = 1;
nodes = (
"263 301 LINE",
"407 123 LINE",
"529 703 LINE",
"328 605 LINE",
"692 605 LINE SMOOTH",
"812 605 OFFCURVE",
"834 548 OFFCURVE",
"834 488 CURVE SMOOTH",
"834 374 OFFCURVE",
"747 301 OFFCURVE",
"627 301 CURVE SMOOTH"
);
}
);
width = 1332;
},
{
anchors = (
{
name = bottom;
position = "{427, 0}";
},
{
name = top;
position = "{741, 1475}";
}
);
layerId = "2503C51C-5A6C-4B2C-A968-78FEA18C2585";
paths = (
{
closed = 1;
nodes = (
"376 1475 LINE",
"62 0 LINE",
"445 0 LINE SMOOTH",
"765 0 OFFCURVE",
"983 155 OFFCURVE",
"983 462 CURVE SMOOTH",
"983 686 OFFCURVE",
"858 773 OFFCURVE",
"687 778 CURVE",
"937 785 OFFCURVE",
"1111 960 OFFCURVE",
"1111 1218 CURVE SMOOTH",
"1111 1399 OFFCURVE",
"980 1475 OFFCURVE",
"768 1475 CURVE SMOOTH"
);
},
{
closed = 1;
nodes = (
"406 1461 LINE",
"389 1447 LINE",
"764 1447 LINE SMOOTH",
"956 1447 OFFCURVE",
"1080 1386 OFFCURVE",
"1080 1219 CURVE SMOOTH",
"1080 931 OFFCURVE",
"871 791 OFFCURVE",
"561 791 CURVE SMOOTH",
"249 791 LINE",
"260 777 LINE"
);
},
{
closed = 1;
nodes = (
"87 28 LINE",
"98 14 LINE",
"260 777 LINE",
"243 763 LINE",
"564 763 LINE SMOOTH",
"779 763 OFFCURVE",
"952 709 OFFCURVE",
"952 465 CURVE SMOOTH",
"952 177 OFFCURVE",
"750 28 OFFCURVE",
"446 28 CURVE SMOOTH"
);
}
);
width = 1180;
},
{
anchors = (
{
name = bottom;
position = "{457, 0}";
},
{
name = top;
position = "{771, 1475}";
}
);
layerId = "BEF1FBB1-ACEC-4AC1-9895-C09886024D55";
paths = (
{
closed = 1;
nodes = (
"342 1475 LINE",
"28 0 LINE",
"510 0 LINE SMOOTH",
"854 0 OFFCURVE",
"1072 184 OFFCURVE",
"1072 479 CURVE SMOOTH",
"1072 672 OFFCURVE",
"949 769 OFFCURVE",
"796 773 CURVE",
"999 782 OFFCURVE",
"1193 948 OFFCURVE",
"1193 1212 CURVE SMOOTH",
"1193 1374 OFFCURVE",
"1086 1475 OFFCURVE",
"829 1475 CURVE SMOOTH"
);
},
{
closed = 1;
nodes = (
"496 1421 LINE",
"402 1345 LINE",
"763 1345 LINE SMOOTH",
"928 1345 OFFCURVE",
"1015 1294 OFFCURVE",
"1015 1166 CURVE SMOOTH",
"1015 948 OFFCURVE",
"853 833 OFFCURVE",
"614 833 CURVE SMOOTH",
"292 833 LINE",
"359 783 LINE"
);
},
{
closed = 1;
nodes = (
"144 130 LINE",
"205 55 LINE",
"352 749 LINE",
"266 704 LINE",
"603 704 LINE SMOOTH",
"782 704 OFFCURVE",
"898 649 OFFCURVE",
"898 474 CURVE SMOOTH",
"898 251 OFFCURVE",
"740 130 OFFCURVE",
"505 130 CURVE SMOOTH"
);
}
);
width = 1219;
}
);
leftKerningGroup = H;
leftMetricsKey = H;
note = B;
rightKerningGroup = O;
rightMetricsKey = R;
unicode = 0042;
},
{
glyphname = C;
lastChange = "2020-06-22 01:19:25 +0000";
layers = (
{
anchors = (
{
name = bottom;
position = "{660, 0}";
},
{
name = top;
position = "{944, 1475}";
}
);
layerId = "3FDD6C00-F7FD-4E85-84B0-0136AF7D7529";
paths = (
{
closed = 1;
nodes = (
"1009 557 LINE",
"976 403 OFFCURVE",
"860 285 OFFCURVE",
"712 285 CURVE SMOOTH",
"589 285 OFFCURVE",
"515 388 OFFCURVE",
"515 564 CURVE SMOOTH",
"515 845 OFFCURVE",
"644 1188 OFFCURVE",
"904 1188 CURVE SMOOTH",
"1025 1188 OFFCURVE",
"1076 1118 OFFCURVE",
"1076 1001 CURVE SMOOTH",
"1076 978 OFFCURVE",
"1072 941 OFFCURVE",
"1067 918 CURVE",
"1472 918 LINE",
"1481 958 OFFCURVE",
"1485 998 OFFCURVE",
"1485 1039 CURVE SMOOTH",
"1485 1274 OFFCURVE",
"1323 1500 OFFCURVE",
"948 1500 CURVE SMOOTH",
"457 1500 OFFCURVE",
"107 1123 OFFCURVE",
"107 584 CURVE SMOOTH",
"107 234 OFFCURVE",
"283 -26 OFFCURVE",
"668 -26 CURVE SMOOTH",
"1107 -26 OFFCURVE",
"1357 288 OFFCURVE",
"1414 557 CURVE"
);
}
);
width = 1478;
},
{
anchors = (
{
name = bottom;
position = "{530, 0}";
},
{
name = top;
position = "{839, 1475}";
}
);
layerId = "2503C51C-5A6C-4B2C-A968-78FEA18C2585";
paths = (
{
closed = 1;
nodes = (
"1074 474 LINE",
"1031 271 OFFCURVE",
"821 11 OFFCURVE",
"531 11 CURVE SMOOTH",
"283 11 OFFCURVE",
"172 204 OFFCURVE",
"172 493 CURVE SMOOTH",
"172 961 OFFCURVE",
"417 1460 OFFCURVE",
"839 1460 CURVE SMOOTH",
"1087 1460 OFFCURVE",
"1196 1275 OFFCURVE",
"1196 1092 CURVE SMOOTH",
"1196 1059 OFFCURVE",
"1190 1019 OFFCURVE",
"1186 1000 CURVE",
"1217 1000 LINE",
"1221 1015 OFFCURVE",
"1226 1056 OFFCURVE",
"1226 1089 CURVE SMOOTH",
"1226 1289 OFFCURVE",
"1116 1488 OFFCURVE",
"839 1488 CURVE SMOOTH",
"393 1488 OFFCURVE",
"139 980 OFFCURVE",
"139 489 CURVE SMOOTH",
"139 186 OFFCURVE",
"261 -17 OFFCURVE",
"533 -17 CURVE SMOOTH",
"849 -17 OFFCURVE",
"1059 256 OFFCURVE",
"1105 474 CURVE"
);
}
);
width = 1234;
},
{
anchors = (
{
name = bottom;
position = "{552, 0}";
},
{
name = top;
position = "{854, 1475}";
}
);
layerId = "BEF1FBB1-ACEC-4AC1-9895-C09886024D55";
paths = (
{
closed = 1;
nodes = (
"1022 513 LINE",
"982 328 OFFCURVE",
"810 134 OFFCURVE",
"573 134 CURVE SMOOTH",
"372 134 OFFCURVE",
"276 266 OFFCURVE",
"276 512 CURVE SMOOTH",
"276 910 OFFCURVE",
"472 1338 OFFCURVE",
"833 1338 CURVE SMOOTH",
"1034 1338 OFFCURVE",
"1127 1209 OFFCURVE",
"1127 1050 CURVE SMOOTH",
"1127 1021 OFFCURVE",
"1121 982 OFFCURVE",
"1117 962 CURVE",
"1288 962 LINE",
"1294 986 OFFCURVE",
"1299 1017 OFFCURVE",
"1299 1053 CURVE SMOOTH",
"1299 1266 OFFCURVE",
"1176 1493 OFFCURVE",
"852 1493 CURVE SMOOTH",
"389 1493 OFFCURVE",
"103 1011 OFFCURVE",
"103 513 CURVE SMOOTH",
"103 204 OFFCURVE",
"241 -20 OFFCURVE",
"556 -20 CURVE SMOOTH",
"918 -20 OFFCURVE",
"1143 276 OFFCURVE",
"1193 513 CURVE"
);
}
);
width = 1281;
}
);
leftKerningGroup = O;
leftMetricsKey = O;
note = C;
rightKerningGroup = O;
rightMetricsKey = O;
unicode = 0043;
},
{
glyphname = Ccedilla;
lastChange = "2020-06-22 01:19:25 +0000";
layers = (
{
anchors = (
{
name = bottom;
position = "{458, -446}";
},
{
name = top;
position = "{839, 1475}";
}
);
layerId = "2503C51C-5A6C-4B2C-A968-78FEA18C2585";
paths = (
{
closed = 1;
nodes = (
"1074 474 LINE",
"1031 271 OFFCURVE",
"821 11 OFFCURVE",
"531 11 CURVE SMOOTH",
"283 11 OFFCURVE",
"172 204 OFFCURVE",
"172 493 CURVE SMOOTH",
"172 961 OFFCURVE",
"417 1460 OFFCURVE",
"839 1460 CURVE SMOOTH",
"1087 1460 OFFCURVE",
"1196 1275 OFFCURVE",
"1196 1092 CURVE SMOOTH",
"1196 1059 OFFCURVE",
"1190 1019 OFFCURVE",
"1186 1000 CURVE",
"1217 1000 LINE",
"1221 1015 OFFCURVE",
"1226 1056 OFFCURVE",
"1226 1089 CURVE SMOOTH",
"1226 1289 OFFCURVE",
"1116 1488 OFFCURVE",
"839 1488 CURVE SMOOTH",
"393 1488 OFFCURVE",
"139 980 OFFCURVE",
"139 489 CURVE SMOOTH",
"139 186 OFFCURVE",
"261 -17 OFFCURVE",
"533 -17 CURVE SMOOTH",
"849 -17 OFFCURVE",
"1059 256 OFFCURVE",
"1105 474 CURVE"
);
},
{
closed = 1;
nodes = (
"515 -155 OFFCURVE",
"469 -172 OFFCURVE",
"454 -197 CURVE",
"454 -207 LINE",
"545 -12 LINE",
"515 -12 LINE",
"422 -211 LINE",
"449 -224 LINE",
"473 -200 OFFCURVE",
"520 -183 OFFCURVE",
"556 -183 CURVE SMOOTH",
"606 -183 OFFCURVE",
"638 -206 OFFCURVE",
"638 -261 CURVE SMOOTH",
"638 -360 OFFCURVE",
"555 -418 OFFCURVE",
"462 -418 CURVE SMOOTH",
"397 -418 OFFCURVE",
"364 -399 OFFCURVE",
"354 -391 CURVE",
"336 -419 LINE",
"345 -427 OFFCURVE",
"392 -446 OFFCURVE",
"458 -446 CURVE SMOOTH",
"568 -446 OFFCURVE",
"668 -380 OFFCURVE",
"668 -258 CURVE SMOOTH",
"668 -183 OFFCURVE",
"619 -155 OFFCURVE",
"561 -155 CURVE SMOOTH"
);
}
);
width = 1234;
},
{
anchors = (
{
name = bottom;
position = "{609, -410}";
},
{
name = top;
position = "{944, 1475}";
}
);
layerId = "3FDD6C00-F7FD-4E85-84B0-0136AF7D7529";
paths = (
{
closed = 1;
nodes = (
"1009 557 LINE",
"976 403 OFFCURVE",
"860 285 OFFCURVE",
"712 285 CURVE SMOOTH",
"589 285 OFFCURVE",
"515 388 OFFCURVE",
"515 564 CURVE SMOOTH",
"515 845 OFFCURVE",
"644 1188 OFFCURVE",
"904 1188 CURVE SMOOTH",
"1025 1188 OFFCURVE",
"1076 1118 OFFCURVE",
"1076 1001 CURVE SMOOTH",
"1076 978 OFFCURVE",
"1072 941 OFFCURVE",
"1067 918 CURVE",
"1472 918 LINE",
"1481 958 OFFCURVE",
"1485 998 OFFCURVE",
"1485 1039 CURVE SMOOTH",
"1485 1274 OFFCURVE",
"1323 1500 OFFCURVE",
"948 1500 CURVE SMOOTH",
"457 1500 OFFCURVE",
"107 1123 OFFCURVE",
"107 584 CURVE SMOOTH",
"107 234 OFFCURVE",
"283 -26 OFFCURVE",
"668 -26 CURVE SMOOTH",
"1107 -26 OFFCURVE",
"1357 288 OFFCURVE",
"1414 557 CURVE"
);
},
{
closed = 1;
nodes = (
"714 -56 OFFCURVE",
"673 -75 OFFCURVE",
"656 -107 CURVE",
"666 -107 LINE",
"739 0 LINE",
"573 0 LINE",
"479 -143 LINE",
"619 -182 LINE",
"636 -160 OFFCURVE",
"672 -150 OFFCURVE",
"703 -150 CURVE SMOOTH",
"731 -150 OFFCURVE",
"754 -162 OFFCURVE",
"754 -190 CURVE SMOOTH",
"754 -240 OFFCURVE",
"696 -265 OFFCURVE",
"621 -265 CURVE SMOOTH",
"550 -265 OFFCURVE",
"471 -230 OFFCURVE",
"444 -212 CURVE",
"348 -353 LINE",
"387 -382 OFFCURVE",
"508 -410 OFFCURVE",
"597 -410 CURVE SMOOTH",
"763 -410 OFFCURVE",
"925 -336 OFFCURVE",
"925 -182 CURVE SMOOTH",
"925 -89 OFFCURVE",
"845 -56 OFFCURVE",
"779 -56 CURVE SMOOTH"
);
}
);
width = 1478;
},
{
anchors = (
{
name = bottom;
position = "{489, -439}";
},
{
name = top;
position = "{858, 1475}";
}
);
layerId = "BEF1FBB1-ACEC-4AC1-9895-C09886024D55";
paths = (
{
closed = 1;
nodes = (
"1022 513 LINE",
"982 328 OFFCURVE",
"810 134 OFFCURVE",
"573 134 CURVE SMOOTH",
"372 134 OFFCURVE",
"276 266 OFFCURVE",
"276 512 CURVE SMOOTH",
"276 910 OFFCURVE",
"472 1338 OFFCURVE",
"833 1338 CURVE SMOOTH",
"1034 1338 OFFCURVE",
"1127 1209 OFFCURVE",
"1127 1050 CURVE SMOOTH",
"1127 1021 OFFCURVE",
"1121 982 OFFCURVE",
"1117 962 CURVE",
"1288 962 LINE",
"1294 986 OFFCURVE",
"1299 1017 OFFCURVE",
"1299 1053 CURVE SMOOTH",
"1299 1266 OFFCURVE",
"1176 1493 OFFCURVE",
"852 1493 CURVE SMOOTH",
"389 1493 OFFCURVE",
"103 1011 OFFCURVE",
"103 513 CURVE SMOOTH",
"103 204 OFFCURVE",
"241 -20 OFFCURVE",
"556 -20 CURVE SMOOTH",
"918 -20 OFFCURVE",
"1143 276 OFFCURVE",
"1193 513 CURVE"
);
},
{
closed = 1;
nodes = (
"564 -114 OFFCURVE",
"510 -142 OFFCURVE",
"494 -170 CURVE",
"508 -176 LINE",
"592 -14 LINE",
"511 -14 LINE",
"418 -192 LINE",
"487 -215 LINE",
"508 -192 OFFCURVE",
"551 -177 OFFCURVE",
"585 -177 CURVE SMOOTH",
"627 -177 OFFCURVE",
"656 -196 OFFCURVE",
"656 -241 CURVE SMOOTH",
"656 -322 OFFCURVE",
"582 -367 OFFCURVE",
"496 -367 CURVE SMOOTH",
"429 -367 OFFCURVE",
"378 -342 OFFCURVE",
"362 -330 CURVE",
"315 -401 LINE",
"335 -417 OFFCURVE",
"410 -439 OFFCURVE",
"484 -439 CURVE SMOOTH",
"615 -439 OFFCURVE",
"739 -370 OFFCURVE",
"739 -236 CURVE SMOOTH",
"739 -154 OFFCURVE",
"678 -114 OFFCURVE",
"617 -114 CURVE SMOOTH"
);
}
);
width = 1281;
}
);
leftKerningGroup = O;
rightKerningGroup = O;
unicode = 00C7;
},
{
glyphname = D;
lastChange = "2020-06-22 01:19:25 +0000";
layers = (
{
anchors = (
{
name = bottom;
position = "{536, 0}";
},
{
name = center;
position = "{429, 735}";
},
{
name = top;
position = "{850, 1475}";
}
);
layerId = "3FDD6C00-F7FD-4E85-84B0-0136AF7D7529";
paths = (
{
closed = 1;
nodes = (
"545 0 LINE SMOOTH",
"1016 0 OFFCURVE",
"1388 406 OFFCURVE",
"1388 906 CURVE SMOOTH",
"1388 1228 OFFCURVE",
"1194 1475 OFFCURVE",
"849 1475 CURVE SMOOTH",
"311 1475 LINE",
"-3 0 LINE"
);
},
{
closed = 1;
nodes = (
"689 1353 LINE",
"469 1155 LINE",
"741 1155 LINE SMOOTH",
"886 1155 OFFCURVE",
"978 1052 OFFCURVE",
"978 874 CURVE SMOOTH",
"978 615 OFFCURVE",
"808 320 OFFCURVE",
"555 320 CURVE SMOOTH",
"283 320 LINE",
"427 122 LINE"
);
}
);
width = 1400;
},
{
anchors = (
{
name = bottom;
position = "{467, 0}";
},
{
name = center;
position = "{382, 738}";
},
{
name = top;
position = "{781, 1475}";
}
);
layerId = "2503C51C-5A6C-4B2C-A968-78FEA18C2585";
paths = (
{
closed = 1;
nodes = (
"334 0 LINE SMOOTH",
"717 0 OFFCURVE",
"1141 355 OFFCURVE",
"1141 971 CURVE SMOOTH",
"1141 1250 OFFCURVE",
"1021 1475 OFFCURVE",
"638 1475 CURVE SMOOTH",
"376 1475 LINE",
"62 0 LINE"
);
},
{
closed = 1;
nodes = (
"406 1461 LINE",
"389 1447 LINE",
"638 1447 LINE SMOOTH",
"1002 1447 OFFCURVE",
"1109 1231 OFFCURVE",
"1109 971 CURVE SMOOTH",
"1109 370 OFFCURVE",
"695 28 OFFCURVE",
"331 28 CURVE SMOOTH",
"87 28 LINE",
"98 14 LINE"
);
}
);
width = 1193;
},
{
anchors = (
{
name = bottom;
position = "{484, 0}";
},
{
name = center;
position = "{390, 737}";
},
{
name = top;
position = "{798, 1475}";
}
);
layerId = "BEF1FBB1-ACEC-4AC1-9895-C09886024D55";
paths = (
{
closed = 1;
nodes = (
"404 0 LINE SMOOTH",
"820 0 OFFCURVE",
"1217 374 OFFCURVE",
"1217 947 CURVE SMOOTH",
"1217 1242 OFFCURVE",
"1077 1475 OFFCURVE",
"708 1475 CURVE SMOOTH",
"342 1475 LINE",
"28 0 LINE"
);
},
{
closed = 1;
nodes = (
"503 1421 LINE",
"410 1345 LINE",
"667 1345 LINE SMOOTH",
"942 1345 OFFCURVE",
"1043 1164 OFFCURVE",
"1043 935 CURVE SMOOTH",
"1043 462 OFFCURVE",
"721 130 OFFCURVE",
"406 130 CURVE SMOOTH",
"151 130 LINE",
"212 55 LINE"
);
}
);
width = 1239;
}
);
leftKerningGroup = H;
leftMetricsKey = H;
note = D;
rightKerningGroup = O;
rightMetricsKey = O;
unicode = 0044;
},
{
glyphname = Eth;
lastChange = "2020-06-22 01:19:25 +0000";
layers = (
{
components = (
{
name = D;
}
);
layerId = "2503C51C-5A6C-4B2C-A968-78FEA18C2585";
paths = (
{
closed = 1;
nodes = (
"711 725 LINE",
"716 751 LINE",
"54 751 LINE",
"47 725 LINE"
);
}
);
width = 1193;
},
{
components = (
{
name = D;
}
);
layerId = "3FDD6C00-F7FD-4E85-84B0-0136AF7D7529";
paths = (
{
closed = 1;
nodes = (
"785 645 LINE",
"823 824 LINE",
"73 824 LINE",
"35 645 LINE"
);
}
);
width = 1400;
},
{
components = (
{
name = D;
}
);
layerId = "BEF1FBB1-ACEC-4AC1-9895-C09886024D55";
paths = (
{
closed = 1;
nodes = (
"729 696 LINE",
"746 779 LINE",
"51 779 LINE",
"32 696 LINE"
);
}
);
width = 1239;
}
);
leftKerningGroup = H;
rightKerningGroup = O;
unicode = 00D0;
},
{
glyphname = E;
lastChange = "2020-06-22 01:19:25 +0000";
layers = (
{
anchors = (
{
name = bottom;
position = "{494, 0}";
},
{
name = ogonek;
position = "{954, 0}";
},
{
name = top;
position = "{788, 1475}";
},
{
name = topleft;
position = "{248, 1475}";
}
);
layerId = "3FDD6C00-F7FD-4E85-84B0-0136AF7D7529";
paths = (
{
closed = 1;
nodes = (
"1204 1175 LINE",
"1268 1475 LINE",
"311 1475 LINE",
"-3 0 LINE",
"954 0 LINE",
"1018 300 LINE",
"285 300 LINE",
"428 118 LINE",
"551 697 LINE",
"439 590 LINE",
"969 590 LINE",
"1032 890 LINE",
"502 890 LINE",
"569 782 LINE",
"692 1357 LINE",
"471 1175 LINE"
);
}
);
width = 1177;
},
{
anchors = (
{
name = bottom;
position = "{453, 0}";
},
{
name = ogonek;
position = "{777, 0}";
},
{
name = top;
position = "{767, 1475}";
},
{
name = topleft;
position = "{279, 1475}";
}
);
layerId = "2503C51C-5A6C-4B2C-A968-78FEA18C2585";
paths = (
{
closed = 1;
nodes = (
"1085 1447 LINE",
"1091 1475 LINE",
"376 1475 LINE",
"62 0 LINE",
"777 0 LINE",
"783 28 LINE",
"85 28 LINE",
"96 14 LINE",
"251 740 LINE",
"234 726 LINE",
"881 726 LINE",
"887 754 LINE",
"240 754 LINE",
"251 740 LINE",
"404 1461 LINE",
"387 1447 LINE"
);
}
);
width = 1065;
},
{
anchors = (
{
name = bottom;
position = "{459, 0}";
},
{
name = ogonek;
position = "{834, 0}";
},
{
name = top;
position = "{766, 1475}";
},
{
name = topleft;
position = "{258, 1475}";
}
);
layerId = "BEF1FBB1-ACEC-4AC1-9895-C09886024D55";
paths = (
{
closed = 1;
nodes = (
"1116 1325 LINE",
"1148 1475 LINE",
"342 1475 LINE",
"28 0 LINE",
"834 0 LINE",
"866 150 LINE",
"154 150 LINE",
"211 53 LINE",
"353 724 LINE",
"299 665 LINE",
"865 665 LINE",
"896 815 LINE",
"330 815 LINE",
"360 756 LINE",
"501 1422 LINE",
"404 1325 LINE"
);
}
);
width = 1088;
}
);
leftKerningGroup = H;
leftMetricsKey = H;
note = E;
rightKerningGroup = E;
rightMetricsKey = H;
unicode = 0045;
},
{
glyphname = Ezh;
lastChange = "2020-06-22 01:19:25 +0000";
layers = (
{
anchors = (
{
name = bottom;
position = "{421, 0}";
},
{
name = top;
position = "{735, 1475}";
}
);
layerId = "2503C51C-5A6C-4B2C-A968-78FEA18C2585";
paths = (
{
closed = 1;
nodes = (
"696 -17 OFFCURVE",
"870 258 OFFCURVE",
"870 542 CURVE SMOOTH",
"870 694 OFFCURVE",
"789 789 OFFCURVE",
"574 789 CURVE",
"1093 1451 LINE",
"1099 1475 LINE",
"377 1475 LINE",
"371 1447 LINE",
"1054 1447 LINE",
"513 761 LINE",
"574 761 LINE",
"758 761 OFFCURVE",
"839 685 OFFCURVE",
"839 542 CURVE SMOOTH",
"839 284 OFFCURVE",
"677 11 OFFCURVE",
"431 11 CURVE SMOOTH",
"267 11 OFFCURVE",
"175 84 OFFCURVE",
"175 261 CURVE SMOOTH",
"175 330 OFFCURVE",
"192 414 OFFCURVE",
"196 429 CURVE",
"164 429 LINE",
"161 415 OFFCURVE",
"143 331 OFFCURVE",
"143 255 CURVE SMOOTH",
"143 64 OFFCURVE",
"245 -17 OFFCURVE",
"431 -17 CURVE SMOOTH"
);
}
);
width = 1067;
},
{
anchors = (
{
name = bottom;
position = "{547, 0}";
},
{
name = top;
position = "{861, 1475}";
}
);
layerId = "3FDD6C00-F7FD-4E85-84B0-0136AF7D7529";
paths = (
{
closed = 1;
nodes = (
"940 -26 OFFCURVE",
"1197 183 OFFCURVE",
"1197 536 CURVE SMOOTH",
"1197 732 OFFCURVE",
"1097 836 OFFCURVE",
"965 836 CURVE",
"1284 1198 LINE",
"1343 1475 LINE",
"346 1475 LINE",
"282 1175 LINE",
"885 1175 LINE",
"421 630 LINE",
"548 630 LINE",
"730 630 OFFCURVE",
"791 589 OFFCURVE",
"791 500 CURVE SMOOTH",
"791 372 OFFCURVE",
"729 275 OFFCURVE",
"596 275 CURVE SMOOTH",
"513 275 OFFCURVE",
"459 304 OFFCURVE",
"459 402 CURVE SMOOTH",
"459 445 OFFCURVE",
"468 482 OFFCURVE",
"471 494 CURVE",
"68 494 LINE",
"65 483 OFFCURVE",
"52 431 OFFCURVE",
"52 356 CURVE SMOOTH",
"52 151 OFFCURVE",
"171 -26 OFFCURVE",
"546 -26 CURVE SMOOTH"
);
}
);
width = 1319;
},
{
anchors = (
{
name = bottom;
position = "{459, 0}";
},
{
name = top;
position = "{773, 1475}";
}
);
layerId = "BEF1FBB1-ACEC-4AC1-9895-C09886024D55";
paths = (
{
closed = 1;
nodes = (
"780 -20 OFFCURVE",
"977 187 OFFCURVE",
"977 515 CURVE SMOOTH",
"977 714 OFFCURVE",
"879 818 OFFCURVE",
"737 818 CURVE",
"1151 1336 LINE",
"1181 1475 LINE",
"356 1475 LINE",
"324 1325 LINE",
"940 1325 LINE",
"428 672 LINE",
"520 672 LINE",
"719 672 OFFCURVE",
"798 629 OFFCURVE",
"798 491 CURVE SMOOTH",
"798 286 OFFCURVE",
"690 130 OFFCURVE",
"482 130 CURVE SMOOTH",
"347 130 OFFCURVE",
"268 181 OFFCURVE",
"268 324 CURVE SMOOTH",
"268 377 OFFCURVE",
"276 426 OFFCURVE",
"284 453 CURVE",
"113 453 LINE",
"105 425 OFFCURVE",
"94 374 OFFCURVE",
"94 298 CURVE SMOOTH",
"94 102 OFFCURVE",
"202 -20 OFFCURVE",
"458 -20 CURVE SMOOTH"
);
}
);
width = 1143;
}
);
unicode = 01B7;
},
{
glyphname = F;
lastChange = "2020-06-22 01:19:25 +0000";
layers = (
{
anchors = (
{
name = bottom;
position = "{491, 0}";
},
{
name = top;
position = "{805, 1475}";
}
);
layerId = "3FDD6C00-F7FD-4E85-84B0-0136AF7D7529";
paths = (
{
closed = 1;
nodes = (
"1223 1175 LINE",
"1287 1475 LINE",
"311 1475 LINE",
"-3 0 LINE",
"399 0 LINE",
"541 668 LINE",
"396 565 LINE",
"1004 565 LINE",
"1068 866 LINE",
"460 866 LINE",
"563 771 LINE",
"688 1357 LINE",
"467 1175 LINE"
);
}
);
width = 1176;
},
{
anchors = (
{
name = bottom;
position = "{416, 0}";
},
{
name = top;
position = "{730, 1475}";
}
);
layerId = "2503C51C-5A6C-4B2C-A968-78FEA18C2585";
paths = (
{
closed = 1;
nodes = (
"1065 1447 LINE",
"1071 1475 LINE",
"376 1475 LINE",
"62 0 LINE",
"92 0 LINE",
"248 734 LINE",
"231 720 LINE",
"821 720 LINE",
"827 748 LINE",
"237 748 LINE",
"248 734 LINE",
"403 1461 LINE",
"386 1447 LINE"
);
}
);
width = 984;
},
{
anchors = (
{
name = bottom;
position = "{435, 0}";
},
{
name = top;
position = "{749, 1475}";
}
);
layerId = "BEF1FBB1-ACEC-4AC1-9895-C09886024D55";
paths = (
{
closed = 1;
nodes = (
"1111 1325 LINE",
"1143 1475 LINE",
"342 1475 LINE",
"28 0 LINE",
"198 0 LINE",
"349 709 LINE",
"282 652 LINE",
"879 652 LINE",
"911 802 LINE",
"314 802 LINE",
"357 748 LINE",
"500 1422 LINE",
"403 1325 LINE"
);
}
);
width = 1037;
}
);
leftKerningGroup = H;
leftMetricsKey = H;
note = F;
rightKerningGroup = F;
unicode = 0046;
},
{
glyphname = G;
lastChange = "2020-06-22 01:19:25 +0000";
layers = (
{
anchors = (
{
name = bottom;
position = "{664, 0}";
},
{
name = top;
position = "{942, 1475}";
}
);
layerId = "3FDD6C00-F7FD-4E85-84B0-0136AF7D7529";
paths = (
{
closed = 1;
nodes = (
"898 -26 OFFCURVE",
"1031 103 OFFCURVE",
"1063 163 CURVE",
"1069 0 LINE",
"1257 0 LINE",
"1421 769 LINE",
"818 769 LINE",
"758 490 LINE",
"1004 490 LINE",
"997 454 LINE",
"965 387 OFFCURVE",
"860 285 OFFCURVE",
"717 285 CURVE SMOOTH",
"610 285 OFFCURVE",
"508 340 OFFCURVE",
"508 551 CURVE SMOOTH",
"508 826 OFFCURVE",
"634 1188 OFFCURVE",
"914 1188 CURVE SMOOTH",
"1026 1188 OFFCURVE",
"1086 1118 OFFCURVE",
"1086 1033 CURVE SMOOTH",
"1086 1013 OFFCURVE",
"1082 990 OFFCURVE",
"1080 981 CURVE",
"1472 981 LINE",
"1476 997 OFFCURVE",
"1481 1039 OFFCURVE",
"1481 1064 CURVE SMOOTH",
"1481 1254 OFFCURVE",
"1338 1500 OFFCURVE",
"950 1500 CURVE SMOOTH",
"429 1500 OFFCURVE",
"100 1074 OFFCURVE",
"100 539 CURVE SMOOTH",
"100 172 OFFCURVE",
"307 -26 OFFCURVE",
"621 -26 CURVE SMOOTH"
);
}
);
width = 1486;
},
{
anchors = (
{
name = bottom;
position = "{556, 0}";
},
{
name = top;
position = "{849, 1475}";
}
);
layerId = "2503C51C-5A6C-4B2C-A968-78FEA18C2585";
paths = (
{
closed = 1;
nodes = (
"806 -17 OFFCURVE",
"972 120 OFFCURVE",
"1013 197 CURVE",
"971 0 LINE",
"1003 0 LINE",
"1141 653 LINE",
"680 653 LINE",
"675 625 LINE",
"1105 625 LINE",
"1028 263 LINE",
"978 169 OFFCURVE",
"825 11 OFFCURVE",
"547 11 CURVE SMOOTH",
"309 11 OFFCURVE",
"169 216 OFFCURVE",
"169 504 CURVE SMOOTH",
"169 969 OFFCURVE",
"450 1459 OFFCURVE",
"871 1459 CURVE SMOOTH",
"1119 1459 OFFCURVE",
"1201 1290 OFFCURVE",
"1201 1121 CURVE SMOOTH",
"1201 1082 OFFCURVE",
"1195 1024 OFFCURVE",
"1187 993 CURVE",
"1217 993 LINE",
"1224 1023 OFFCURVE",
"1232 1081 OFFCURVE",
"1232 1123 CURVE SMOOTH",
"1232 1302 OFFCURVE",
"1142 1488 OFFCURVE",
"871 1488 CURVE SMOOTH",
"426 1488 OFFCURVE",
"138 990 OFFCURVE",
"138 502 CURVE SMOOTH",
"138 191 OFFCURVE",
"292 -17 OFFCURVE",
"547 -17 CURVE SMOOTH"
);
}
);
width = 1294;
},
{
anchors = (
{
name = bottom;
position = "{587, 0}";
},
{
name = top;
position = "{876, 1475}";
}
);
layerId = "BEF1FBB1-ACEC-4AC1-9895-C09886024D55";
paths = (
{
closed = 1;
nodes = (
"837 -20 OFFCURVE",
"961 124 OFFCURVE",
"990 164 CURVE",
"964 0 LINE",
"1091 0 LINE",
"1240 697 LINE",
"725 697 LINE",
"694 554 LINE",
"1055 554 LINE",
"1030 431 LINE",
"980 311 OFFCURVE",
"835 134 OFFCURVE",
"598 134 CURVE SMOOTH",
"409 134 OFFCURVE",
"275 273 OFFCURVE",
"275 528 CURVE SMOOTH",
"275 923 OFFCURVE",
"494 1337 OFFCURVE",
"866 1337 CURVE SMOOTH",
"1068 1337 OFFCURVE",
"1149 1210 OFFCURVE",
"1149 1074 CURVE SMOOTH",
"1149 1051 OFFCURVE",
"1144 1006 OFFCURVE",
"1139 985 CURVE",
"1305 985 LINE",
"1311 1007 OFFCURVE",
"1316 1055 OFFCURVE",
"1316 1087 CURVE SMOOTH",
"1316 1274 OFFCURVE",
"1199 1493 OFFCURVE",
"888 1493 CURVE SMOOTH",
"421 1493 OFFCURVE",
"104 1028 OFFCURVE",
"104 529 CURVE SMOOTH",
"104 193 OFFCURVE",
"299 -20 OFFCURVE",
"572 -20 CURVE SMOOTH"
);
}
);
width = 1350;
}
);
leftKerningGroup = O;
leftMetricsKey = O;
note = G;
rightKerningGroup = O;
rightMetricsKey = H;
unicode = 0047;
},
{
glyphname = Gstroke;
lastChange = "2020-06-22 01:19:25 +0000";
layers = (
{
layerId = "2503C51C-5A6C-4B2C-A968-78FEA18C2585";
paths = (
{
closed = 1;
nodes = (
"1186 354 LINE",
"1191 380 LINE",
"599 380 LINE",
"594 354 LINE"
);
},
{
closed = 1;
nodes = (
"807 -17 OFFCURVE",
"950 120 OFFCURVE",
"991 197 CURVE",
"949 0 LINE",
"981 0 LINE",
"1119 653 LINE",
"658 653 LINE",
"653 625 LINE",
"1083 625 LINE",
"1005 262 LINE",
"955 168 OFFCURVE",
"823 11 OFFCURVE",
"535 11 CURVE SMOOTH",
"292 11 OFFCURVE",
"172 203 OFFCURVE",
"172 503 CURVE SMOOTH",
"172 970 OFFCURVE",
"427 1459 OFFCURVE",
"849 1459 CURVE SMOOTH",
"1097 1459 OFFCURVE",
"1179 1290 OFFCURVE",
"1179 1121 CURVE SMOOTH",
"1179 1082 OFFCURVE",
"1173 1024 OFFCURVE",
"1165 993 CURVE",
"1195 993 LINE",
"1203 1023 OFFCURVE",
"1210 1082 OFFCURVE",
"1210 1125 CURVE SMOOTH",
"1210 1303 OFFCURVE",
"1121 1488 OFFCURVE",
"851 1488 CURVE SMOOTH",
"408 1488 OFFCURVE",
"140 990 OFFCURVE",
"140 497 CURVE SMOOTH",
"140 178 OFFCURVE",
"276 -17 OFFCURVE",
"535 -17 CURVE SMOOTH"
);
}
);
width = 1228;
},
{
layerId = "3FDD6C00-F7FD-4E85-84B0-0136AF7D7529";
paths = (
{
closed = 1;
nodes = (
"1418 338 LINE",
"1463 547 LINE",
"754 547 LINE",
"709 338 LINE"
);
},
{
closed = 1;
nodes = (
"881 -26 OFFCURVE",
"1014 103 OFFCURVE",
"1046 163 CURVE",
"1052 0 LINE",
"1240 0 LINE",
"1417 829 LINE",
"814 829 LINE",
"763 590 LINE",
"1009 590 LINE",
"973 424 LINE",
"944 367 OFFCURVE",
"843 285 OFFCURVE",
"700 285 CURVE SMOOTH",
"595 285 OFFCURVE",
"499 325 OFFCURVE",
"499 532 CURVE SMOOTH",
"499 811 OFFCURVE",
"618 1188 OFFCURVE",
"897 1188 CURVE SMOOTH",
"1008 1188 OFFCURVE",
"1068 1111 OFFCURVE",
"1068 1025 CURVE SMOOTH",
"1068 1004 OFFCURVE",
"1063 980 OFFCURVE",
"1061 971 CURVE",
"1453 971 LINE",
"1458 990 OFFCURVE",
"1463 1033 OFFCURVE",
"1463 1063 CURVE SMOOTH",
"1463 1253 OFFCURVE",
"1335 1500 OFFCURVE",
"953 1500 CURVE SMOOTH",
"439 1500 OFFCURVE",
"95 1057 OFFCURVE",
"95 517 CURVE SMOOTH",
"95 158 OFFCURVE",
"287 -26 OFFCURVE",
"604 -26 CURVE SMOOTH"
);
}
);
width = 1466;
},
{
layerId = "BEF1FBB1-ACEC-4AC1-9895-C09886024D55";
paths = (
{
closed = 1;
nodes = (
"1260 326 LINE",
"1283 436 LINE",
"644 436 LINE",
"621 326 LINE"
);
},
{
closed = 1;
nodes = (
"813 -20 OFFCURVE",
"938 124 OFFCURVE",
"967 164 CURVE",
"941 0 LINE",
"1068 0 LINE",
"1217 697 LINE",
"702 697 LINE",
"671 554 LINE",
"1032 554 LINE",
"1003 409 LINE",
"953 289 OFFCURVE",
"812 134 OFFCURVE",
"575 134 CURVE SMOOTH",
"383 134 OFFCURVE",
"276 256 OFFCURVE",
"276 517 CURVE SMOOTH",
"276 922 OFFCURVE",
"468 1337 OFFCURVE",
"843 1337 CURVE SMOOTH",
"1045 1337 OFFCURVE",
"1126 1210 OFFCURVE",
"1126 1074 CURVE SMOOTH",
"1126 1051 OFFCURVE",
"1121 1006 OFFCURVE",
"1116 985 CURVE",
"1282 985 LINE",
"1288 1009 OFFCURVE",
"1294 1058 OFFCURVE",
"1294 1092 CURVE SMOOTH",
"1294 1278 OFFCURVE",
"1182 1493 OFFCURVE",
"866 1493 CURVE SMOOTH",
"401 1493 OFFCURVE",
"104 1021 OFFCURVE",
"104 519 CURVE SMOOTH",
"104 177 OFFCURVE",
"272 -20 OFFCURVE",
"548 -20 CURVE SMOOTH"
);
}
);
width = 1286;
}
);
leftKerningGroup = O;
leftMetricsKey = O;
unicode = 01E4;
},
{
glyphname = H;
lastChange = "2020-06-22 01:19:25 +0000";
layers = (
{
anchors = (
{
name = bottom;
position = "{630, 0}";
},
{
name = center;
position = "{787, 738}";
},
{
name = top;
position = "{944, 1475}";
},
{
name = topleft;
position = "{254, 1475}";
}
);
layerId = "3FDD6C00-F7FD-4E85-84B0-0136AF7D7529";
paths = (
{
closed = 1;
nodes = (
"1166 1475 LINE",
"1002 706 LINE",
"1222 884 LINE",
"407 884 LINE",
"551 706 LINE",
"715 1475 LINE",
"311 1475 LINE",
"-3 0 LINE",
"401 0 LINE",
"563 761 LINE",
"343 583 LINE",
"1158 583 LINE",
"1014 761 LINE",
"852 0 LINE",
"1256 0 LINE",
"1570 1475 LINE"
);
}
);
width = 1479;
},
{
anchors = (
{
name = bottom;
position = "{482, 0}";
},
{
name = center;
position = "{639, 738}";
},
{
name = top;
position = "{796, 1475}";
},
{
name = topleft;
position = "{332, 1475}";
}
);
layerId = "2503C51C-5A6C-4B2C-A968-78FEA18C2585";
paths = (
{
closed = 1;
nodes = (
"1191 1475 LINE",
"1033 734 LINE",
"1050 748 LINE",
"237 748 LINE",
"248 734 LINE",
"406 1475 LINE",
"376 1475 LINE",
"62 0 LINE",
"92 0 LINE",
"248 733 LINE",
"231 719 LINE",
"1044 719 LINE",
"1033 733 LINE",
"877 0 LINE",
"907 0 LINE",
"1221 1475 LINE"
);
}
);
width = 1195;
},
{
anchors = (
{
name = bottom;
position = "{528, 0}";
},
{
name = center;
position = "{685, 738}";
},
{
name = top;
position = "{842, 1475}";
},
{
name = topleft;
position = "{293, 1475}";
}
);
layerId = "BEF1FBB1-ACEC-4AC1-9895-C09886024D55";
paths = (
{
closed = 1;
nodes = (
"1172 1475 LINE",
"1012 723 LINE",
"1105 811 LINE",
"291 811 LINE",
"352 723 LINE",
"513 1475 LINE",
"342 1475 LINE",
"28 0 LINE",
"199 0 LINE",
"357 745 LINE",
"264 661 LINE",
"1077 661 LINE",
"1017 745 LINE",
"858 0 LINE",
"1029 0 LINE",
"1343 1475 LINE"
);
}
);
width = 1283;
}
);
leftKerningGroup = H;
note = H;
rightKerningGroup = H;
unicode = 0048;
},
{
glyphname = Hbar;
lastChange = "2020-06-22 01:19:25 +0000";
layers = (
{
components = (
{
name = H;
}
);
layerId = "3FDD6C00-F7FD-4E85-84B0-0136AF7D7529";
paths = (
{
closed = 1;
nodes = (
"1563 1083 LINE",
"1601 1262 LINE",
"188 1262 LINE",
"150 1083 LINE"
);
}
);
width = 1479;
},
{
components = (
{
name = H;
}
);
layerId = "2503C51C-5A6C-4B2C-A968-78FEA18C2585";
paths = (
{
closed = 1;
nodes = (
"1257 1143 LINE",
"1263 1169 LINE",
"207 1169 LINE",
"201 1143 LINE"
);
}
);
width = 1195;
},
{
components = (
{
alignment = -1;
name = H;
}
);
layerId = "BEF1FBB1-ACEC-4AC1-9895-C09886024D55";
paths = (
{
closed = 1;
nodes = (
"1352 1083 LINE",
"1380 1213 LINE",
"190 1213 LINE",
"162 1083 LINE"
);
}
);
width = 1283;
}
);
leftKerningGroup = H;
rightKerningGroup = H;
unicode = 0126;
},
{
glyphname = I;
lastChange = "2020-06-22 01:19:25 +0000";
layers = (
{
anchors = (
{
name = bottom;
position = "{192, 0}";
},
{
name = ogonek;
position = "{394, 0}";
},
{
name = top;
position = "{506, 1475}";
},
{
name = topleft;
position = "{198, 1475}";
}
);
layerId = "3FDD6C00-F7FD-4E85-84B0-0136AF7D7529";
paths = (
{
closed = 1;
nodes = (
"394 0 LINE",
"708 1475 LINE",
"304 1475 LINE",
"-10 0 LINE"
);
}
);
width = 614;
},
{
anchors = (
{
name = bottom;
position = "{103, 0}";
},
{
name = ogonek;
position = "{119, 0}";
},
{
name = top;
position = "{418, 1475}";
},
{
name = topleft;
position = "{256, 1475}";
}
);
layerId = "2503C51C-5A6C-4B2C-A968-78FEA18C2585";
paths = (
{
closed = 1;
nodes = (
"119 0 LINE",
"432 1475 LINE",
"401 1475 LINE",
"88 0 LINE"
);
}
);
width = 440;
},
{
anchors = (
{
name = bottom;
position = "{116, 0}";
},
{
name = ogonek;
position = "{202, 0}";
},
{
name = top;
position = "{431, 1475}";
},
{
name = topleft;
position = "{214, 1475}";
}
);
layerId = "BEF1FBB1-ACEC-4AC1-9895-C09886024D55";
paths = (
{
closed = 1;
nodes = (
"202 0 LINE",
"514 1475 LINE",
"345 1475 LINE",
"32 0 LINE"
);
}
);
width = 464;
}
);
leftKerningGroup = H;
note = I;
rightKerningGroup = H;
unicode = 0049;
},
{
color = 3;
glyphname = I.ss01;
lastChange = "2020-06-22 01:19:25 +0000";
layers = (
{
anchors = (
{
name = bottom;
position = "{389, 0}";
},
{
name = ogonek;
position = "{734, 0}";
},
{
name = top;
position = "{703, 1475}";
},
{
name = topleft;
position = "{355, 1475}";
}
);
layerId = "2503C51C-5A6C-4B2C-A968-78FEA18C2585";
paths = (
{
closed = 1;
nodes = (
"735 0 LINE",
"741 28 LINE",
"396 28 LINE",
"407 14 LINE",
"715 1461 LINE",
"698 1447 LINE",
"1043 1447 LINE",
"1049 1475 LINE",
"356 1475 LINE",
"350 1447 LINE",
"695 1447 LINE",
"684 1461 LINE",
"376 14 LINE",
"393 28 LINE",
"48 28 LINE",
"42 0 LINE"
);
}
);
width = 1003;
},
{
anchors = (
{
name = bottom;
position = "{464, 0}";
},
{
name = ogonek;
position = "{960, 0}";
},
{
name = top;
position = "{778, 1475}";
},
{
name = topleft;
position = "{280, 1475}";
}
);
layerId = "3FDD6C00-F7FD-4E85-84B0-0136AF7D7529";
paths = (
{
closed = 1;
nodes = (
"959 0 LINE",
"1023 300 LINE",
"545 300 LINE",
"688 118 LINE",
"952 1357 LINE",
"731 1175 LINE",
"1209 1175 LINE",
"1273 1475 LINE",
"279 1475 LINE",
"215 1175 LINE",
"692 1175 LINE",
"549 1357 LINE",
"285 118 LINE",
"506 300 LINE",
"29 300 LINE",
"-35 0 LINE"
);
}
);
width = 1154;
},
{
anchors = (
{
name = bottom;
position = "{408, 0}";
},
{
name = ogonek;
position = "{809, 0}";
},
{
name = top;
position = "{722, 1475}";
},
{
name = topleft;
position = "{318, 1475}";
}
);
layerId = "BEF1FBB1-ACEC-4AC1-9895-C09886024D55";
paths = (
{
closed = 1;
nodes = (
"806 0 LINE",
"838 150 LINE",
"444 150 LINE",
"505 73 LINE",
"787 1402 LINE",
"694 1325 LINE",
"1088 1325 LINE",
"1120 1475 LINE",
"315 1475 LINE",
"283 1325 LINE",
"677 1325 LINE",
"616 1402 LINE",
"334 73 LINE",
"427 150 LINE",
"33 150 LINE",
"1 0 LINE"
);
}
);
width = 1041;
}
);
leftKerningGroup = H;
rightKerningGroup = H;
},
{
glyphname = J;
lastChange = "2020-06-22 01:19:25 +0000";
layers = (
{
anchors = (
{
name = bottom;
position = "{504, 0}";
},
{
name = top;
position = "{1123, 1475}";
}
);
layerId = "3FDD6C00-F7FD-4E85-84B0-0136AF7D7529";
paths = (
{
closed = 1;
nodes = (
"921 -26 OFFCURVE",
"1047 219 OFFCURVE",
"1105 493 CURVE SMOOTH",
"1313 1475 LINE",
"910 1475 LINE",
"714 551 LINE SMOOTH",
"680 389 OFFCURVE",
"652 285 OFFCURVE",
"539 285 CURVE SMOOTH",
"451 285 OFFCURVE",
"424 332 OFFCURVE",
"424 402 CURVE SMOOTH",
"424 464 OFFCURVE",
"440 530 OFFCURVE",
"449 567 CURVE",
"48 567 LINE",
"30 495 OFFCURVE",
"11 417 OFFCURVE",
"11 334 CURVE SMOOTH",
"11 119 OFFCURVE",
"168 -26 OFFCURVE",
"494 -26 CURVE SMOOTH"
);
}
);
width = 1223;
},
{
anchors = (
{
name = bottom;
position = "{385, 0}";
},
{
name = top;
position = "{1041, 1475}";
}
);
layerId = "2503C51C-5A6C-4B2C-A968-78FEA18C2585";
paths = (
{
closed = 1;
nodes = (
"627 -17 OFFCURVE",
"779 171 OFFCURVE",
"841 463 CURVE SMOOTH",
"1056 1475 LINE",
"1026 1475 LINE",
"811 463 LINE SMOOTH",
"752 186 OFFCURVE",
"606 11 OFFCURVE",
"380 11 CURVE SMOOTH",
"200 11 OFFCURVE",
"117 121 OFFCURVE",
"117 294 CURVE SMOOTH",
"117 356 OFFCURVE",
"127 417 OFFCURVE",
"144 494 CURVE",
"115 494 LINE",
"101 436 OFFCURVE",
"87 352 OFFCURVE",
"87 290 CURVE SMOOTH",
"87 101 OFFCURVE",
"181 -17 OFFCURVE",
"378 -17 CURVE SMOOTH"
);
}
);
width = 1030;
},
{
anchors = (
{
name = bottom;
position = "{418, 0}";
},
{
name = top;
position = "{1062, 1475}";
}
);
layerId = "BEF1FBB1-ACEC-4AC1-9895-C09886024D55";
paths = (
{
closed = 1;
nodes = (
"728 -20 OFFCURVE",
"872 189 OFFCURVE",
"932 474 CURVE SMOOTH",
"1143 1475 LINE",
"973 1475 LINE",
"765 496 LINE SMOOTH",
"715 262 OFFCURVE",
"614 133 OFFCURVE",
"430 133 CURVE SMOOTH",
"285 133 OFFCURVE",
"223 200 OFFCURVE",
"223 335 CURVE SMOOTH",
"223 397 OFFCURVE",
"235 459 OFFCURVE",
"249 521 CURVE",
"81 521 LINE",
"65 458 OFFCURVE",
"49 376 OFFCURVE",
"49 307 CURVE SMOOTH",
"49 108 OFFCURVE",
"167 -20 OFFCURVE",
"412 -20 CURVE SMOOTH"
);
}
);
width = 1085;
}
);
leftKerningGroup = J;
note = J;
rightKerningGroup = H;
rightMetricsKey = H;
unicode = 004A;
},
{
glyphname = K;
lastChange = "2020-06-22 01:19:25 +0000";
layers = (
{
anchors = (
{
name = bottom;
position = "{619, 0}";
},
{
name = top;
position = "{953, 1475}";
}
);
layerId = "3FDD6C00-F7FD-4E85-84B0-0136AF7D7529";
paths = (
{
closed = 1;
nodes = (
"1549 1475 LINE",
"1117 1475 LINE",
"463 769 LINE",
"557 739 LINE",
"715 1475 LINE",
"311 1475 LINE",
"-1 0 LINE",
"402 0 LINE",
"519 555 LINE",
"443 304 LINE",
"784 671 LINE",
"637 695 LINE",
"832 0 LINE",
"1253 0 LINE",
"886 1003 LINE",
"821 695 LINE"
);
}
);
width = 1420;
},
{
anchors = (
{
name = bottom;
position = "{418, 0}";
},
{
name = top;
position = "{772, 1475}";
}
);
layerId = "2503C51C-5A6C-4B2C-A968-78FEA18C2585";
paths = (
{
closed = 1;
nodes = (
"1084 1475 LINE",
"1047 1475 LINE",
"211 621 LINE",
"226 619 LINE",
"408 1475 LINE",
"376 1475 LINE",
"64 0 LINE",
"95 0 LINE",
"222 601 LINE",
"209 575 LINE",
"405 774 LINE",
"391 776 LINE",
"782 0 LINE",
"818 0 LINE",
"414 804 LINE",
"412 778 LINE"
);
}
);
width = 1036;
},
{
anchors = (
{
name = bottom;
position = "{485, 0}";
},
{
name = top;
position = "{832, 1475}";
}
);
layerId = "BEF1FBB1-ACEC-4AC1-9895-C09886024D55";
paths = (
{
closed = 1;
nodes = (
"1268 1475 LINE",
"1068 1475 LINE",
"301 700 LINE",
"340 664 LINE",
"513 1475 LINE",
"342 1475 LINE",
"28 0 LINE",
"199 0 LINE",
"323 584 LINE",
"282 473 LINE",
"537 735 LINE",
"462 746 LINE",
"807 0 LINE",
"990 0 LINE",
"587 879 LINE",
"555 747 LINE"
);
}
);
width = 1162;
}
);
leftKerningGroup = H;
leftMetricsKey = H;
note = K;
rightKerningGroup = K;
unicode = 004B;
},
{
glyphname = L;
lastChange = "2020-06-22 01:19:25 +0000";
layers = (
{
anchors = (
{
name = bottom;
position = "{479, 0}";
},
{
name = center;
position = "{350, 738}";
},
{
name = top;
position = "{505, 1475}";
},
{
name = topright;
position = "{796, 974}";
}
);
layerId = "3FDD6C00-F7FD-4E85-84B0-0136AF7D7529";
paths = (
{
closed = 1;
nodes = (
"927 0 LINE",
"995 321 LINE",
"287 321 LINE",
"427 119 LINE",
"715 1475 LINE",
"311 1475 LINE",
"-3 0 LINE"
);
}
);
width = 1105;
},
{
anchors = (
{
name = bottom;
position = "{417, 0}";
},
{
name = center;
position = "{240, 738}";
},
{
name = top;
position = "{406, 1475}";
},
{
name = topright;
position = "{671, 974}";
}
);
layerId = "2503C51C-5A6C-4B2C-A968-78FEA18C2585";
paths = (
{
closed = 1;
nodes = (
"709 0 LINE",
"716 28 LINE",
"84 28 LINE",
"95 14 LINE",
"406 1475 LINE",
"376 1475 LINE",
"63 0 LINE"
);
}
);
width = 936;
},
{
anchors = (
{
name = bottom;
position = "{430, 0}";
},
{
name = center;
position = "{271, 738}";
},
{
name = top;
position = "{433, 1475}";
},
{
name = topright;
position = "{725, 974}";
}
);
layerId = "BEF1FBB1-ACEC-4AC1-9895-C09886024D55";
paths = (
{
closed = 1;
nodes = (
"781 0 LINE",
"813 150 LINE",
"154 150 LINE",
"211 53 LINE",
"513 1475 LINE",
"342 1475 LINE",
"28 0 LINE"
);
}
);
width = 980;
}
);
leftKerningGroup = H;
leftMetricsKey = H;
note = L;
rightKerningGroup = L;
unicode = 004C;
},
{
glyphname = Lslash;
lastChange = "2020-06-22 01:19:25 +0000";
layers = (
{
components = (
{
name = L;
transform = "{1, 0, 0, 1, 169, 0}";
}
);
layerId = "3FDD6C00-F7FD-4E85-84B0-0136AF7D7529";
paths = (
{
closed = 1;
nodes = (
"965 1045 LINE",
"0 643 LINE",
"83 365 LINE",
"1045 767 LINE"
);
}
);
width = 1274;
},
{
components = (
{
name = L;
}
);
layerId = "2503C51C-5A6C-4B2C-A968-78FEA18C2585";
paths = (
{
closed = 1;
nodes = (
"544 911 LINE",
"-5 437 LINE",
"13 417 LINE",
"562 892 LINE"
);
}
);
width = 936;
},
{
components = (
{
alignment = -1;
name = L;
transform = "{1, 0, 0, 1, 63, 0}";
}
);
layerId = "BEF1FBB1-ACEC-4AC1-9895-C09886024D55";
paths = (
{
closed = 1;
nodes = (
"693 961 LINE",
"-13 514 LINE",
"30 398 LINE",
"734 845 LINE"
);
}
);
width = 1043;
}
);
leftKerningGroup = H;
rightKerningGroup = L;
rightMetricsKey = L;
unicode = 0141;
},
{
glyphname = M;
lastChange = "2020-06-22 01:19:25 +0000";
layers = (
{
anchors = (
{
name = bottom;
position = "{903, 0}";
},
{
name = top;
position = "{1190, 1475}";
}
);
layerId = "3FDD6C00-F7FD-4E85-84B0-0136AF7D7529";
paths = (
{
closed = 1;
nodes = (
"882 154 LINE",
"923 154 LINE",
"992 1475 LINE",
"321 1475 LINE",
"7 0 LINE",
"391 0 LINE",
"660 1263 LINE",
"652 1259 LINE",
"620 0 LINE",
"1134 0 LINE",
"1630 1256 LINE",
"1624 1260 LINE",
"1356 0 LINE",
"1739 0 LINE",
"2053 1475 LINE",
"1366 1475 LINE"
);
}
);
width = 1972;
},
{
anchors = (
{
name = bottom;
position = "{650, 0}";
},
{
name = top;
position = "{901, 1475}";
}
);
layerId = "2503C51C-5A6C-4B2C-A968-78FEA18C2585";
paths = (
{
closed = 1;
nodes = (
"607 11 LINE",
"615 11 LINE",
"450 1475 LINE",
"403 1475 LINE",
"89 0 LINE",
"120 0 LINE",
"425 1433 LINE",
"421 1433 LINE",
"585 0 LINE",
"637 0 LINE",
"1412 1431 LINE",
"1408 1433 LINE",
"1103 0 LINE",
"1134 0 LINE",
"1448 1475 LINE",
"1399 1475 LINE"
);
}
);
width = 1451;
},
{
anchors = (
{
name = bottom;
position = "{736, 0}";
},
{
name = top;
position = "{1008, 1475}";
}
);
layerId = "BEF1FBB1-ACEC-4AC1-9895-C09886024D55";
paths = (
{
closed = 1;
nodes = (
"722 137 LINE",
"724 137 LINE",
"647 1475 LINE",
"358 1475 LINE",
"44 0 LINE",
"206 0 LINE",
"491 1340 LINE",
"486 1338 LINE",
"579 0 LINE",
"823 0 LINE",
"1483 1337 LINE",
"1479 1339 LINE",
"1194 0 LINE",
"1356 0 LINE",
"1670 1475 LINE",
"1371 1475 LINE"
);
}
);
width = 1628;
}
);
leftKerningGroup = H;
note = M;
rightKerningGroup = H;
unicode = 004D;
},
{
glyphname = N;
lastChange = "2020-06-22 01:19:25 +0000";
layers = (
{
anchors = (
{
name = bottom;
position = "{696, 0}";
},
{
name = top;
position = "{1010, 1475}";
}
);
layerId = "3FDD6C00-F7FD-4E85-84B0-0136AF7D7529";
paths = (
{
closed = 1;
nodes = (
"680 1365 LINE",
"647 1349 LINE",
"674 0 LINE",
"1335 0 LINE",
"1649 1475 LINE",
"1256 1475 LINE",
"965 105 LINE",
"993 121 LINE",
"967 1475 LINE",
"311 1475 LINE",
"-3 0 LINE",
"390 0 LINE"
);
}
);
width = 1558;
},
{
anchors = (
{
name = bottom;
position = "{519, 0}";
},
{
name = top;
position = "{833, 1475}";
}
);
layerId = "2503C51C-5A6C-4B2C-A968-78FEA18C2585";
paths = (
{
closed = 1;
nodes = (
"402 1456 LINE",
"400 1454 LINE",
"901 0 LINE",
"951 0 LINE",
"1265 1475 LINE",
"1235 1475 LINE",
"925 17 LINE",
"927 20 LINE",
"424 1475 LINE",
"376 1475 LINE",
"62 0 LINE",
"92 0 LINE"
);
}
);
width = 1239;
},
{
anchors = (
{
name = bottom;
position = "{576, 0}";
},
{
name = top;
position = "{890, 1475}";
}
);
layerId = "BEF1FBB1-ACEC-4AC1-9895-C09886024D55";
paths = (
{
closed = 1;
nodes = (
"488 1382 LINE",
"472 1375 LINE",
"803 0 LINE",
"1086 0 LINE",
"1400 1475 LINE",
"1234 1475 LINE",
"939 90 LINE",
"954 98 LINE",
"621 1475 LINE",
"342 1475 LINE",
"28 0 LINE",
"194 0 LINE"
);
}
);
width = 1340;
}
);
leftKerningGroup = H;
leftMetricsKey = H;
note = N;
rightKerningGroup = H;
rightMetricsKey = H;
unicode = 004E;
},
{
glyphname = Eng;
lastChange = "2020-06-22 01:19:25 +0000";
layers = (
{
layerId = "3FDD6C00-F7FD-4E85-84B0-0136AF7D7529";
paths = (
{
closed = 1;
nodes = (
"1044 -456 OFFCURVE",
"1259 -363 OFFCURVE",
"1332 -19 CURVE SMOOTH",
"1649 1475 LINE",
"1256 1475 LINE",
"954 56 LINE",
"993 52 LINE",
"987 1475 LINE",
"311 1475 LINE",
"-3 0 LINE",
"390 0 LINE",
"686 1391 LINE",
"647 1395 LINE",
"654 0 LINE",
"937 0 LINE",
"931 -28 LINE SMOOTH",
"906 -146 OFFCURVE",
"782 -169 OFFCURVE",
"665 -169 CURVE SMOOTH",
"626 -169 OFFCURVE",
"567 -162 OFFCURVE",
"550 -156 CURVE",
"488 -446 LINE",
"503 -449 OFFCURVE",
"567 -456 OFFCURVE",
"611 -456 CURVE SMOOTH"
);
}
);
width = 1559;
},
{
layerId = "2503C51C-5A6C-4B2C-A968-78FEA18C2585";
paths = (
{
closed = 1;
nodes = (
"822 -457 OFFCURVE",
"897 -255 OFFCURVE",
"931 -96 CURVE SMOOTH",
"1265 1475 LINE",
"1235 1475 LINE",
"923 8 LINE",
"931 9 LINE",
"424 1475 LINE",
"376 1475 LINE",
"62 0 LINE",
"92 0 LINE",
"404 1465 LINE",
"396 1464 LINE",
"901 0 LINE",
"921 0 LINE",
"900 -96 LINE SMOOTH",
"872 -224 OFFCURVE",
"806 -429 OFFCURVE",
"574 -429 CURVE SMOOTH",
"533 -429 OFFCURVE",
"496 -422 OFFCURVE",
"479 -416 CURVE",
"473 -444 LINE",
"488 -450 OFFCURVE",
"527 -457 OFFCURVE",
"572 -457 CURVE SMOOTH"
);
}
);
width = 1239;
},
{
layerId = "BEF1FBB1-ACEC-4AC1-9895-C09886024D55";
paths = (
{
closed = 1;
nodes = (
"891 -457 OFFCURVE",
"1024 -296 OFFCURVE",
"1073 -67 CURVE SMOOTH",
"1400 1475 LINE",
"1234 1475 LINE",
"944 109 LINE",
"967 113 LINE",
"611 1475 LINE",
"342 1475 LINE",
"29 0 LINE",
"195 0 LINE",
"483 1358 LINE",
"476 1354 LINE",
"830 0 LINE",
"918 0 LINE",
"903 -71 LINE SMOOTH",
"877 -195 OFFCURVE",
"788 -332 OFFCURVE",
"599 -332 CURVE SMOOTH",
"559 -332 OFFCURVE",
"514 -325 OFFCURVE",
"497 -319 CURVE",
"470 -445 LINE",
"484 -450 OFFCURVE",
"527 -457 OFFCURVE",
"572 -457 CURVE SMOOTH"
);
}
);
width = 1341;
}
);
leftKerningGroup = H;
leftMetricsKey = H;
rightKerningGroup = H;
rightMetricsKey = H;
unicode = 014A;
},
{
glyphname = Nhookleft;
lastChange = "2020-06-22 01:19:25 +0000";
layers = (
{
anchors = (
{
name = bottom;
position = "{519, 0}";
},
{
name = top;
position = "{833, 1475}";
}
);
layerId = "2503C51C-5A6C-4B2C-A968-78FEA18C2585";
paths = (
{
closed = 1;
nodes = (
"-44 -437 OFFCURVE",
"35 -268 OFFCURVE",
"71 -98 CURVE SMOOTH",
"404 1465 LINE",
"396 1464 LINE",
"901 0 LINE",
"951 0 LINE",
"1265 1475 LINE",
"1235 1475 LINE",
"923 8 LINE",
"931 9 LINE",
"424 1475 LINE",
"376 1475 LINE",
"41 -96 LINE SMOOTH",
"13 -225 OFFCURVE",
"-56 -409 OFFCURVE",
"-281 -409 CURVE",
"-285 -437 LINE"
);
}
);
width = 1239;
},
{
anchors = (
{
name = bottom;
position = "{696, 0}";
},
{
name = top;
position = "{1010, 1475}";
}
);
layerId = "3FDD6C00-F7FD-4E85-84B0-0136AF7D7529";
paths = (
{
closed = 1;
nodes = (
"206 -467 OFFCURVE",
"326 -301 OFFCURVE",
"383 -33 CURVE SMOOTH",
"686 1391 LINE",
"647 1395 LINE",
"654 0 LINE",
"1335 0 LINE",
"1649 1475 LINE",
"1256 1475 LINE",
"954 56 LINE",
"993 52 LINE",
"987 1475 LINE",
"311 1475 LINE",
"-4 -5 LINE SMOOTH",
"-27 -120 OFFCURVE",
"-89 -187 OFFCURVE",
"-219 -187 CURVE",
"-275 -467 LINE"
);
}
);
width = 1558;
},
{
anchors = (
{
name = bottom;
position = "{576, 0}";
},
{
name = top;
position = "{890, 1475}";
}
);
layerId = "BEF1FBB1-ACEC-4AC1-9895-C09886024D55";
paths = (
{
closed = 1;
nodes = (
"59 -461 OFFCURVE",
"142 -247 OFFCURVE",
"181 -66 CURVE SMOOTH",
"485 1368 LINE",
"473 1364 LINE",
"805 0 LINE",
"1087 0 LINE",
"1400 1475 LINE",
"1234 1475 LINE",
"942 99 LINE",
"955 103 LINE",
"621 1475 LINE",
"342 1475 LINE",
"15 -66 LINE SMOOTH",
"-12 -193 OFFCURVE",
"-85 -338 OFFCURVE",
"-267 -340 CURVE",
"-293 -465 LINE"
);
}
);
width = 1341;
}
);
leftKerningGroup = H;
rightKerningGroup = H;
rightMetricsKey = N;
unicode = 019D;
},
{
glyphname = O;
lastChange = "2020-06-22 01:19:25 +0000";
layers = (
{
anchors = (
{
name = bottom;
position = "{691, 0}";
},
{
name = center;
position = "{823, 738}";
},
{
name = ogonek;
position = "{959, 47}";
},
{
name = top;
position = "{964, 1475}";
},
{
name = topleft;
position = "{278, 1475}";
},
{
name = topright;
position = "{1310, 1392}";
}
);
layerId = "3FDD6C00-F7FD-4E85-84B0-0136AF7D7529";
paths = (
{
closed = 1;
nodes = (
"1209 -26 OFFCURVE",
"1555 380 OFFCURVE",
"1555 897 CURVE SMOOTH",
"1555 1294 OFFCURVE",
"1297 1500 OFFCURVE",
"962 1500 CURVE SMOOTH",
"448 1500 OFFCURVE",
"106 1103 OFFCURVE",
"106 584 CURVE SMOOTH",
"106 184 OFFCURVE",
"367 -26 OFFCURVE",
"698 -26 CURVE SMOOTH"
);
},
{
closed = 1;
nodes = (
"611 286 OFFCURVE",
"516 358 OFFCURVE",
"516 585 CURVE SMOOTH",
"516 880 OFFCURVE",
"634 1188 OFFCURVE",
"926 1188 CURVE SMOOTH",
"1047 1188 OFFCURVE",
"1146 1121 OFFCURVE",
"1146 901 CURVE SMOOTH",
"1146 614 OFFCURVE",
"1023 286 OFFCURVE",
"734 286 CURVE SMOOTH"
);
}
);
width = 1572;
},
{
anchors = (
{
name = bottom;
position = "{554, 0}";
},
{
name = center;
position = "{706, 738}";
},
{
name = ogonek;
position = "{757, 37}";
},
{
name = top;
position = "{864, 1475}";
},
{
name = topleft;
position = "{287, 1475}";
},
{
name = topright;
position = "{1164, 1338}";
}
);
layerId = "2503C51C-5A6C-4B2C-A968-78FEA18C2585";
paths = (
{
closed = 1;
nodes = (
"996 -17 OFFCURVE",
"1276 483 OFFCURVE",
"1276 977 CURVE SMOOTH",
"1276 1294 OFFCURVE",
"1123 1488 OFFCURVE",
"862 1488 CURVE SMOOTH",
"419 1488 OFFCURVE",
"139 992 OFFCURVE",
"139 499 CURVE SMOOTH",
"139 183 OFFCURVE",
"291 -17 OFFCURVE",
"554 -17 CURVE SMOOTH"
);
},
{
closed = 1;
nodes = (
"310 11 OFFCURVE",
"171 209 OFFCURVE",
"171 505 CURVE SMOOTH",
"171 971 OFFCURVE",
"442 1460 OFFCURVE",
"862 1460 CURVE SMOOTH",
"1106 1460 OFFCURVE",
"1245 1268 OFFCURVE",
"1245 972 CURVE SMOOTH",
"1245 505 OFFCURVE",
"974 11 OFFCURVE",
"554 11 CURVE SMOOTH"
);
}
);
width = 1328;
},
{
anchors = (
{
name = bottom;
position = "{579, 0}";
},
{
name = center;
position = "{733, 738}";
},
{
name = ogonek;
position = "{816, 41}";
},
{
name = top;
position = "{889, 1475}";
},
{
name = topleft;
position = "{267, 1475}";
},
{
name = topright;
position = "{1202, 1358}";
}
);
layerId = "BEF1FBB1-ACEC-4AC1-9895-C09886024D55";
paths = (
{
closed = 1;
nodes = (
"1052 -20 OFFCURVE",
"1363 446 OFFCURVE",
"1363 942 CURVE SMOOTH",
"1363 1296 OFFCURVE",
"1175 1493 OFFCURVE",
"883 1493 CURVE SMOOTH",
"416 1493 OFFCURVE",
"106 1033 OFFCURVE",
"106 536 CURVE SMOOTH",
"106 181 OFFCURVE",
"295 -20 OFFCURVE",
"586 -20 CURVE SMOOTH"
);
},
{
closed = 1;
nodes = (
"407 134 OFFCURVE",
"276 266 OFFCURVE",
"276 535 CURVE SMOOTH",
"276 923 OFFCURVE",
"489 1338 OFFCURVE",
"861 1338 CURVE SMOOTH",
"1060 1338 OFFCURVE",
"1192 1209 OFFCURVE",
"1192 941 CURVE SMOOTH",
"1192 553 OFFCURVE",
"977 134 OFFCURVE",
"605 134 CURVE SMOOTH"
);
}
);
width = 1386;
}
);
leftKerningGroup = O;
note = O;
rightKerningGroup = O;
unicode = 004F;
},
{
glyphname = Ohorn;
lastChange = "2020-06-22 01:19:25 +0000";
layers = (
{
anchors = (
{
name = bottom;
position = "{551, 0}";
},
{
name = center;
position = "{706, 738}";
},
{
name = ogonek;
position = "{757, 37}";
},
{
name = top;
position = "{865, 1475}";
},
{
name = topleft;
position = "{287, 1475}";
},
{
name = topright;
position = "{1164, 1338}";
}
);
layerId = "2503C51C-5A6C-4B2C-A968-78FEA18C2585";
paths = (
{
closed = 1;
nodes = (
"1158 1310 LINE",
"1311 1310 OFFCURVE",
"1409 1406 OFFCURVE",
"1429 1591 CURVE",
"1397 1591 LINE",
"1379 1420 OFFCURVE",
"1288 1338 OFFCURVE",
"1164 1338 CURVE"
);
},
{
closed = 1;
nodes = (
"996 -17 OFFCURVE",
"1276 483 OFFCURVE",
"1276 977 CURVE SMOOTH",
"1276 1294 OFFCURVE",
"1123 1488 OFFCURVE",
"862 1488 CURVE SMOOTH",
"419 1488 OFFCURVE",
"139 992 OFFCURVE",
"139 499 CURVE SMOOTH",
"139 183 OFFCURVE",
"291 -17 OFFCURVE",
"554 -17 CURVE SMOOTH"
);
},
{
closed = 1;
nodes = (
"310 11 OFFCURVE",
"171 209 OFFCURVE",
"171 505 CURVE SMOOTH",
"171 971 OFFCURVE",
"442 1460 OFFCURVE",
"862 1460 CURVE SMOOTH",
"1106 1460 OFFCURVE",
"1245 1268 OFFCURVE",
"1245 972 CURVE SMOOTH",
"1245 505 OFFCURVE",
"974 11 OFFCURVE",
"554 11 CURVE SMOOTH"
);
}
);
width = 1328;
},
{
anchors = (
{
name = bottom;
position = "{673, 0}";
},
{
name = center;
position = "{823, 738}";
},
{
name = ogonek;
position = "{959, 47}";
},
{
name = top;
position = "{987, 1475}";
},
{
name = topleft;
position = "{278, 1475}";
},
{
name = topright;
position = "{1310, 1392}";
}
);
layerId = "3FDD6C00-F7FD-4E85-84B0-0136AF7D7529";
paths = (
{
closed = 1;
nodes = (
"1270 1202 LINE",
"1537 1202 OFFCURVE",
"1685 1339 OFFCURVE",
"1718 1653 CURVE",
"1474 1653 LINE",
"1456 1482 OFFCURVE",
"1412 1392 OFFCURVE",
"1310 1392 CURVE"
);
},
{
closed = 1;
nodes = (
"1209 -26 OFFCURVE",
"1555 380 OFFCURVE",
"1555 897 CURVE SMOOTH",
"1555 1294 OFFCURVE",
"1297 1500 OFFCURVE",
"962 1500 CURVE SMOOTH",
"448 1500 OFFCURVE",
"106 1103 OFFCURVE",
"106 584 CURVE SMOOTH",
"106 184 OFFCURVE",
"367 -26 OFFCURVE",
"698 -26 CURVE SMOOTH"
);
},
{
closed = 1;
nodes = (
"611 286 OFFCURVE",
"516 358 OFFCURVE",
"516 585 CURVE SMOOTH",
"516 880 OFFCURVE",
"634 1188 OFFCURVE",
"926 1188 CURVE SMOOTH",
"1047 1188 OFFCURVE",
"1146 1121 OFFCURVE",
"1146 901 CURVE SMOOTH",
"1146 614 OFFCURVE",
"1023 286 OFFCURVE",
"734 286 CURVE SMOOTH"
);
}
);
width = 1572;
},
{
anchors = (
{
name = bottom;
position = "{580, 0}";
},
{
name = center;
position = "{733, 738}";
},
{
name = ogonek;
position = "{816, 41}";
},
{
name = top;
position = "{894, 1475}";
},
{
name = topleft;
position = "{267, 1475}";
},
{
name = topright;
position = "{1202, 1358}";
}
);
layerId = "BEF1FBB1-ACEC-4AC1-9895-C09886024D55";
paths = (
{
closed = 1;
nodes = (
"1183 1269 LINE",
"1379 1269 OFFCURVE",
"1496 1381 OFFCURVE",
"1521 1614 CURVE",
"1409 1614 LINE",
"1391 1443 OFFCURVE",
"1318 1358 OFFCURVE",
"1202 1358 CURVE"
);
},
{
closed = 1;
nodes = (
"1052 -20 OFFCURVE",
"1363 446 OFFCURVE",
"1363 942 CURVE SMOOTH",
"1363 1296 OFFCURVE",
"1175 1493 OFFCURVE",
"883 1493 CURVE SMOOTH",
"416 1493 OFFCURVE",
"106 1033 OFFCURVE",
"106 536 CURVE SMOOTH",
"106 181 OFFCURVE",
"295 -20 OFFCURVE",
"586 -20 CURVE SMOOTH"
);
},
{
closed = 1;
nodes = (
"407 134 OFFCURVE",
"276 266 OFFCURVE",
"276 535 CURVE SMOOTH",
"276 923 OFFCURVE",
"489 1338 OFFCURVE",
"861 1338 CURVE SMOOTH",
"1060 1338 OFFCURVE",
"1192 1209 OFFCURVE",
"1192 941 CURVE SMOOTH",
"1192 553 OFFCURVE",
"977 134 OFFCURVE",
"605 134 CURVE SMOOTH"
);
}
);
width = 1366;
}
);
leftKerningGroup = O;
rightKerningGroup = Ohorn;
unicode = 01A0;
},
{
glyphname = Oogonek;
lastChange = "2020-06-22 01:19:25 +0000";
layers = (
{
components = (
{
name = O;
}
);
layerId = "2503C51C-5A6C-4B2C-A968-78FEA18C2585";
paths = (
{
closed = 1;
nodes = (
"716 -324 OFFCURVE",
"678 -328 OFFCURVE",
"650 -328 CURVE SMOOTH",
"588 -328 OFFCURVE",
"553 -299 OFFCURVE",
"553 -242 CURVE SMOOTH",
"553 -146 OFFCURVE",
"686 -37 OFFCURVE",
"777 37 CURVE",
"739 37 LINE",
"636 -35 OFFCURVE",
"517 -139 OFFCURVE",
"517 -248 CURVE SMOOTH",
"517 -326 OFFCURVE",
"571 -359 OFFCURVE",
"643 -359 CURVE SMOOTH",
"674 -359 OFFCURVE",
"712 -355 OFFCURVE",
"736 -350 CURVE",
"739 -319 LINE"
);
}
);
width = 1328;
},
{
components = (
{
name = O;
}
);
layerId = "3FDD6C00-F7FD-4E85-84B0-0136AF7D7529";
paths = (
{
closed = 1;
nodes = (
"959 -226 OFFCURVE",
"932 -229 OFFCURVE",
"908 -229 CURVE SMOOTH",
"860 -229 OFFCURVE",
"821 -220 OFFCURVE",
"821 -175 CURVE SMOOTH",
"821 -114 OFFCURVE",
"955 7 OFFCURVE",
"1009 47 CURVE",
"821 47 LINE",
"737 -5 OFFCURVE",
"583 -127 OFFCURVE",
"583 -261 CURVE SMOOTH",
"583 -377 OFFCURVE",
"723 -415 OFFCURVE",
"867 -415 CURVE SMOOTH",
"901 -415 OFFCURVE",
"933 -413 OFFCURVE",
"961 -410 CURVE",
"981 -223 LINE"
);
}
);
width = 1572;
},
{
components = (
{
name = O;
}
);
layerId = "BEF1FBB1-ACEC-4AC1-9895-C09886024D55";
paths = (
{
closed = 1;
nodes = (
"787 -298 OFFCURVE",
"754 -302 OFFCURVE",
"728 -302 CURVE SMOOTH",
"667 -302 OFFCURVE",
"634 -281 OFFCURVE",
"634 -228 CURVE SMOOTH",
"634 -147 OFFCURVE",
"776 -23 OFFCURVE",
"856 41 CURVE",
"748 41 LINE",
"658 -22 OFFCURVE",
"530 -132 OFFCURVE",
"530 -240 CURVE SMOOTH",
"530 -338 OFFCURVE",
"601 -391 OFFCURVE",
"707 -391 CURVE SMOOTH",
"739 -391 OFFCURVE",
"775 -388 OFFCURVE",
"801 -384 CURVE",
"810 -294 LINE"
);
}
);
width = 1386;
}
);
leftKerningGroup = O;
rightKerningGroup = O;
unicode = 01EA;
},
{
glyphname = Oslash;
lastChange = "2020-06-22 01:19:25 +0000";
layers = (
{
anchors = (
{
name = bottom;
position = "{673, 0}";
},
{
name = top;
position = "{987, 1475}";
}
);
components = (
{
name = O;
}
);
layerId = "3FDD6C00-F7FD-4E85-84B0-0136AF7D7529";
paths = (
{
closed = 1;
nodes = (
"1353 1601 LINE",
"30 -8 LINE",
"209 -125 LINE",
"1534 1484 LINE"
);
}
);
width = 1572;
},
{
anchors = (
{
name = bottom;
position = "{551, 0}";
},
{
name = top;
position = "{865, 1475}";
}
);
components = (
{
name = O;
}
);
layerId = "2503C51C-5A6C-4B2C-A968-78FEA18C2585";
paths = (
{
closed = 1;
nodes = (
"1276 1531 LINE",
"26 -34 LINE",
"50 -55 LINE",
"1302 1511 LINE"
);
}
);
width = 1328;
},
{
anchors = (
{
name = bottom;
position = "{580, 0}";
},
{
name = top;
position = "{894, 1475}";
}
);
components = (
{
name = O;
}
);
layerId = "BEF1FBB1-ACEC-4AC1-9895-C09886024D55";
paths = (
{
closed = 1;
nodes = (
"1285 1557 LINE",
"7 -25 LINE",
"90 -82 LINE",
"1369 1501 LINE"
);
}
);
width = 1386;
}
);
leftKerningGroup = O;
rightKerningGroup = O;
unicode = 00D8;
},
{
glyphname = OE;
lastChange = "2020-06-22 01:19:25 +0000";
layers = (
{
anchors = (
{
name = bottom;
position = "{968, 0}";
},
{
name = top;
position = "{1282, 1475}";
}
);
layerId = "3FDD6C00-F7FD-4E85-84B0-0136AF7D7529";
paths = (
{
closed = 1;
nodes = (
"776 -26 OFFCURVE",
"890 -2 OFFCURVE",
"951 35 CURVE",
"942 0 LINE",
"1899 0 LINE",
"1963 300 LINE",
"1210 300 LINE",
"1355 122 LINE",
"1474 692 LINE",
"1351 590 LINE",
"1914 590 LINE",
"1977 890 LINE",
"1413 890 LINE",
"1496 792 LINE",
"1616 1353 LINE",
"1396 1175 LINE",
"2149 1175 LINE",
"2213 1475 LINE",
"1256 1475 LINE",
"1245 1418 LINE",
"1179 1466 OFFCURVE",
"1057 1500 OFFCURVE",
"941 1500 CURVE SMOOTH",
"431 1500 OFFCURVE",
"106 1095 OFFCURVE",
"106 578 CURVE SMOOTH",
"106 191 OFFCURVE",
"344 -26 OFFCURVE",
"681 -26 CURVE SMOOTH"
);
},
{
closed = 1;
nodes = (
"596 286 OFFCURVE",
"514 354 OFFCURVE",
"514 565 CURVE SMOOTH",
"514 854 OFFCURVE",
"619 1188 OFFCURVE",
"907 1188 CURVE SMOOTH",
"1026 1188 OFFCURVE",
"1108 1123 OFFCURVE",
"1108 913 CURVE SMOOTH",
"1108 626 OFFCURVE",
"1000 286 OFFCURVE",
"715 286 CURVE SMOOTH"
);
}
);
width = 2122;
},
{
anchors = (
{
name = bottom;
position = "{893, 0}";
},
{
name = top;
position = "{1207, 1475}";
}
);
layerId = "2503C51C-5A6C-4B2C-A968-78FEA18C2585";
paths = (
{
closed = 1;
nodes = (
"802 -17 OFFCURVE",
"1004 171 OFFCURVE",
"1120 429 CURVE",
"1029 0 LINE",
"1744 0 LINE",
"1750 28 LINE",
"1052 28 LINE",
"1063 14 LINE",
"1218 740 LINE",
"1201 726 LINE",
"1788 726 LINE",
"1794 754 LINE",
"1207 754 LINE",
"1218 740 LINE",
"1371 1461 LINE",
"1354 1447 LINE",
"2052 1447 LINE",
"2058 1475 LINE",
"1343 1475 LINE",
"1236 972 LINE",
"1236 1312 OFFCURVE",
"1102 1488 OFFCURVE",
"842 1488 CURVE SMOOTH",
"399 1488 OFFCURVE",
"139 982 OFFCURVE",
"139 489 CURVE SMOOTH",
"139 173 OFFCURVE",
"271 -17 OFFCURVE",
"534 -17 CURVE SMOOTH"
);
},
{
closed = 1;
nodes = (
"290 11 OFFCURVE",
"171 199 OFFCURVE",
"171 495 CURVE SMOOTH",
"171 961 OFFCURVE",
"422 1460 OFFCURVE",
"842 1460 CURVE SMOOTH",
"1086 1460 OFFCURVE",
"1205 1278 OFFCURVE",
"1205 982 CURVE SMOOTH",
"1205 515 OFFCURVE",
"954 11 OFFCURVE",
"534 11 CURVE SMOOTH"
);
}
);
width = 2032;
},
{
anchors = (
{
name = bottom;
position = "{904, 0}";
},
{
name = top;
position = "{1218, 1475}";
}
);
layerId = "BEF1FBB1-ACEC-4AC1-9895-C09886024D55";
paths = (
{
closed = 1;
nodes = (
"768 -20 OFFCURVE",
"940 67 OFFCURVE",
"1015 187 CURVE",
"976 0 LINE",
"1782 0 LINE",
"1814 150 LINE",
"1095 150 LINE",
"1152 53 LINE",
"1293 720 LINE",
"1237 665 LINE",
"1853 665 LINE",
"1885 815 LINE",
"1270 815 LINE",
"1302 761 LINE",
"1443 1422 LINE",
"1345 1325 LINE",
"2064 1325 LINE",
"2096 1475 LINE",
"1290 1475 LINE",
"1243 1246 LINE",
"1220 1378 OFFCURVE",
"1069 1493 OFFCURVE",
"855 1493 CURVE SMOOTH",
"387 1493 OFFCURVE",
"103 1007 OFFCURVE",
"103 508 CURVE SMOOTH",
"103 171 OFFCURVE",
"269 -20 OFFCURVE",
"553 -20 CURVE SMOOTH"
);
},
{
closed = 1;
nodes = (
"384 134 OFFCURVE",
"274 258 OFFCURVE",
"274 510 CURVE SMOOTH",
"274 904 OFFCURVE",
"465 1338 OFFCURVE",
"832 1338 CURVE SMOOTH",
"1028 1338 OFFCURVE",
"1149 1213 OFFCURVE",
"1149 953 CURVE SMOOTH",
"1149 561 OFFCURVE",
"946 134 OFFCURVE",
"576 134 CURVE SMOOTH"
);
}
);
width = 2036;
}
);
leftKerningGroup = O;
leftMetricsKey = O;
rightKerningGroup = E;
rightMetricsKey = E;
unicode = 0152;
},
{
glyphname = P;
lastChange = "2020-06-22 01:19:25 +0000";
layers = (
{
anchors = (
{
name = bottom;
position = "{535, 0}";
},
{
name = top;
position = "{849, 1475}";
}
);
layerId = "3FDD6C00-F7FD-4E85-84B0-0136AF7D7529";
paths = (
{
closed = 1;
nodes = (
"496 444 LINE",
"657 444 LINE SMOOTH",
"1015 444 OFFCURVE",
"1327 692 OFFCURVE",
"1327 1047 CURVE SMOOTH",
"1327 1281 OFFCURVE",
"1185 1475 OFFCURVE",
"876 1475 CURVE SMOOTH",
"311 1475 LINE",
"-3 0 LINE",
"401 0 LINE"
);
},
{
closed = 1;
nodes = (
"689 1353 LINE",
"469 1175 LINE",
"771 1175 LINE SMOOTH",
"863 1175 OFFCURVE",
"919 1116 OFFCURVE",
"919 1010 CURVE SMOOTH",
"919 859 OFFCURVE",
"827 743 OFFCURVE",
"679 743 CURVE SMOOTH",
"377 743 LINE",
"521 565 LINE"
);
}
);
width = 1302;
},
{
anchors = (
{
name = bottom;
position = "{402, 0}";
},
{
name = top;
position = "{724, 1475}";
}
);
layerId = "2503C51C-5A6C-4B2C-A968-78FEA18C2585";
paths = (
{
closed = 1;
nodes = (
"214 574 LINE",
"510 574 LINE SMOOTH",
"850 574 OFFCURVE",
"1090 807 OFFCURVE",
"1090 1139 CURVE SMOOTH",
"1090 1321 OFFCURVE",
"991 1475 OFFCURVE",
"692 1475 CURVE SMOOTH",
"376 1475 LINE",
"62 0 LINE",
"92 0 LINE"
);
},
{
closed = 1;
nodes = (
"403 1461 LINE",
"386 1447 LINE",
"684 1447 LINE SMOOTH",
"969 1447 OFFCURVE",
"1060 1312 OFFCURVE",
"1060 1145 CURVE SMOOTH",
"1060 824 OFFCURVE",
"837 602 OFFCURVE",
"504 602 CURVE SMOOTH",
"206 602 LINE",
"217 588 LINE"
);
}
);
width = 1073;
},
{
anchors = (
{
name = bottom;
position = "{479, 0}";
},
{
name = top;
position = "{675, 1475}";
}
);
layerId = "BEF1FBB1-ACEC-4AC1-9895-C09886024D55";
paths = (
{
closed = 1;
nodes = (
"309 515 LINE",
"562 515 LINE SMOOTH",
"921 515 OFFCURVE",
"1170 738 OFFCURVE",
"1170 1089 CURVE SMOOTH",
"1170 1303 OFFCURVE",
"1047 1475 OFFCURVE",
"746 1475 CURVE SMOOTH",
"342 1475 LINE",
"28 0 LINE",
"199 0 LINE"
);
},
{
closed = 1;
nodes = (
"501 1422 LINE",
"404 1325 LINE",
"703 1325 LINE SMOOTH",
"913 1325 OFFCURVE",
"1000 1239 OFFCURVE",
"1000 1088 CURVE SMOOTH",
"1000 834 OFFCURVE",
"828 665 OFFCURVE",
"563 665 CURVE SMOOTH",
"264 665 LINE",
"322 578 LINE"
);
}
);
width = 1150;
}
);
leftKerningGroup = H;
leftMetricsKey = H;
note = P;
rightKerningGroup = P;
unicode = 0050;
},
{
glyphname = Thorn;
lastChange = "2020-06-22 01:19:25 +0000";
layers = (
{
layerId = "3FDD6C00-F7FD-4E85-84B0-0136AF7D7529";
paths = (
{
closed = 1;
nodes = (
"400 0 LINE",
"485 399 LINE",
"373 305 LINE",
"632 305 LINE SMOOTH",
"972 305 OFFCURVE",
"1229 480 OFFCURVE",
"1229 815 CURVE SMOOTH",
"1229 1041 OFFCURVE",
"1080 1153 OFFCURVE",
"813 1153 CURVE SMOOTH",
"559 1153 LINE",
"624 1052 LINE",
"714 1473 LINE",
"311 1473 LINE",
"-3 0 LINE"
);
},
{
closed = 1;
nodes = (
"604 954 LINE",
"492 852 LINE",
"707 852 LINE SMOOTH",
"783 852 OFFCURVE",
"823 818 OFFCURVE",
"823 752 CURVE SMOOTH",
"823 659 OFFCURVE",
"748 605 OFFCURVE",
"654 605 CURVE SMOOTH",
"443 605 LINE",
"508 507 LINE"
);
}
);
width = 1252;
},
{
layerId = "2503C51C-5A6C-4B2C-A968-78FEA18C2585";
paths = (
{
closed = 1;
nodes = (
"92 0 LINE",
"162 329 LINE",
"145 315 LINE",
"433 315 LINE SMOOTH",
"728 315 OFFCURVE",
"959 517 OFFCURVE",
"959 818 CURVE SMOOTH",
"959 1022 OFFCURVE",
"834 1143 OFFCURVE",
"599 1143 CURVE SMOOTH",
"321 1143 LINE",
"332 1129 LINE",
"406 1473 LINE",
"376 1473 LINE",
"62 0 LINE"
);
},
{
closed = 1;
nodes = (
"332 1129 LINE",
"315 1115 LINE",
"600 1115 LINE SMOOTH",
"811 1115 OFFCURVE",
"930 1005 OFFCURVE",
"930 820 CURVE SMOOTH",
"930 542 OFFCURVE",
"713 343 OFFCURVE",
"436 343 CURVE SMOOTH",
"151 343 LINE",
"162 329 LINE"
);
}
);
width = 1027;
},
{
layerId = "BEF1FBB1-ACEC-4AC1-9895-C09886024D55";
paths = (
{
closed = 1;
nodes = (
"198 0 LINE",
"274 355 LINE",
"221 311 LINE",
"498 311 LINE SMOOTH",
"810 311 OFFCURVE",
"1051 503 OFFCURVE",
"1051 817 CURVE SMOOTH",
"1051 1029 OFFCURVE",
"917 1147 OFFCURVE",
"670 1147 CURVE SMOOTH",
"401 1147 LINE",
"432 1100 LINE",
"512 1473 LINE",
"342 1473 LINE",
"28 0 LINE"
);
},
{
closed = 1;
nodes = (
"425 1063 LINE",
"372 996 LINE",
"631 996 LINE SMOOTH",
"791 996 OFFCURVE",
"881 935 OFFCURVE",
"881 795 CURVE SMOOTH",
"881 586 OFFCURVE",
"717 461 OFFCURVE",
"508 461 CURVE SMOOTH",
"251 461 LINE",
"282 396 LINE"
);
}
);
width = 1087;
}
);
leftKerningGroup = H;
leftMetricsKey = H;
note = Thorn;
rightKerningGroup = D;
rightMetricsKey = D;
unicode = 00DE;
},
{
glyphname = Q;
lastChange = "2020-06-22 01:19:25 +0000";
layers = (
{
anchors = (
{
name = bottom;
position = "{645, -25}";
},
{
name = top;
position = "{966, 1500}";
}
);
components = (
{
name = O;
}
);
layerId = "3FDD6C00-F7FD-4E85-84B0-0136AF7D7529";
paths = (
{
closed = 1;
nodes = (
"480 -360 OFFCURVE",
"824 -378 OFFCURVE",
"877 -378 CURVE",
"1037 -111 LINE",
"998 -107 OFFCURVE",
"821 -84 OFFCURVE",
"821 22 CURVE",
"480 22 LINE"
);
}
);
width = 1572;
},
{
anchors = (
{
name = bottom;
position = "{547, -17}";
},
{
name = top;
position = "{868, 1487}";
}
);
components = (
{
name = O;
}
);
layerId = "2503C51C-5A6C-4B2C-A968-78FEA18C2585";
paths = (
{
closed = 1;
nodes = (
"528 -235 OFFCURVE",
"724 -298 OFFCURVE",
"784 -313 CURVE",
"802 -285 LINE",
"738 -272 OFFCURVE",
"563 -209 OFFCURVE",
"563 -2 CURVE",
"528 2 LINE"
);
}
);
width = 1328;
},
{
anchors = (
{
name = bottom;
position = "{574, -20}";
},
{
name = top;
position = "{895, 1492}";
}
);
components = (
{
alignment = -1;
name = O;
}
);
layerId = "BEF1FBB1-ACEC-4AC1-9895-C09886024D55";
paths = (
{
closed = 1;
nodes = (
"501 -282 OFFCURVE",
"752 -328 OFFCURVE",
"810 -337 CURVE",
"881 -220 LINE",
"826 -210 OFFCURVE",
"650 -162 OFFCURVE",
"650 7 CURVE",
"501 10 LINE"
);
}
);
width = 1386;
}
);
leftKerningGroup = O;
leftMetricsKey = O;
note = Q;
rightKerningGroup = O;
rightMetricsKey = O;
unicode = 0051;
},
{
glyphname = R;
lastChange = "2020-06-22 01:19:25 +0000";
layers = (
{
anchors = (
{
name = bottom;
position = "{573, 0}";
},
{
name = top;
position = "{807, 1475}";
}
);
layerId = "3FDD6C00-F7FD-4E85-84B0-0136AF7D7529";
paths = (
{
closed = 1;
nodes = (
"391 0 LINE",
"529 647 LINE",
"324 541 LINE",
"659 541 LINE SMOOTH",
"751 541 OFFCURVE",
"797 501 OFFCURVE",
"797 432 CURVE SMOOTH",
"797 340 OFFCURVE",
"734 165 OFFCURVE",
"734 62 CURVE SMOOTH",
"734 36 OFFCURVE",
"737 15 OFFCURVE",
"744 0 CURVE",
"1148 0 LINE",
"1140 13 OFFCURVE",
"1136 36 OFFCURVE",
"1136 63 CURVE SMOOTH",
"1136 174 OFFCURVE",
"1211 391 OFFCURVE",
"1211 500 CURVE SMOOTH",
"1211 636 OFFCURVE",
"1122 685 OFFCURVE",
"1014 692 CURVE",
"1220 708 OFFCURVE",
"1375 938 OFFCURVE",
"1375 1156 CURVE SMOOTH",
"1375 1346 OFFCURVE",
"1260 1475 OFFCURVE",
"965 1475 CURVE SMOOTH",
"311 1475 LINE",
"-3 0 LINE"
);
},
{
closed = 1;
nodes = (
"679 1354 LINE",
"459 1176 LINE",
"806 1176 LINE SMOOTH",
"904 1176 OFFCURVE",
"946 1113 OFFCURVE",
"946 1036 CURVE SMOOTH",
"946 914 OFFCURVE",
"845 841 OFFCURVE",
"737 841 CURVE SMOOTH",
"388 841 LINE",
"548 737 LINE"
);
}
);
width = 1331;
},
{
anchors = (
{
name = bottom;
position = "{431, 0}";
},
{
name = top;
position = "{716, 1475}";
}
);
layerId = "2503C51C-5A6C-4B2C-A968-78FEA18C2585";
paths = (
{
closed = 1;
nodes = (
"92 0 LINE",
"244 714 LINE",
"227 700 LINE",
"648 700 LINE SMOOTH",
"795 700 OFFCURVE",
"891 655 OFFCURVE",
"891 535 CURVE SMOOTH",
"891 454 OFFCURVE",
"796 105 OFFCURVE",
"796 27 CURVE SMOOTH",
"796 13 OFFCURVE",
"797 3 OFFCURVE",
"798 0 CURVE",
"830 0 LINE",
"829 4 OFFCURVE",
"827 15 OFFCURVE",
"827 31 CURVE SMOOTH",
"827 115 OFFCURVE",
"924 463 OFFCURVE",
"924 541 CURVE SMOOTH",
"924 661 OFFCURVE",
"828 708 OFFCURVE",
"747 716 CURVE",
"949 740 OFFCURVE",
"1098 993 OFFCURVE",
"1098 1200 CURVE SMOOTH",
"1098 1369 OFFCURVE",
"1000 1475 OFFCURVE",
"796 1475 CURVE SMOOTH",
"376 1475 LINE",
"62 0 LINE"
);
},
{
closed = 1;
nodes = (
"403 1461 LINE",
"386 1447 LINE",
"790 1447 LINE SMOOTH",
"985 1447 OFFCURVE",
"1067 1349 OFFCURVE",
"1067 1199 CURVE SMOOTH",
"1067 956 OFFCURVE",
"889 728 OFFCURVE",
"654 728 CURVE SMOOTH",
"233 728 LINE",
"244 714 LINE"
);
}
);
width = 1135;
},
{
anchors = (
{
name = bottom;
position = "{475, 0}";
},
{
name = top;
position = "{731, 1475}";
}
);
layerId = "BEF1FBB1-ACEC-4AC1-9895-C09886024D55";
paths = (
{
closed = 1;
nodes = (
"195 0 LINE",
"342 689 LINE",
"254 630 LINE",
"643 630 LINE SMOOTH",
"769 630 OFFCURVE",
"846 587 OFFCURVE",
"846 486 CURVE SMOOTH",
"846 401 OFFCURVE",
"763 128 OFFCURVE",
"763 40 CURVE SMOOTH",
"763 22 OFFCURVE",
"765 8 OFFCURVE",
"768 0 CURVE",
"940 0 LINE",
"936 7 OFFCURVE",
"934 23 OFFCURVE",
"934 43 CURVE SMOOTH",
"934 137 OFFCURVE",
"1022 436 OFFCURVE",
"1022 526 CURVE SMOOTH",
"1022 652 OFFCURVE",
"939 699 OFFCURVE",
"848 707 CURVE",
"1051 728 OFFCURVE",
"1193 972 OFFCURVE",
"1193 1184 CURVE SMOOTH",
"1193 1360 OFFCURVE",
"1078 1475 OFFCURVE",
"840 1475 CURVE SMOOTH",
"342 1475 LINE",
"28 0 LINE"
);
},
{
closed = 1;
nodes = (
"497 1421 LINE",
"404 1325 LINE",
"787 1325 LINE SMOOTH",
"945 1325 OFFCURVE",
"1012 1251 OFFCURVE",
"1012 1128 CURVE SMOOTH",
"1012 940 OFFCURVE",
"863 780 OFFCURVE",
"676 780 CURVE SMOOTH",
"282 780 LINE",
"349 723 LINE"
);
}
);
width = 1190;
}
);
leftKerningGroup = H;
leftMetricsKey = H;
note = R;
rightKerningGroup = R;
unicode = 0052;
},
{
color = 3;
glyphname = R.ss01;
lastChange = "2020-06-22 01:19:25 +0000";
layers = (
{
anchors = (
{
name = bottom;
position = "{514, 0}";
},
{
name = top;
position = "{828, 1475}";
}
);
layerId = "3FDD6C00-F7FD-4E85-84B0-0136AF7D7529";
paths = (
{
closed = 1;
nodes = (
"311 1475 LINE",
"-3 0 LINE",
"391 0 LINE",
"531 656 LINE",
"448 562 LINE",
"709 562 LINE SMOOTH",
"1110 562 OFFCURVE",
"1360 755 OFFCURVE",
"1360 1145 CURVE SMOOTH",
"1360 1344 OFFCURVE",
"1224 1475 OFFCURVE",
"935 1475 CURVE SMOOTH"
);
},
{
closed = 1;
nodes = (
"510 852 LINE",
"552 758 LINE",
"666 1291 LINE",
"586 1185 LINE",
"808 1185 LINE SMOOTH",
"897 1185 OFFCURVE",
"936 1135 OFFCURVE",
"936 1069 CURVE SMOOTH",
"936 957 OFFCURVE",
"860 852 OFFCURVE",
"744 852 CURVE SMOOTH"
);
},
{
closed = 1;
nodes = (
"717 0 LINE",
"1129 0 LINE",
"1006 693 LINE",
"637 693 LINE"
);
}
);
width = 1317;
},
{
anchors = (
{
name = bottom;
position = "{424, 0}";
},
{
name = top;
position = "{738, 1475}";
}
);
layerId = "2503C51C-5A6C-4B2C-A968-78FEA18C2585";
paths = (
{
closed = 1;
nodes = (
"376 1475 LINE",
"62 0 LINE",
"93 0 LINE",
"241 693 LINE",
"224 679 LINE",
"703 679 LINE",
"948 679 OFFCURVE",
"1124 920 OFFCURVE",
"1124 1177 CURVE SMOOTH",
"1124 1370 OFFCURVE",
"1013 1475 OFFCURVE",
"806 1475 CURVE SMOOTH"
);
},
{
closed = 1;
nodes = (
"230 708 LINE",
"241 694 LINE",
"404 1461 LINE",
"387 1447 LINE",
"791 1447 LINE SMOOTH",
"991 1447 OFFCURVE",
"1093 1352 OFFCURVE",
"1093 1174 CURVE SMOOTH",
"1093 943 OFFCURVE",
"931 708 OFFCURVE",
"706 708 CURVE SMOOTH"
);
},
{
closed = 1;
nodes = (
"818 0 LINE",
"850 0 LINE",
"728 696 LINE",
"698 696 LINE"
);
}
);
width = 1168;
},
{
anchors = (
{
name = bottom;
position = "{446, 0}";
},
{
name = top;
position = "{760, 1475}";
}
);
layerId = "BEF1FBB1-ACEC-4AC1-9895-C09886024D55";
paths = (
{
closed = 1;
nodes = (
"342 1475 LINE",
"28 0 LINE",
"195 0 LINE",
"340 679 LINE",
"299 635 LINE",
"696 635 LINE",
"999 635 OFFCURVE",
"1203 858 OFFCURVE",
"1203 1165 CURVE SMOOTH",
"1203 1360 OFFCURVE",
"1083 1475 OFFCURVE",
"845 1475 CURVE SMOOTH"
);
},
{
closed = 1;
nodes = (
"326 782 LINE",
"348 718 LINE",
"493 1397 LINE",
"452 1329 LINE",
"788 1329 LINE SMOOTH",
"946 1329 OFFCURVE",
"1025 1271 OFFCURVE",
"1025 1135 CURVE SMOOTH",
"1025 948 OFFCURVE",
"895 782 OFFCURVE",
"711 782 CURVE SMOOTH"
);
},
{
closed = 1;
nodes = (
"771 0 LINE",
"945 0 LINE",
"823 695 LINE",
"656 695 LINE"
);
}
);
width = 1207;
}
);
leftKerningGroup = H;
leftMetricsKey = H;
note = R;
rightKerningGroup = R;
rightMetricsKey = R;
},
{
glyphname = S;
lastChange = "2020-06-22 01:19:25 +0000";
layers = (
{
anchors = (
{
name = bottom;
position = "{554, 0}";
},
{
name = top;
position = "{842, 1475}";
}
);
layerId = "3FDD6C00-F7FD-4E85-84B0-0136AF7D7529";
paths = (
{
closed = 1;
nodes = (
"912 -26 OFFCURVE",
"1212 154 OFFCURVE",
"1212 481 CURVE SMOOTH",
"1212 688 OFFCURVE",
"1046 779 OFFCURVE",
"837 865 CURVE SMOOTH",
"685 928 OFFCURVE",
"579 974 OFFCURVE",
"579 1046 CURVE SMOOTH",
"579 1143 OFFCURVE",
"665 1190 OFFCURVE",
"783 1190 CURVE SMOOTH",
"880 1190 OFFCURVE",
"925 1144 OFFCURVE",
"925 1080 CURVE SMOOTH",
"925 1050 OFFCURVE",
"917 1016 OFFCURVE",
"914 1004 CURVE",
"1317 1004 LINE",
"1325 1029 OFFCURVE",
"1336 1085 OFFCURVE",
"1336 1139 CURVE SMOOTH",
"1336 1361 OFFCURVE",
"1122 1500 OFFCURVE",
"832 1500 CURVE SMOOTH",
"485 1500 OFFCURVE",
"183 1294 OFFCURVE",
"183 969 CURVE SMOOTH",
"183 765 OFFCURVE",
"368 672 OFFCURVE",
"533 607 CURVE SMOOTH",
"691 545 OFFCURVE",
"808 487 OFFCURVE",
"808 409 CURVE SMOOTH",
"808 321 OFFCURVE",
"710 285 OFFCURVE",
"600 285 CURVE SMOOTH",
"500 285 OFFCURVE",
"452 335 OFFCURVE",
"452 406 CURVE SMOOTH",
"452 428 OFFCURVE",
"457 460 OFFCURVE",
"466 493 CURVE",
"63 493 LINE",
"51 449 OFFCURVE",
"42 409 OFFCURVE",
"42 346 CURVE SMOOTH",
"42 107 OFFCURVE",
"267 -26 OFFCURVE",
"548 -26 CURVE"
);
}
);
width = 1304;
},
{
anchors = (
{
name = bottom;
position = "{434, 0}";
},
{
name = top;
position = "{734, 1475}";
}
);
layerId = "2503C51C-5A6C-4B2C-A968-78FEA18C2585";
paths = (
{
closed = 1;
nodes = (
"732 -17 OFFCURVE",
"943 142 OFFCURVE",
"943 419 CURVE SMOOTH",
"943 586 OFFCURVE",
"830 686 OFFCURVE",
"620 761 CURVE SMOOTH",
"420 832 OFFCURVE",
"290 924 OFFCURVE",
"290 1099 CURVE SMOOTH",
"290 1334 OFFCURVE",
"478 1460 OFFCURVE",
"734 1460 CURVE SMOOTH",
"945 1460 OFFCURVE",
"1066 1383 OFFCURVE",
"1066 1203 CURVE SMOOTH",
"1066 1145 OFFCURVE",
"1057 1091 OFFCURVE",
"1037 1000 CURVE",
"1068 1000 LINE",
"1088 1088 OFFCURVE",
"1097 1146 OFFCURVE",
"1097 1207 CURVE SMOOTH",
"1097 1400 OFFCURVE",
"966 1488 OFFCURVE",
"734 1488 CURVE SMOOTH",
"458 1488 OFFCURVE",
"258 1354 OFFCURVE",
"258 1094 CURVE SMOOTH",
"258 910 OFFCURVE",
"389 813 OFFCURVE",
"612 731 CURVE SMOOTH",
"801 662 OFFCURVE",
"911 571 OFFCURVE",
"911 415 CURVE SMOOTH",
"911 158 OFFCURVE",
"714 11 OFFCURVE",
"434 11 CURVE SMOOTH",
"222 11 OFFCURVE",
"107 97 OFFCURVE",
"107 281 CURVE SMOOTH",
"107 343 OFFCURVE",
"116 392 OFFCURVE",
"138 484 CURVE",
"107 484 LINE",
"86 394 OFFCURVE",
"75 341 OFFCURVE",
"75 275 CURVE SMOOTH",
"75 80 OFFCURVE",
"199 -17 OFFCURVE",
"438 -17 CURVE"
);
}
);
width = 1095;
},
{
anchors = (
{
name = bottom;
position = "{458, 0}";
},
{
name = top;
position = "{756, 1475}";
}
);
layerId = "BEF1FBB1-ACEC-4AC1-9895-C09886024D55";
paths = (
{
closed = 1;
nodes = (
"779 -20 OFFCURVE",
"1023 147 OFFCURVE",
"1023 442 CURVE SMOOTH",
"1023 624 OFFCURVE",
"892 732 OFFCURVE",
"679 806 CURVE SMOOTH",
"496 870 OFFCURVE",
"378 938 OFFCURVE",
"378 1078 CURVE SMOOTH",
"378 1261 OFFCURVE",
"527 1339 OFFCURVE",
"732 1339 CURVE SMOOTH",
"900 1339 OFFCURVE",
"992 1293 OFFCURVE",
"992 1157 CURVE SMOOTH",
"992 1109 OFFCURVE",
"984 1063 OFFCURVE",
"970 1002 CURVE",
"1141 1002 LINE",
"1156 1066 OFFCURVE",
"1166 1123 OFFCURVE",
"1166 1182 CURVE SMOOTH",
"1166 1385 OFFCURVE",
"1004 1493 OFFCURVE",
"750 1493 CURVE SMOOTH",
"447 1493 OFFCURVE",
"209 1332 OFFCURVE",
"209 1047 CURVE SMOOTH",
"209 856 OFFCURVE",
"361 740 OFFCURVE",
"564 673 CURVE SMOOTH",
"741 615 OFFCURVE",
"852 540 OFFCURVE",
"852 413 CURVE SMOOTH",
"852 219 OFFCURVE",
"692 134 OFFCURVE",
"476 134 CURVE SMOOTH",
"306 134 OFFCURVE",
"216 186 OFFCURVE",
"216 328 CURVE SMOOTH",
"216 375 OFFCURVE",
"223 418 OFFCURVE",
"240 487 CURVE",
"70 487 LINE",
"52 415 OFFCURVE",
"42 367 OFFCURVE",
"42 302 CURVE SMOOTH",
"42 90 OFFCURVE",
"204 -20 OFFCURVE",
"459 -20 CURVE"
);
}
);
width = 1137;
}
);
leftKerningGroup = S;
leftMetricsKey = O;
note = S;
rightKerningGroup = S;
rightMetricsKey = O;
unicode = 0053;
},
{
glyphname = Scedilla;
lastChange = "2020-06-22 01:19:25 +0000";
layers = (
{
components = (
{
name = S;
}
);
layerId = "2503C51C-5A6C-4B2C-A968-78FEA18C2585";
paths = (
{
closed = 1;
nodes = (
"421 -156 OFFCURVE",
"375 -173 OFFCURVE",
"360 -198 CURVE",
"360 -208 LINE",
"451 -13 LINE",
"421 -13 LINE",
"328 -212 LINE",
"355 -225 LINE",
"379 -201 OFFCURVE",
"426 -184 OFFCURVE",
"462 -184 CURVE SMOOTH",
"512 -184 OFFCURVE",
"544 -207 OFFCURVE",
"544 -262 CURVE SMOOTH",
"544 -361 OFFCURVE",
"461 -419 OFFCURVE",
"368 -419 CURVE SMOOTH",
"303 -419 OFFCURVE",
"270 -400 OFFCURVE",
"260 -392 CURVE",
"242 -420 LINE",
"251 -428 OFFCURVE",
"298 -447 OFFCURVE",
"364 -447 CURVE SMOOTH",
"474 -447 OFFCURVE",
"574 -381 OFFCURVE",
"574 -259 CURVE SMOOTH",
"574 -184 OFFCURVE",
"525 -156 OFFCURVE",
"467 -156 CURVE SMOOTH"
);
}
);
width = 1095;
},
{
components = (
{
name = S;
}
);
layerId = "3FDD6C00-F7FD-4E85-84B0-0136AF7D7529";
paths = (
{
closed = 1;
nodes = (
"608 -74 OFFCURVE",
"567 -93 OFFCURVE",
"550 -125 CURVE",
"560 -125 LINE",
"633 -18 LINE",
"467 -18 LINE",
"373 -161 LINE",
"513 -200 LINE",
"530 -178 OFFCURVE",
"566 -168 OFFCURVE",
"597 -168 CURVE SMOOTH",
"625 -168 OFFCURVE",
"648 -180 OFFCURVE",
"648 -208 CURVE SMOOTH",
"648 -258 OFFCURVE",
"590 -283 OFFCURVE",
"515 -283 CURVE SMOOTH",
"444 -283 OFFCURVE",
"365 -248 OFFCURVE",
"338 -230 CURVE",
"242 -371 LINE",
"281 -400 OFFCURVE",
"402 -428 OFFCURVE",
"491 -428 CURVE SMOOTH",
"657 -428 OFFCURVE",
"819 -354 OFFCURVE",
"819 -200 CURVE SMOOTH",
"819 -107 OFFCURVE",
"739 -74 OFFCURVE",
"673 -74 CURVE SMOOTH"
);
}
);
width = 1304;
},
{
components = (
{
name = S;
}
);
layerId = "BEF1FBB1-ACEC-4AC1-9895-C09886024D55";
paths = (
{
closed = 1;
nodes = (
"470 -115 OFFCURVE",
"416 -143 OFFCURVE",
"400 -171 CURVE",
"414 -177 LINE",
"498 -15 LINE",
"417 -15 LINE",
"324 -193 LINE",
"393 -216 LINE",
"414 -193 OFFCURVE",
"457 -178 OFFCURVE",
"491 -178 CURVE SMOOTH",
"533 -178 OFFCURVE",
"562 -197 OFFCURVE",
"562 -242 CURVE SMOOTH",
"562 -323 OFFCURVE",
"488 -368 OFFCURVE",
"402 -368 CURVE SMOOTH",
"335 -368 OFFCURVE",
"284 -343 OFFCURVE",
"268 -331 CURVE",
"221 -402 LINE",
"241 -418 OFFCURVE",
"316 -440 OFFCURVE",
"390 -440 CURVE SMOOTH",
"521 -440 OFFCURVE",
"645 -371 OFFCURVE",
"645 -237 CURVE SMOOTH",
"645 -155 OFFCURVE",
"584 -115 OFFCURVE",
"523 -115 CURVE SMOOTH"
);
}
);
width = 1137;
}
);
leftKerningGroup = S;
rightKerningGroup = S;
unicode = 015E;
},
{
glyphname = Germandbls;
lastChange = "2020-06-22 01:19:25 +0000";
layers = (
{
layerId = "2503C51C-5A6C-4B2C-A968-78FEA18C2585";
paths = (
{
closed = 1;
nodes = (
"93 0 LINE",
"333 1133 LINE",
"377 1340 OFFCURVE",
"501 1447 OFFCURVE",
"697 1447 CURVE",
"1076 1447 LINE",
"536 894 LINE",
"566 863 LINE",
"595 869 OFFCURVE",
"635 872 OFFCURVE",
"664 872 CURVE SMOOTH",
"834 872 OFFCURVE",
"964 762 OFFCURVE",
"964 561 CURVE SMOOTH",
"964 254 OFFCURVE",
"755 15 OFFCURVE",
"442 15 CURVE SMOOTH",
"375 15 OFFCURVE",
"308 36 OFFCURVE",
"287 47 CURVE",
"266 17 LINE",
"293 5 OFFCURVE",
"362 -13 OFFCURVE",
"442 -13 CURVE SMOOTH",
"773 -13 OFFCURVE",
"995 232 OFFCURVE",
"995 561 CURVE SMOOTH",
"995 776 OFFCURVE",
"857 900 OFFCURVE",
"664 900 CURVE SMOOTH",
"635 900 OFFCURVE",
"605 897 OFFCURVE",
"574 891 CURVE",
"1115 1445 LINE",
"1121 1475 LINE",
"702 1475 LINE",
"485 1475 OFFCURVE",
"350 1353 OFFCURVE",
"302 1128 CURVE",
"63 0 LINE"
);
}
);
width = 1121;
},
{
layerId = "3FDD6C00-F7FD-4E85-84B0-0136AF7D7529";
paths = (
{
closed = 1;
nodes = (
"401 0 LINE",
"626 1061 LINE",
"641 1130 OFFCURVE",
"674 1175 OFFCURVE",
"744 1175 CURVE",
"979 1175 LINE",
"614 869 LINE",
"751 623 LINE",
"764 631 OFFCURVE",
"801 653 OFFCURVE",
"851 653 CURVE SMOOTH",
"922 653 OFFCURVE",
"957 609 OFFCURVE",
"957 533 CURVE SMOOTH",
"957 406 OFFCURVE",
"882 287 OFFCURVE",
"762 287 CURVE SMOOTH",
"675 287 OFFCURVE",
"581 310 OFFCURVE",
"559 321 CURVE",
"494 17 LINE",
"521 5 OFFCURVE",
"633 -13 OFFCURVE",
"733 -13 CURVE SMOOTH",
"1130 -13 OFFCURVE",
"1364 187 OFFCURVE",
"1364 575 CURVE SMOOTH",
"1364 816 OFFCURVE",
"1233 891 OFFCURVE",
"1110 891 CURVE SMOOTH",
"1090 891 OFFCURVE",
"1060 889 OFFCURVE",
"1040 885 CURVE",
"1392 1157 LINE",
"1459 1475 LINE",
"755 1475 LINE",
"513 1475 OFFCURVE",
"287 1365 OFFCURVE",
"230 1097 CURVE",
"-3 0 LINE"
);
}
);
width = 1444;
},
{
layerId = "BEF1FBB1-ACEC-4AC1-9895-C09886024D55";
paths = (
{
closed = 1;
nodes = (
"199 0 LINE",
"429 1086 LINE",
"462 1241 OFFCURVE",
"552 1325 OFFCURVE",
"700 1325 CURVE",
"1002 1325 LINE",
"528 885 LINE",
"624 763 LINE",
"646 770 OFFCURVE",
"679 780 OFFCURVE",
"716 780 CURVE SMOOTH",
"848 780 OFFCURVE",
"953 720 OFFCURVE",
"953 559 CURVE SMOOTH",
"953 321 OFFCURVE",
"802 137 OFFCURVE",
"559 137 CURVE SMOOTH",
"474 137 OFFCURVE",
"395 161 OFFCURVE",
"373 172 CURVE",
"333 19 LINE",
"359 6 OFFCURVE",
"428 -13 OFFCURVE",
"525 -13 CURVE SMOOTH",
"882 -13 OFFCURVE",
"1122 210 OFFCURVE",
"1122 563 CURVE SMOOTH",
"1122 787 OFFCURVE",
"998 912 OFFCURVE",
"830 912 CURVE SMOOTH",
"795 912 OFFCURVE",
"764 906 OFFCURVE",
"747 899 CURVE",
"1205 1317 LINE",
"1238 1475 LINE",
"712 1475 LINE",
"486 1475 OFFCURVE",
"316 1358 OFFCURVE",
"265 1116 CURVE",
"28 0 LINE"
);
}
);
width = 1215;
}
);
leftKerningGroup = H;
leftMetricsKey = H;
rightKerningGroup = S;
rightMetricsKey = S;
unicode = 1E9E;
},
{
glyphname = Schwa;
lastChange = "2020-06-22 01:19:25 +0000";
layers = (
{
anchors = (
{
name = bottom;
position = "{469, 0}";
},
{
name = top;
position = "{773, 1475}";
}
);
layerId = "2503C51C-5A6C-4B2C-A968-78FEA18C2585";
paths = (
{
closed = 1;
nodes = (
"882 -11 OFFCURVE",
"1118 512 OFFCURVE",
"1118 1009 CURVE SMOOTH",
"1118 1287 OFFCURVE",
"1024 1484 OFFCURVE",
"770 1484 CURVE SMOOTH",
"451 1484 OFFCURVE",
"249 1189 OFFCURVE",
"225 1021 CURVE",
"256 1021 LINE",
"275 1165 OFFCURVE",
"463 1456 OFFCURVE",
"770 1456 CURVE SMOOTH",
"1004 1456 OFFCURVE",
"1085 1268 OFFCURVE",
"1085 1011 CURVE SMOOTH",
"1085 528 OFFCURVE",
"862 17 OFFCURVE",
"462 17 CURVE SMOOTH",
"228 17 OFFCURVE",
"160 231 OFFCURVE",
"160 458 CURVE SMOOTH",
"160 524 OFFCURVE",
"169 640 OFFCURVE",
"184 697 CURVE",
"170 690 LINE",
"1057 690 LINE",
"1063 718 LINE",
"156 718 LINE",
"137 623 OFFCURVE",
"129 565 OFFCURVE",
"129 456 CURVE SMOOTH",
"129 206 OFFCURVE",
"210 -11 OFFCURVE",
"462 -11 CURVE SMOOTH"
);
}
);
width = 1169;
},
{
anchors = (
{
name = bottom;
position = "{567, 0}";
},
{
name = top;
position = "{881, 1475}";
}
);
layerId = "3FDD6C00-F7FD-4E85-84B0-0136AF7D7529";
paths = (
{
closed = 1;
nodes = (
"1084 -11 OFFCURVE",
"1379 454 OFFCURVE",
"1379 978 CURVE SMOOTH",
"1379 1361 OFFCURVE",
"1144 1484 OFFCURVE",
"874 1484 CURVE SMOOTH",
"545 1484 OFFCURVE",
"261 1299 OFFCURVE",
"187 1001 CURVE",
"574 1001 LINE",
"608 1115 OFFCURVE",
"709 1192 OFFCURVE",
"830 1192 CURVE SMOOTH",
"912 1192 OFFCURVE",
"980 1156 OFFCURVE",
"980 989 CURVE SMOOTH",
"980 718 OFFCURVE",
"864 280 OFFCURVE",
"624 280 CURVE SMOOTH",
"535 280 OFFCURVE",
"472 325 OFFCURVE",
"472 467 CURVE SMOOTH",
"472 541 OFFCURVE",
"480 587 OFFCURVE",
"501 677 CURVE",
"471 589 LINE",
"923 589 LINE",
"982 868 LINE",
"147 868 LINE",
"118 799 OFFCURVE",
"93 590 OFFCURVE",
"93 499 CURVE SMOOTH",
"93 130 OFFCURVE",
"294 -11 OFFCURVE",
"582 -11 CURVE SMOOTH"
);
}
);
width = 1384;
},
{
anchors = (
{
name = bottom;
position = "{485, 0}";
},
{
name = top;
position = "{793, 1475}";
}
);
layerId = "BEF1FBB1-ACEC-4AC1-9895-C09886024D55";
paths = (
{
closed = 1;
nodes = (
"928 -11 OFFCURVE",
"1194 498 OFFCURVE",
"1194 990 CURVE SMOOTH",
"1194 1309 OFFCURVE",
"1052 1484 OFFCURVE",
"788 1484 CURVE SMOOTH",
"466 1484 OFFCURVE",
"237 1218 OFFCURVE",
"190 1014 CURVE",
"355 1014 LINE",
"382 1134 OFFCURVE",
"528 1329 OFFCURVE",
"765 1329 CURVE SMOOTH",
"942 1329 OFFCURVE",
"1025 1218 OFFCURVE",
"1025 998 CURVE SMOOTH",
"1025 600 OFFCURVE",
"848 144 OFFCURVE",
"508 144 CURVE SMOOTH",
"329 144 OFFCURVE",
"252 272 OFFCURVE",
"252 460 CURVE SMOOTH",
"252 553 OFFCURVE",
"260 599 OFFCURVE",
"282 690 CURVE",
"258 632 LINE",
"1001 632 LINE",
"1033 784 LINE",
"133 784 LINE",
"110 702 OFFCURVE",
"91 563 OFFCURVE",
"91 467 CURVE SMOOTH",
"91 178 OFFCURVE",
"219 -11 OFFCURVE",
"485 -11 CURVE SMOOTH"
);
}
);
width = 1212;
}
);
leftKerningGroup = O;
leftMetricsKey = O;
rightKerningGroup = O;
rightMetricsKey = O;
unicode = 018F;
},
{
glyphname = T;
lastChange = "2020-06-22 01:19:25 +0000";
layers = (
{
anchors = (
{
name = bottom;
position = "{501, 0}";
},
{
name = center;
position = "{648, 738}";
},
{
name = top;
position = "{805, 1475}";
}
);
layerId = "3FDD6C00-F7FD-4E85-84B0-0136AF7D7529";
paths = (
{
closed = 1;
nodes = (
"1356 1475 LINE",
"262 1475 LINE",
"198 1175 LINE",
"725 1175 LINE",
"581 1353 LINE",
"293 0 LINE",
"696 0 LINE",
"984 1353 LINE",
"764 1175 LINE",
"1292 1175 LINE"
);
}
);
width = 1214;
},
{
anchors = (
{
name = bottom;
position = "{430, 0}";
},
{
name = center;
position = "{586, 738}";
},
{
name = top;
position = "{743, 1475}";
}
);
layerId = "2503C51C-5A6C-4B2C-A968-78FEA18C2585";
paths = (
{
closed = 1;
nodes = (
"1171 1475 LINE",
"316 1475 LINE",
"311 1447 LINE",
"736 1447 LINE",
"725 1461 LINE",
"415 0 LINE",
"447 0 LINE",
"756 1461 LINE",
"739 1447 LINE",
"1164 1447 LINE"
);
}
);
width = 1085;
},
{
anchors = (
{
name = bottom;
position = "{440, 0}";
},
{
name = center;
position = "{592, 738}";
},
{
name = top;
position = "{749, 1475}";
}
);
layerId = "BEF1FBB1-ACEC-4AC1-9895-C09886024D55";
paths = (
{
closed = 1;
nodes = (
"1223 1475 LINE",
"280 1475 LINE",
"248 1325 LINE",
"711 1325 LINE",
"654 1422 LINE",
"352 0 LINE",
"522 0 LINE",
"824 1422 LINE",
"727 1325 LINE",
"1191 1325 LINE"
);
}
);
width = 1100;
}
);
leftKerningGroup = T;
note = T;
rightKerningGroup = T;
unicode = 0054;
},
{
glyphname = Tbar;
lastChange = "2020-06-22 01:19:25 +0000";
layers = (
{
components = (
{
name = T;
}
);
layerId = "2503C51C-5A6C-4B2C-A968-78FEA18C2585";
paths = (
{
closed = 1;
nodes = (
"915 725 LINE",
"920 751 LINE",
"258 751 LINE",
"251 725 LINE"
);
}
);
width = 1085;
},
{
components = (
{
name = T;
}
);
layerId = "3FDD6C00-F7FD-4E85-84B0-0136AF7D7529";
paths = (
{
closed = 1;
nodes = (
"1004 648 LINE",
"1042 827 LINE",
"292 827 LINE",
"254 648 LINE"
);
}
);
width = 1214;
},
{
components = (
{
name = T;
}
);
layerId = "BEF1FBB1-ACEC-4AC1-9895-C09886024D55";
paths = (
{
closed = 1;
nodes = (
"931 697 LINE",
"948 780 LINE",
"253 780 LINE",
"234 697 LINE"
);
}
);
width = 1100;
}
);
leftKerningGroup = T;
rightKerningGroup = T;
unicode = 0166;
},
{
glyphname = U;
lastChange = "2020-06-22 01:19:25 +0000";
layers = (
{
anchors = (
{
name = bottom;
position = "{612, 0}";
},
{
name = ogonek;
position = "{906, 30}";
},
{
name = top;
position = "{909, 1475}";
},
{
name = topright;
position = "{1339, 1475}";
}
);
layerId = "3FDD6C00-F7FD-4E85-84B0-0136AF7D7529";
paths = (
{
closed = 1;
nodes = (
"1483 1475 LINE",
"1079 1475 LINE",
"875 515 LINE SMOOTH",
"843 366 OFFCURVE",
"781 285 OFFCURVE",
"645 285 CURVE SMOOTH",
"543 285 OFFCURVE",
"503 331 OFFCURVE",
"503 417 CURVE SMOOTH",
"503 472 OFFCURVE",
"511 516 OFFCURVE",
"533 617 CURVE SMOOTH",
"719 1475 LINE",
"315 1475 LINE",
"142 680 LINE SMOOTH",
"112 541 OFFCURVE",
"97 467 OFFCURVE",
"97 381 CURVE SMOOTH",
"97 113 OFFCURVE",
"283 -26 OFFCURVE",
"612 -26 CURVE SMOOTH",
"952 -26 OFFCURVE",
"1203 158 OFFCURVE",
"1281 525 CURVE SMOOTH"
);
}
);
width = 1392;
},
{
anchors = (
{
name = bottom;
position = "{527, 0}";
},
{
name = ogonek;
position = "{724, 17}";
},
{
name = top;
position = "{846, 1475}";
},
{
name = topright;
position = "{1284, 1475}";
}
);
layerId = "2503C51C-5A6C-4B2C-A968-78FEA18C2585";
paths = (
{
closed = 1;
nodes = (
"1297 1475 LINE",
"1267 1475 LINE",
"1074 566 LINE SMOOTH",
"992 182 OFFCURVE",
"798 11 OFFCURVE",
"527 11 CURVE SMOOTH",
"311 11 OFFCURVE",
"193 117 OFFCURVE",
"193 354 CURVE SMOOTH",
"193 474 OFFCURVE",
"214 573 OFFCURVE",
"261 794 CURVE SMOOTH",
"407 1475 LINE",
"377 1475 LINE",
"228 781 LINE SMOOTH",
"184 574 OFFCURVE",
"162 464 OFFCURVE",
"162 348 CURVE SMOOTH",
"162 98 OFFCURVE",
"285 -17 OFFCURVE",
"527 -17 CURVE SMOOTH",
"812 -17 OFFCURVE",
"1019 162 OFFCURVE",
"1102 555 CURVE SMOOTH"
);
}
);
width = 1272;
},
{
anchors = (
{
name = bottom;
position = "{557, 0}";
},
{
name = ogonek;
position = "{776, 20}";
},
{
name = top;
position = "{861, 1475}";
},
{
name = topright;
position = "{1296, 1475}";
}
);
layerId = "BEF1FBB1-ACEC-4AC1-9895-C09886024D55";
paths = (
{
closed = 1;
nodes = (
"1358 1475 LINE",
"1188 1475 LINE",
"991 547 LINE SMOOTH",
"928 251 OFFCURVE",
"783 134 OFFCURVE",
"563 134 CURVE SMOOTH",
"390 134 OFFCURVE",
"301 197 OFFCURVE",
"301 378 CURVE SMOOTH",
"301 473 OFFCURVE",
"317 552 OFFCURVE",
"355 728 CURVE SMOOTH",
"516 1475 LINE",
"345 1475 LINE",
"186 743 LINE SMOOTH",
"147 562 OFFCURVE",
"129 465 OFFCURVE",
"129 360 CURVE SMOOTH",
"129 104 OFFCURVE",
"278 -20 OFFCURVE",
"553 -20 CURVE SMOOTH",
"858 -20 OFFCURVE",
"1080 161 OFFCURVE",
"1161 544 CURVE SMOOTH"
);
}
);
width = 1299;
}
);
leftKerningGroup = U;
leftMetricsKey = H;
note = U;
rightKerningGroup = U;
rightMetricsKey = H;
unicode = 0055;
},
{
glyphname = Uhorn;
lastChange = "2020-06-22 01:19:25 +0000";
layers = (
{
anchors = (
{
name = bottom;
position = "{528, -17}";
},
{
name = ogonek;
position = "{724, 17}";
},
{
name = top;
position = "{846, 1475}";
},
{
name = topright;
position = "{1284, 1475}";
}
);
layerId = "2503C51C-5A6C-4B2C-A968-78FEA18C2585";
paths = (
{
closed = 1;
nodes = (
"1278 1447 LINE",
"1431 1447 OFFCURVE",
"1529 1543 OFFCURVE",
"1549 1728 CURVE",
"1517 1728 LINE",
"1499 1557 OFFCURVE",
"1408 1475 OFFCURVE",
"1284 1475 CURVE"
);
},
{
closed = 1;
nodes = (
"1297 1475 LINE",
"1267 1475 LINE",
"1074 566 LINE SMOOTH",
"992 182 OFFCURVE",
"798 11 OFFCURVE",
"527 11 CURVE SMOOTH",
"311 11 OFFCURVE",
"193 117 OFFCURVE",
"193 354 CURVE SMOOTH",
"193 474 OFFCURVE",
"214 573 OFFCURVE",
"261 794 CURVE SMOOTH",
"407 1475 LINE",
"377 1475 LINE",
"228 781 LINE SMOOTH",
"184 574 OFFCURVE",
"162 464 OFFCURVE",
"162 348 CURVE SMOOTH",
"162 98 OFFCURVE",
"285 -17 OFFCURVE",
"527 -17 CURVE SMOOTH",
"812 -17 OFFCURVE",
"1019 162 OFFCURVE",
"1102 555 CURVE SMOOTH"
);
}
);
width = 1288;
},
{
anchors = (
{
name = bottom;
position = "{612, -26}";
},
{
name = ogonek;
position = "{906, 30}";
},
{
name = top;
position = "{909, 1475}";
},
{
name = topright;
position = "{1339, 1475}";
}
);
layerId = "3FDD6C00-F7FD-4E85-84B0-0136AF7D7529";
paths = (
{
closed = 1;
nodes = (
"1299 1285 LINE",
"1566 1285 OFFCURVE",
"1714 1422 OFFCURVE",
"1747 1736 CURVE",
"1503 1736 LINE",
"1485 1565 OFFCURVE",
"1441 1475 OFFCURVE",
"1339 1475 CURVE"
);
},
{
closed = 1;
nodes = (
"1483 1475 LINE",
"1079 1475 LINE",
"875 515 LINE SMOOTH",
"843 366 OFFCURVE",
"781 285 OFFCURVE",
"645 285 CURVE SMOOTH",
"543 285 OFFCURVE",
"503 331 OFFCURVE",
"503 417 CURVE SMOOTH",
"503 472 OFFCURVE",
"511 516 OFFCURVE",
"533 617 CURVE SMOOTH",
"719 1475 LINE",
"315 1475 LINE",
"142 680 LINE SMOOTH",
"112 541 OFFCURVE",
"97 467 OFFCURVE",
"97 381 CURVE SMOOTH",
"97 113 OFFCURVE",
"283 -26 OFFCURVE",
"612 -26 CURVE SMOOTH",
"952 -26 OFFCURVE",
"1203 158 OFFCURVE",
"1281 525 CURVE SMOOTH"
);
}
);
width = 1472;
},
{
anchors = (
{
name = bottom;
position = "{551, -20}";
},
{
name = ogonek;
position = "{776, 20}";
},
{
name = top;
position = "{861, 1475}";
},
{
name = topright;
position = "{1296, 1475}";
}
);
layerId = "BEF1FBB1-ACEC-4AC1-9895-C09886024D55";
paths = (
{
closed = 1;
nodes = (
"1276 1386 LINE",
"1472 1386 OFFCURVE",
"1589 1498 OFFCURVE",
"1614 1731 CURVE",
"1502 1731 LINE",
"1484 1560 OFFCURVE",
"1411 1475 OFFCURVE",
"1295 1475 CURVE"
);
},
{
closed = 1;
nodes = (
"1358 1475 LINE",
"1188 1475 LINE",
"991 547 LINE SMOOTH",
"928 251 OFFCURVE",
"783 134 OFFCURVE",
"563 134 CURVE SMOOTH",
"390 134 OFFCURVE",
"301 197 OFFCURVE",
"301 378 CURVE SMOOTH",
"301 473 OFFCURVE",
"317 552 OFFCURVE",
"355 728 CURVE SMOOTH",
"516 1475 LINE",
"345 1475 LINE",
"186 743 LINE SMOOTH",
"147 562 OFFCURVE",
"129 465 OFFCURVE",
"129 360 CURVE SMOOTH",
"129 104 OFFCURVE",
"278 -20 OFFCURVE",
"553 -20 CURVE SMOOTH",
"858 -20 OFFCURVE",
"1080 161 OFFCURVE",
"1161 544 CURVE SMOOTH"
);
}
);
width = 1307;
}
);
leftKerningGroup = U;
rightKerningGroup = Uhorn;
unicode = 01AF;
},
{
glyphname = Uogonek;
lastChange = "2020-06-22 01:19:25 +0000";
layers = (
{
components = (
{
name = U;
}
);
layerId = "2503C51C-5A6C-4B2C-A968-78FEA18C2585";
paths = (
{
closed = 1;
nodes = (
"663 -344 OFFCURVE",
"625 -348 OFFCURVE",
"597 -348 CURVE SMOOTH",
"535 -348 OFFCURVE",
"500 -319 OFFCURVE",
"500 -262 CURVE SMOOTH",
"500 -166 OFFCURVE",
"633 -57 OFFCURVE",
"724 17 CURVE",
"696 17 LINE",
"593 -55 OFFCURVE",
"464 -159 OFFCURVE",
"464 -268 CURVE SMOOTH",
"464 -346 OFFCURVE",
"518 -379 OFFCURVE",
"590 -379 CURVE SMOOTH",
"621 -379 OFFCURVE",
"659 -375 OFFCURVE",
"683 -370 CURVE",
"686 -339 LINE"
);
}
);
width = 1272;
},
{
components = (
{
name = U;
}
);
layerId = "3FDD6C00-F7FD-4E85-84B0-0136AF7D7529";
paths = (
{
closed = 1;
nodes = (
"856 -243 OFFCURVE",
"829 -246 OFFCURVE",
"805 -246 CURVE SMOOTH",
"757 -246 OFFCURVE",
"718 -237 OFFCURVE",
"718 -192 CURVE SMOOTH",
"718 -131 OFFCURVE",
"852 -10 OFFCURVE",
"906 30 CURVE",
"718 30 LINE",
"634 -22 OFFCURVE",
"480 -144 OFFCURVE",
"480 -278 CURVE SMOOTH",
"480 -394 OFFCURVE",
"620 -432 OFFCURVE",
"764 -432 CURVE SMOOTH",
"798 -432 OFFCURVE",
"830 -430 OFFCURVE",
"858 -427 CURVE",
"878 -240 LINE"
);
}
);
width = 1392;
},
{
components = (
{
name = U;
}
);
layerId = "BEF1FBB1-ACEC-4AC1-9895-C09886024D55";
paths = (
{
closed = 1;
nodes = (
"717 -319 OFFCURVE",
"684 -323 OFFCURVE",
"658 -323 CURVE SMOOTH",
"597 -323 OFFCURVE",
"564 -302 OFFCURVE",
"564 -249 CURVE SMOOTH",
"564 -168 OFFCURVE",
"697 -44 OFFCURVE",
"776 20 CURVE",
"678 20 LINE",
"588 -43 OFFCURVE",
"460 -153 OFFCURVE",
"460 -261 CURVE SMOOTH",
"460 -359 OFFCURVE",
"531 -412 OFFCURVE",
"637 -412 CURVE SMOOTH",
"669 -412 OFFCURVE",
"705 -409 OFFCURVE",
"731 -405 CURVE",
"740 -315 LINE"
);
}
);
width = 1299;
}
);
leftKerningGroup = U;
rightKerningGroup = U;
unicode = 0172;
},
{
glyphname = V;
lastChange = "2020-06-22 01:19:25 +0000";
layers = (
{
anchors = (
{
name = bottom;
position = "{560, 0}";
},
{
name = top;
position = "{874, 1475}";
}
);
layerId = "3FDD6C00-F7FD-4E85-84B0-0136AF7D7529";
paths = (
{
closed = 1;
nodes = (
"876 0 LINE",
"1528 1475 LINE",
"1071 1475 LINE",
"613 231 LINE",
"628 231 LINE",
"679 1475 LINE",
"242 1475 LINE",
"268 0 LINE"
);
}
);
width = 1366;
},
{
anchors = (
{
name = bottom;
position = "{458, 0}";
},
{
name = top;
position = "{772, 1475}";
}
);
layerId = "2503C51C-5A6C-4B2C-A968-78FEA18C2585";
paths = (
{
closed = 1;
nodes = (
"472 -13 LINE",
"1220 1475 LINE",
"1186 1475 LINE",
"455 12 LINE",
"464 12 LINE",
"348 1475 LINE",
"316 1475 LINE",
"438 -13 LINE"
);
}
);
width = 1134;
},
{
anchors = (
{
name = bottom;
position = "{487, 0}";
},
{
name = top;
position = "{801, 1475}";
}
);
layerId = "BEF1FBB1-ACEC-4AC1-9895-C09886024D55";
paths = (
{
closed = 1;
nodes = (
"614 -8 LINE",
"1326 1475 LINE",
"1134 1475 LINE",
"510 125 LINE",
"521 125 LINE",
"463 1475 LINE",
"279 1475 LINE",
"365 -8 LINE"
);
}
);
width = 1202;
}
);
leftKerningGroup = V;
leftMetricsKey = A;
note = V;
rightKerningGroup = V;
rightMetricsKey = A;
unicode = 0056;
},
{
glyphname = W;
lastChange = "2020-06-22 01:19:25 +0000";
layers = (
{
anchors = (
{
name = bottom;
position = "{891, 0}";
},
{
name = top;
position = "{1205, 1475}";
}
);
layerId = "3FDD6C00-F7FD-4E85-84B0-0136AF7D7529";
paths = (
{
closed = 1;
nodes = (
"769 0 LINE",
"1165 1213 LINE",
"1125 1213 LINE",
"1004 0 LINE",
"1621 0 LINE",
"2139 1475 LINE",
"1724 1475 LINE",
"1296 63 LINE",
"1344 66 LINE",
"1438 1475 LINE",
"945 1475 LINE",
"438 66 LINE",
"504 63 LINE",
"676 1475 LINE",
"261 1475 LINE",
"151 0 LINE"
);
}
);
width = 1998;
},
{
anchors = (
{
name = bottom;
position = "{676, 0}";
},
{
name = top;
position = "{990, 1475}";
}
);
layerId = "2503C51C-5A6C-4B2C-A968-78FEA18C2585";
paths = (
{
closed = 1;
nodes = (
"327 0 LINE",
"993 1434 LINE",
"983 1434 LINE",
"1032 0 LINE",
"1069 0 LINE",
"1675 1475 LINE",
"1641 1475 LINE",
"1052 31 LINE",
"1060 31 LINE",
"1012 1475 LINE",
"976 1475 LINE",
"311 31 LINE",
"321 31 LINE",
"349 1475 LINE",
"316 1475 LINE",
"292 0 LINE"
);
}
);
width = 1589;
},
{
anchors = (
{
name = bottom;
position = "{747, 0}";
},
{
name = top;
position = "{1061, 1475}";
}
);
layerId = "BEF1FBB1-ACEC-4AC1-9895-C09886024D55";
paths = (
{
closed = 1;
nodes = (
"466 0 LINE",
"1038 1331 LINE",
"1018 1331 LINE",
"1023 0 LINE",
"1286 0 LINE",
"1836 1475 LINE",
"1653 1475 LINE",
"1156 73 LINE",
"1182 74 LINE",
"1166 1475 LINE",
"940 1475 LINE",
"327 74 LINE",
"353 73 LINE",
"452 1475 LINE",
"282 1475 LINE",
"202 0 LINE"
);
}
);
width = 1724;
}
);
leftKerningGroup = V;
note = W;
rightKerningGroup = V;
unicode = 0057;
},
{
glyphname = X;
lastChange = "2020-06-22 01:19:25 +0000";
layers = (
{
anchors = (
{
name = bottom;
position = "{595, 0}";
},
{
name = top;
position = "{909, 1475}";
}
);
layerId = "3FDD6C00-F7FD-4E85-84B0-0136AF7D7529";
paths = (
{
closed = 1;
nodes = (
"-69 0 LINE",
"392 0 LINE",
"829 625 LINE",
"667 625 LINE",
"814 0 LINE",
"1261 0 LINE",
"961 892 LINE",
"908 566 LINE",
"1569 1475 LINE",
"1108 1475 LINE",
"687 833 LINE",
"835 833 LINE",
"712 1475 LINE",
"265 1475 LINE",
"549 566 LINE",
"608 892 LINE"
);
}
);
width = 1418;
},
{
anchors = (
{
name = bottom;
position = "{424, 0}";
},
{
name = top;
position = "{738, 1475}";
}
);
layerId = "2503C51C-5A6C-4B2C-A968-78FEA18C2585";
paths = (
{
closed = 1;
nodes = (
"-19 0 LINE",
"22 0 LINE",
"589 717 LINE",
"574 717 LINE",
"842 0 LINE",
"872 0 LINE",
"597 743 LINE",
"594 717 LINE",
"1174 1475 LINE",
"1136 1475 LINE",
"578 743 LINE",
"594 743 LINE",
"342 1475 LINE",
"308 1475 LINE",
"571 717 LINE",
"574 745 LINE"
);
}
);
width = 1079;
},
{
anchors = (
{
name = bottom;
position = "{479, 0}";
},
{
name = top;
position = "{793, 1475}";
}
);
layerId = "BEF1FBB1-ACEC-4AC1-9895-C09886024D55";
paths = (
{
closed = 1;
nodes = (
"-50 0 LINE",
"151 0 LINE",
"702 683 LINE",
"591 693 LINE",
"841 0 LINE",
"1023 0 LINE",
"721 809 LINE",
"693 660 LINE",
"1332 1475 LINE",
"1131 1475 LINE",
"594 777 LINE",
"719 787 LINE",
"467 1475 LINE",
"286 1475 LINE",
"593 670 LINE",
"603 799 LINE"
);
}
);
width = 1187;
}
);
leftKerningGroup = X;
note = X;
rightKerningGroup = X;
unicode = 0058;
},
{
glyphname = Y;
lastChange = "2020-06-22 01:19:25 +0000";
layers = (
{
anchors = (
{
name = bottom;
position = "{580, 0}";
},
{
name = top;
position = "{894, 1475}";
},
{
name = topleft;
position = "{221, 1475}";
}
);
layerId = "3FDD6C00-F7FD-4E85-84B0-0136AF7D7529";
paths = (
{
closed = 1;
nodes = (
"1079 1475 LINE",
"620 692 LINE",
"778 692 LINE",
"659 1475 LINE",
"242 1475 LINE",
"471 505 LINE",
"363 0 LINE",
"765 0 LINE",
"874 505 LINE",
"1517 1475 LINE"
);
}
);
width = 1355;
},
{
anchors = (
{
name = bottom;
position = "{401, 0}";
},
{
name = top;
position = "{715, 1475}";
},
{
name = topleft;
position = "{226, 1475}";
}
);
layerId = "2503C51C-5A6C-4B2C-A968-78FEA18C2585";
paths = (
{
closed = 1;
nodes = (
"1085 1475 LINE",
"512 544 LINE",
"525 544 LINE",
"347 1475 LINE",
"316 1475 LINE",
"498 517 LINE",
"388 0 LINE",
"419 0 LINE",
"529 517 LINE",
"1119 1475 LINE"
);
}
);
width = 1033;
},
{
anchors = (
{
name = bottom;
position = "{466, 0}";
},
{
name = top;
position = "{780, 1475}";
},
{
name = topleft;
position = "{222, 1475}";
}
);
layerId = "BEF1FBB1-ACEC-4AC1-9895-C09886024D55";
paths = (
{
closed = 1;
nodes = (
"1088 1475 LINE",
"552 620 LINE",
"627 620 LINE",
"455 1475 LINE",
"279 1475 LINE",
"486 513 LINE",
"377 0 LINE",
"547 0 LINE",
"657 513 LINE",
"1274 1475 LINE"
);
}
);
width = 1150;
}
);
leftKerningGroup = Y;
leftMetricsKey = V;
note = Y;
rightKerningGroup = Y;
rightMetricsKey = V;
unicode = 0059;
},
{
glyphname = Z;
lastChange = "2020-06-22 01:19:25 +0000";
layers = (
{
anchors = (
{
name = bottom;
position = "{505, 0}";
},
{
name = center;
position = "{662, 738}";
},
{
name = top;
position = "{819, 1475}";
}
);
layerId = "3FDD6C00-F7FD-4E85-84B0-0136AF7D7529";
paths = (
{
closed = 1;
nodes = (
"490 303 LINE",
"1282 1221 LINE",
"1336 1475 LINE",
"323 1475 LINE",
"259 1175 LINE",
"815 1175 LINE",
"813 1177 LINE",
"19 257 LINE",
"-36 0 LINE",
"1013 0 LINE",
"1077 301 LINE",
"489 301 LINE"
);
}
);
width = 1212;
},
{
anchors = (
{
name = bottom;
position = "{432, 0}";
},
{
name = center;
position = "{589, 738}";
},
{
name = top;
position = "{746, 1475}";
}
);
layerId = "2503C51C-5A6C-4B2C-A968-78FEA18C2585";
paths = (
{
closed = 1;
nodes = (
"65 27 LINE",
"1127 1449 LINE",
"1133 1475 LINE",
"382 1475 LINE",
"376 1447 LINE",
"1094 1447 LINE",
"1091 1448 LINE",
"28 28 LINE",
"22 0 LINE",
"809 0 LINE",
"815 28 LINE",
"65 28 LINE"
);
}
);
width = 1067;
},
{
anchors = (
{
name = bottom;
position = "{450, 0}";
},
{
name = center;
position = "{607, 738}";
},
{
name = top;
position = "{764, 1475}";
}
);
layerId = "BEF1FBB1-ACEC-4AC1-9895-C09886024D55";
paths = (
{
closed = 1;
nodes = (
"224 153 LINE",
"1170 1344 LINE",
"1198 1475 LINE",
"349 1475 LINE",
"317 1325 LINE",
"968 1325 LINE",
"966 1326 LINE",
"18 134 LINE",
"-11 0 LINE",
"874 0 LINE",
"906 150 LINE",
"223 150 LINE"
);
}
);
width = 1103;
}
);
leftKerningGroup = Z;
note = Z;
rightKerningGroup = Z;
unicode = 005A;
},
{
glyphname = a;
lastChange = "2020-06-22 23:49:58 +0000";
layers = (
{
anchors = (
{
name = bottom;
position = "{513, 0}";
},
{
name = ogonek;
position = "{1160, 0}";
},
{
name = top;
position = "{743, 1062}";
}
);
layerId = "3FDD6C00-F7FD-4E85-84B0-0136AF7D7529";
paths = (
{
closed = 1;
nodes = (
"703 -26 OFFCURVE",
"936 174 OFFCURVE",
"1003 489 CURVE",
"866 508 LINE",
"838 375 OFFCURVE",
"733 308 OFFCURVE",
"627 308 CURVE SMOOTH",
"534 308 OFFCURVE",
"469 373 OFFCURVE",
"469 493 CURVE SMOOTH",
"469 648 OFFCURVE",
"578 751 OFFCURVE",
"712 751 CURVE SMOOTH",
"795 751 OFFCURVE",
"880 702 OFFCURVE",
"880 600 CURVE SMOOTH",
"880 582 OFFCURVE",
"877 562 OFFCURVE",
"873 544 CURVE",
"1016 552 LINE",
"1026 590 OFFCURVE",
"1033 647 OFFCURVE",
"1033 685 CURVE SMOOTH",
"1033 923 OFFCURVE",
"855 1084 OFFCURVE",
"641 1084 CURVE SMOOTH",
"291 1084 OFFCURVE",
"41 795 OFFCURVE",
"41 434 CURVE SMOOTH",
"41 135 OFFCURVE",
"213 -26 OFFCURVE",
"458 -26 CURVE SMOOTH"
);
},
{
closed = 1;
nodes = (
"1385 1062 LINE",
"982 1062 LINE",
"757 0 LINE",
"1160 0 LINE"
);
}
);
width = 1363;
},
{
anchors = (
{
name = bottom;
position = "{547, 0}";
},
{
name = ogonek;
position = "{974, 0}";
},
{
name = top;
position = "{760, 1062}";
}
);
layerId = "2503C51C-5A6C-4B2C-A968-78FEA18C2585";
paths = (
{
closed = 1;
nodes = (
"811 -17 OFFCURVE",
"1009 163 OFFCURVE",
"1054 383 CURVE",
"1025 383 LINE",
"983 186 OFFCURVE",
"797 11 OFFCURVE",
"540 11 CURVE SMOOTH",
"329 11 OFFCURVE",
"174 165 OFFCURVE",
"174 417 CURVE SMOOTH",
"174 762 OFFCURVE",
"422 1047 OFFCURVE",
"760 1047 CURVE SMOOTH",
"969 1047 OFFCURVE",
"1095 913 OFFCURVE",
"1095 748 CURVE SMOOTH",
"1095 706 OFFCURVE",
"1091 690 OFFCURVE",
"1082 655 CURVE",
"1112 655 LINE",
"1120 689 OFFCURVE",
"1124 708 OFFCURVE",
"1124 752 CURVE SMOOTH",
"1124 934 OFFCURVE",
"982 1075 OFFCURVE",
"760 1075 CURVE SMOOTH",
"402 1075 OFFCURVE",
"142 781 OFFCURVE",
"142 411 CURVE SMOOTH",
"142 139 OFFCURVE",
"313 -17 OFFCURVE",
"540 -17 CURVE SMOOTH"
);
},
{
closed = 1;
nodes = (
"1199 1062 LINE",
"1168 1062 LINE",
"943 0 LINE",
"974 0 LINE"
);
}
);
width = 1282;
},
{
anchors = (
{
name = bottom;
position = "{555, 0}";
},
{
name = ogonek;
position = "{1038, 0}";
},
{
name = top;
position = "{766, 1062}";
}
);
layerId = "BEF1FBB1-ACEC-4AC1-9895-C09886024D55";
paths = (
{
closed = 1;
nodes = (
"776 -20 OFFCURVE",
"1013 137 OFFCURVE",
"1082 461 CURVE",
"967 468 LINE",
"922 255 OFFCURVE",
"742 134 OFFCURVE",
"569 134 CURVE SMOOTH",
"406 134 OFFCURVE",
"283 221 OFFCURVE",
"283 428 CURVE SMOOTH",
"283 709 OFFCURVE",
"450 924 OFFCURVE",
"737 924 CURVE SMOOTH",
"885 924 OFFCURVE",
"1003 838 OFFCURVE",
"1003 678 CURVE SMOOTH",
"1003 654 OFFCURVE",
"998 608 OFFCURVE",
"992 585 CURVE",
"1092 585 LINE",
"1102 623 OFFCURVE",
"1109 687 OFFCURVE",
"1109 726 CURVE SMOOTH",
"1109 960 OFFCURVE",
"954 1078 OFFCURVE",
"741 1078 CURVE SMOOTH",
"373 1078 OFFCURVE",
"104 790 OFFCURVE",
"104 412 CURVE SMOOTH",
"104 115 OFFCURVE",
"295 -20 OFFCURVE",
"527 -20 CURVE SMOOTH"
);
},
{
closed = 1;
nodes = (
"1263 1062 LINE",
"1092 1062 LINE",
"867 0 LINE",
"1038 0 LINE"
);
}
);
width = 1288;
}
);
leftKerningGroup = o;
leftMetricsKey = o;
rightKerningGroup = i;
rightMetricsKey = u;
unicode = 0061;
},
{
color = 3;
glyphname = a.ss01;
lastChange = "2020-06-22 23:49:58 +0000";
layers = (
{
anchors = (
{
name = bottom;
position = "{516, 0}";
},
{
name = ogonek;
position = "{1150, 0}";
},
{
name = top;
position = "{743, 1062}";
}
);
layerId = "3FDD6C00-F7FD-4E85-84B0-0136AF7D7529";
paths = (
{
closed = 1;
nodes = (
"529 -24 OFFCURVE",
"740 62 OFFCURVE",
"819 193 CURVE",
"741 262 LINE",
"731 232 OFFCURVE",
"727 199 OFFCURVE",
"727 167 CURVE SMOOTH",
"727 95 OFFCURVE",
"744 27 OFFCURVE",
"756 0 CURVE",
"1150 0 LINE",
"1137 24 OFFCURVE",
"1121 77 OFFCURVE",
"1121 148 CURVE SMOOTH",
"1121 182 OFFCURVE",
"1125 220 OFFCURVE",
"1134 261 CURVE SMOOTH",
"1222 674 LINE SMOOTH",
"1228 704 OFFCURVE",
"1231 732 OFFCURVE",
"1231 758 CURVE SMOOTH",
"1231 980 OFFCURVE",
"985 1084 OFFCURVE",
"723 1084 CURVE SMOOTH",
"413 1084 OFFCURVE",
"147 943 OFFCURVE",
"90 675 CURVE",
"487 675 LINE",
"503 749 OFFCURVE",
"572 790 OFFCURVE",
"679 790 CURVE SMOOTH",
"767 790 OFFCURVE",
"825 757 OFFCURVE",
"825 716 CURVE SMOOTH",
"825 714 OFFCURVE",
"825 711 OFFCURVE",
"824 708 CURVE SMOOTH",
"810 667 OFFCURVE",
"683 647 OFFCURVE",
"501 629 CURVE SMOOTH",
"215 600 OFFCURVE",
"4 504 OFFCURVE",
"4 249 CURVE SMOOTH",
"4 106 OFFCURVE",
"119 -24 OFFCURVE",
"357 -24 CURVE SMOOTH"
);
},
{
closed = 1;
nodes = (
"453 262 OFFCURVE",
"416 279 OFFCURVE",
"416 319 CURVE SMOOTH",
"416 374 OFFCURVE",
"483 391 OFFCURVE",
"567 400 CURVE SMOOTH",
"657 410 OFFCURVE",
"787 428 OFFCURVE",
"889 465 CURVE",
"791 505 LINE",
"765 428 LINE SMOOTH",
"722 300 OFFCURVE",
"604 262 OFFCURVE",
"518 262 CURVE SMOOTH"
);
}
);
width = 1284;
},
{
anchors = (
{
name = bottom;
position = "{526, 0}";
},
{
name = ogonek;
position = "{954, 0}";
},
{
name = top;
position = "{749, 1062}";
}
);
layerId = "2503C51C-5A6C-4B2C-A968-78FEA18C2585";
paths = (
{
closed = 1;
nodes = (
"651 -17 OFFCURVE",
"839 73 OFFCURVE",
"932 212 CURVE",
"930 219 LINE",
"910 124 OFFCURVE",
"905 98 OFFCURVE",
"905 63 CURVE SMOOTH",
"905 32 OFFCURVE",
"918 4 OFFCURVE",
"923 0 CURVE",
"954 0 LINE",
"949 7 OFFCURVE",
"936 36 OFFCURVE",
"936 71 CURVE SMOOTH",
"936 97 OFFCURVE",
"940 123 OFFCURVE",
"949 164 CURVE SMOOTH",
"1059 681 LINE SMOOTH",
"1075 758 OFFCURVE",
"1080 785 OFFCURVE",
"1080 828 CURVE SMOOTH",
"1080 983 OFFCURVE",
"930 1075 OFFCURVE",
"719 1075 CURVE SMOOTH",
"450 1075 OFFCURVE",
"252 939 OFFCURVE",
"206 721 CURVE",
"237 721 LINE",
"279 921 OFFCURVE",
"468 1047 OFFCURVE",
"720 1047 CURVE SMOOTH",
"931 1047 OFFCURVE",
"1049 957 OFFCURVE",
"1049 825 CURVE SMOOTH",
"1049 796 OFFCURVE",
"1046 766 OFFCURVE",
"1037 724 CURVE SMOOTH",
"1022 656 OFFCURVE",
"879 624 OFFCURVE",
"594 597 CURVE SMOOTH",
"322 571 OFFCURVE",
"108 497 OFFCURVE",
"108 242 CURVE SMOOTH",
"108 78 OFFCURVE",
"216 -17 OFFCURVE",
"456 -17 CURVE SMOOTH"
);
},
{
closed = 1;
nodes = (
"234 11 OFFCURVE",
"139 102 OFFCURVE",
"139 242 CURVE SMOOTH",
"139 481 OFFCURVE",
"338 544 OFFCURVE",
"600 568 CURVE SMOOTH",
"794 586 OFFCURVE",
"959 611 OFFCURVE",
"1027 661 CURVE",
"1026 672 LINE",
"951 319 LINE",
"894 136 OFFCURVE",
"683 11 OFFCURVE",
"459 11 CURVE SMOOTH"
);
}
);
width = 1197;
},
{
anchors = (
{
name = bottom;
position = "{512, 0}";
},
{
name = ogonek;
position = "{1029, 0}";
},
{
name = top;
position = "{746, 1062}";
}
);
layerId = "BEF1FBB1-ACEC-4AC1-9895-C09886024D55";
paths = (
{
closed = 1;
nodes = (
"626 -20 OFFCURVE",
"799 48 OFFCURVE",
"865 152 CURVE",
"843 151 LINE",
"841 140 OFFCURVE",
"837 115 OFFCURVE",
"837 94 CURVE SMOOTH",
"837 49 OFFCURVE",
"850 9 OFFCURVE",
"858 0 CURVE",
"1029 0 LINE",
"1020 10 OFFCURVE",
"1005 41 OFFCURVE",
"1005 91 CURVE SMOOTH",
"1005 122 OFFCURVE",
"1011 160 OFFCURVE",
"1020 200 CURVE SMOOTH",
"1117 647 LINE SMOOTH",
"1132 716 OFFCURVE",
"1140 754 OFFCURVE",
"1140 796 CURVE SMOOTH",
"1140 980 OFFCURVE",
"968 1078 OFFCURVE",
"735 1078 CURVE SMOOTH",
"451 1078 OFFCURVE",
"235 941 OFFCURVE",
"184 704 CURVE",
"352 704 LINE",
"385 857 OFFCURVE",
"516 921 OFFCURVE",
"714 921 CURVE SMOOTH",
"883 921 OFFCURVE",
"968 876 OFFCURVE",
"968 776 CURVE SMOOTH",
"968 767 OFFCURVE",
"968 757 OFFCURVE",
"964 747 CURVE SMOOTH",
"945 692 OFFCURVE",
"834 656 OFFCURVE",
"579 633 CURVE SMOOTH",
"301 608 OFFCURVE",
"70 504 OFFCURVE",
"70 247 CURVE SMOOTH",
"70 80 OFFCURVE",
"197 -20 OFFCURVE",
"418 -20 CURVE SMOOTH"
);
},
{
closed = 1;
nodes = (
"311 135 OFFCURVE",
"243 178 OFFCURVE",
"243 276 CURVE SMOOTH",
"243 435 OFFCURVE",
"387 474 OFFCURVE",
"590 493 CURVE SMOOTH",
"732 506 OFFCURVE",
"872 529 OFFCURVE",
"963 564 CURVE",
"941 626 LINE",
"891 394 LINE",
"839 229 OFFCURVE",
"661 135 OFFCURVE",
"466 135 CURVE SMOOTH"
);
}
);
width = 1218;
}
);
leftKerningGroup = o;
leftMetricsKey = "=o+10";
note = a;
rightKerningGroup = n;
},
{
glyphname = ae;
lastChange = "2020-06-23 15:35:31 +0000";
layers = (
{
anchors = (
{
name = bottom;
position = "{945, 0}";
},
{
name = top;
position = "{1171, 1062}";
}
);
layerId = "3FDD6C00-F7FD-4E85-84B0-0136AF7D7529";
paths = (
{
closed = 1;
nodes = (
"671 -27 OFFCURVE",
"908 40 OFFCURVE",
"1009 236 CURVE",
"882 226 LINE",
"952 68 OFFCURVE",
"1120 -27 OFFCURVE",
"1363 -27 CURVE SMOOTH",
"1724 -27 OFFCURVE",
"1955 147 OFFCURVE",
"2015 335 CURVE",
"1617 335 LINE",
"1605 302 OFFCURVE",
"1544 261 OFFCURVE",
"1415 261 CURVE SMOOTH",
"1277 261 OFFCURVE",
"1230 323 OFFCURVE",
"1230 426 CURVE SMOOTH",
"1230 468 OFFCURVE",
"1238 516 OFFCURVE",
"1250 569 CURVE",
"1048 420 LINE",
"2043 420 LINE",
"2063 477 OFFCURVE",
"2081 577 OFFCURVE",
"2081 645 CURVE SMOOTH",
"2081 918 OFFCURVE",
"1883 1083 OFFCURVE",
"1559 1083 CURVE SMOOTH",
"1362 1083 OFFCURVE",
"1186 1016 OFFCURVE",
"1057 900 CURVE",
"1216 889 LINE",
"1208 903 OFFCURVE",
"1198 917 OFFCURVE",
"1187 929 CURVE SMOOTH",
"1102 1032 OFFCURVE",
"948 1083 OFFCURVE",
"775 1083 CURVE SMOOTH",
"465 1083 OFFCURVE",
"159 952 OFFCURVE",
"102 684 CURVE",
"499 684 LINE",
"515 758 OFFCURVE",
"612 789 OFFCURVE",
"719 789 CURVE SMOOTH",
"811 789 OFFCURVE",
"874 754 OFFCURVE",
"874 710 CURVE SMOOTH",
"874 707 OFFCURVE",
"873 698 OFFCURVE",
"871 687 CURVE SMOOTH",
"861 642 OFFCURVE",
"811 638 OFFCURVE",
"577 638 CURVE SMOOTH",
"290 638 OFFCURVE",
"0 557 OFFCURVE",
"0 283 CURVE SMOOTH",
"0 100 OFFCURVE",
"161 -27 OFFCURVE",
"468 -27 CURVE SMOOTH"
);
},
{
closed = 1;
nodes = (
"442 271 OFFCURVE",
"409 294 OFFCURVE",
"409 333 CURVE SMOOTH",
"409 383 OFFCURVE",
"462 419 OFFCURVE",
"578 419 CURVE SMOOTH",
"674 419 OFFCURVE",
"817 424 OFFCURVE",
"939 444 CURVE",
"849 585 LINE",
"848 561 OFFCURVE",
"846 538 OFFCURVE",
"841 517 CURVE SMOOTH",
"802 332 OFFCURVE",
"630 271 OFFCURVE",
"528 271 CURVE SMOOTH"
);
},
{
closed = 1;
nodes = (
"1330 739 OFFCURVE",
"1412 799 OFFCURVE",
"1524 799 CURVE SMOOTH",
"1649 799 OFFCURVE",
"1692 733 OFFCURVE",
"1692 671 CURVE SMOOTH",
"1692 665 OFFCURVE",
"1691 658 OFFCURVE",
"1690 650 CURVE",
"1282 650 LINE"
);
}
);
width = 2116;
},
{
anchors = (
{
name = bottom;
position = "{973, 0}";
},
{
name = top;
position = "{1199, 1062}";
}
);
layerId = "2503C51C-5A6C-4B2C-A968-78FEA18C2585";
paths = (
{
closed = 1;
nodes = (
"699 -16 OFFCURVE",
"919 84 OFFCURVE",
"1026 405 CURVE",
"1022 403 LINE",
"1025 160 OFFCURVE",
"1164 -17 OFFCURVE",
"1419 -17 CURVE SMOOTH",
"1718 -17 OFFCURVE",
"1909 202 OFFCURVE",
"1948 332 CURVE",
"1917 332 LINE",
"1881 220 OFFCURVE",
"1702 11 OFFCURVE",
"1421 11 CURVE SMOOTH",
"1170 11 OFFCURVE",
"1053 190 OFFCURVE",
"1053 416 CURVE SMOOTH",
"1053 451 OFFCURVE",
"1055 487 OFFCURVE",
"1062 521 CURVE",
"1046 512 LINE",
"2002 512 LINE",
"2014 564 OFFCURVE",
"2020 613 OFFCURVE",
"2020 664 CURVE SMOOTH",
"2020 894 OFFCURVE",
"1891 1075 OFFCURVE",
"1644 1075 CURVE SMOOTH",
"1405 1075 OFFCURVE",
"1199 930 OFFCURVE",
"1095 722 CURVE",
"1096 716 LINE",
"1104 755 OFFCURVE",
"1108 783 OFFCURVE",
"1108 797 CURVE SMOOTH",
"1108 988 OFFCURVE",
"960 1075 OFFCURVE",
"753 1075 CURVE SMOOTH",
"484 1075 OFFCURVE",
"265 942 OFFCURVE",
"218 721 CURVE",
"251 721 LINE",
"293 921 OFFCURVE",
"502 1047 OFFCURVE",
"752 1047 CURVE SMOOTH",
"960 1047 OFFCURVE",
"1075 957 OFFCURVE",
"1075 793 CURVE SMOOTH",
"1075 769 OFFCURVE",
"1069 721 OFFCURVE",
"1056 664 CURVE SMOOTH",
"1041 599 OFFCURVE",
"954 597 OFFCURVE",
"606 597 CURVE SMOOTH",
"338 597 OFFCURVE",
"99 505 OFFCURVE",
"99 256 CURVE SMOOTH",
"99 72 OFFCURVE",
"224 -16 OFFCURVE",
"460 -16 CURVE SMOOTH"
);
},
{
closed = 1;
nodes = (
"237 12 OFFCURVE",
"133 97 OFFCURVE",
"133 260 CURVE SMOOTH",
"133 476 OFFCURVE",
"336 569 OFFCURVE",
"612 569 CURVE SMOOTH",
"847 569 OFFCURVE",
"986 570 OFFCURVE",
"1048 606 CURVE",
"1046 613 LINE",
"1041 590 OFFCURVE",
"1036 566 OFFCURVE",
"1031 542 CURVE SMOOTH",
"940 114 OFFCURVE",
"703 12 OFFCURVE",
"461 12 CURVE SMOOTH"
);
},
{
closed = 1;
nodes = (
"1120 821 OFFCURVE",
"1356 1047 OFFCURVE",
"1642 1047 CURVE SMOOTH",
"1876 1047 OFFCURVE",
"1989 869 OFFCURVE",
"1989 661 CURVE SMOOTH",
"1989 634 OFFCURVE",
"1984 571 OFFCURVE",
"1977 540 CURVE",
"1065 540 LINE"
);
}
);
width = 2156;
},
{
anchors = (
{
name = bottom;
position = "{973, 0}";
},
{
name = top;
position = "{1199, 1062}";
}
);
layerId = "BEF1FBB1-ACEC-4AC1-9895-C09886024D55";
paths = (
{
closed = 1;
nodes = (
"666 -20 OFFCURVE",
"888 51 OFFCURVE",
"1011 263 CURVE",
"963 262 LINE",
"1015 87 OFFCURVE",
"1173 -21 OFFCURVE",
"1393 -21 CURVE SMOOTH",
"1716 -21 OFFCURVE",
"1922 182 OFFCURVE",
"1969 334 CURVE",
"1801 334 LINE",
"1773 251 OFFCURVE",
"1644 125 OFFCURVE",
"1419 125 CURVE SMOOTH",
"1221 125 OFFCURVE",
"1110 238 OFFCURVE",
"1110 418 CURVE SMOOTH",
"1110 450 OFFCURVE",
"1111 482 OFFCURVE",
"1114 514 CURVE",
"1035 463 LINE",
"2010 463 LINE",
"2025 509 OFFCURVE",
"2041 603 OFFCURVE",
"2041 662 CURVE SMOOTH",
"2041 905 OFFCURVE",
"1882 1078 OFFCURVE",
"1608 1078 CURVE SMOOTH",
"1406 1078 OFFCURVE",
"1225 983 OFFCURVE",
"1103 836 CURVE",
"1149 826 LINE",
"1147 838 OFFCURVE",
"1145 849 OFFCURVE",
"1141 859 CURVE SMOOTH",
"1098 1007 OFFCURVE",
"941 1078 OFFCURVE",
"748 1078 CURVE SMOOTH",
"463 1078 OFFCURVE",
"224 942 OFFCURVE",
"173 704 CURVE",
"342 704 LINE",
"375 857 OFFCURVE",
"529 931 OFFCURVE",
"726 931 CURVE SMOOTH",
"893 931 OFFCURVE",
"999 874 OFFCURVE",
"999 754 CURVE SMOOTH",
"999 734 OFFCURVE",
"995 703 OFFCURVE",
"987 665 CURVE SMOOTH",
"974 606 OFFCURVE",
"879 605 OFFCURVE",
"593 605 CURVE SMOOTH",
"317 605 OFFCURVE",
"63 518 OFFCURVE",
"63 266 CURVE SMOOTH",
"63 86 OFFCURVE",
"212 -20 OFFCURVE",
"463 -20 CURVE SMOOTH"
);
},
{
closed = 1;
nodes = (
"337 130 OFFCURVE",
"237 180 OFFCURVE",
"237 289 CURVE SMOOTH",
"237 453 OFFCURVE",
"400 466 OFFCURVE",
"598 466 CURVE SMOOTH",
"753 466 OFFCURVE",
"892 471 OFFCURVE",
"985 494 CURVE",
"964 563 LINE",
"962 552 OFFCURVE",
"960 542 OFFCURVE",
"958 532 CURVE SMOOTH",
"887 196 OFFCURVE",
"667 130 OFFCURVE",
"487 130 CURVE SMOOTH"
);
},
{
closed = 1;
nodes = (
"1216 799 OFFCURVE",
"1381 934 OFFCURVE",
"1589 934 CURVE SMOOTH",
"1780 934 OFFCURVE",
"1875 815 OFFCURVE",
"1875 667 CURVE SMOOTH",
"1875 644 OFFCURVE",
"1875 628 OFFCURVE",
"1873 615 CURVE",
"1146 615 LINE"
);
}
);
width = 2140;
}
);
leftKerningGroup = a;
leftMetricsKey = a;
rightKerningGroup = e;
rightMetricsKey = e;
unicode = 00E6;
},
{
glyphname = b;
lastChange = "2020-06-22 23:49:58 +0000";
layers = (
{
anchors = (
{
name = bottom;
position = "{697, 0}";
},
{
name = top;
position = "{971, 1563}";
}
);
layerId = "3FDD6C00-F7FD-4E85-84B0-0136AF7D7529";
paths = (
{
closed = 1;
nodes = (
"1087 -25 OFFCURVE",
"1324 252 OFFCURVE",
"1324 628 CURVE SMOOTH",
"1324 917 OFFCURVE",
"1155 1083 OFFCURVE",
"914 1083 CURVE SMOOTH",
"659 1083 OFFCURVE",
"434 866 OFFCURVE",
"371 571 CURVE",
"510 561 LINE",
"538 694 OFFCURVE",
"656 757 OFFCURVE",
"750 757 CURVE SMOOTH",
"844 757 OFFCURVE",
"907 706 OFFCURVE",
"907 593 CURVE SMOOTH",
"907 434 OFFCURVE",
"823 314 OFFCURVE",
"656 314 CURVE SMOOTH",
"572 314 OFFCURVE",
"496 366 OFFCURVE",
"496 467 CURVE SMOOTH",
"496 482 OFFCURVE",
"499 512 OFFCURVE",
"503 528 CURVE",
"361 525 LINE",
"352 501 OFFCURVE",
"344 457 OFFCURVE",
"344 386 CURVE SMOOTH",
"344 151 OFFCURVE",
"503 -25 OFFCURVE",
"722 -25 CURVE SMOOTH"
);
},
{
closed = 1;
nodes = (
"391 0 LINE",
"724 1563 LINE",
"320 1563 LINE",
"-13 0 LINE"
);
}
);
width = 1367;
},
{
anchors = (
{
name = bottom;
position = "{520, 0}";
},
{
name = top;
position = "{852, 1563}";
}
);
layerId = "2503C51C-5A6C-4B2C-A968-78FEA18C2585";
paths = (
{
closed = 1;
nodes = (
"871 -17 OFFCURVE",
"1076 295 OFFCURVE",
"1076 664 CURVE SMOOTH",
"1076 920 OFFCURVE",
"974 1075 OFFCURVE",
"746 1075 CURVE SMOOTH",
"506 1075 OFFCURVE",
"282 886 OFFCURVE",
"237 675 CURVE",
"266 675 LINE",
"308 872 OFFCURVE",
"530 1047 OFFCURVE",
"746 1047 CURVE SMOOTH",
"955 1047 OFFCURVE",
"1045 902 OFFCURVE",
"1045 663 CURVE SMOOTH",
"1045 317 OFFCURVE",
"854 11 OFFCURVE",
"526 11 CURVE SMOOTH",
"335 11 OFFCURVE",
"198 148 OFFCURVE",
"198 316 CURVE SMOOTH",
"198 347 OFFCURVE",
"205 386 OFFCURVE",
"206 390 CURVE",
"176 390 LINE",
"175 387 OFFCURVE",
"167 344 OFFCURVE",
"167 311 CURVE SMOOTH",
"167 131 OFFCURVE",
"314 -17 OFFCURVE",
"526 -17 CURVE SMOOTH"
);
},
{
closed = 1;
nodes = (
"123 0 LINE",
"456 1563 LINE",
"425 1563 LINE",
"92 0 LINE"
);
}
);
width = 1219;
},
{
anchors = (
{
name = bottom;
position = "{574, 0}";
},
{
name = top;
position = "{884, 1563}";
}
);
layerId = "BEF1FBB1-ACEC-4AC1-9895-C09886024D55";
paths = (
{
closed = 1;
nodes = (
"915 -20 OFFCURVE",
"1161 289 OFFCURVE",
"1161 657 CURVE SMOOTH",
"1161 928 OFFCURVE",
"1004 1078 OFFCURVE",
"778 1078 CURVE SMOOTH",
"532 1078 OFFCURVE",
"268 889 OFFCURVE",
"210 616 CURVE",
"340 612 LINE",
"377 785 OFFCURVE",
"561 922 OFFCURVE",
"731 922 CURVE SMOOTH",
"890 922 OFFCURVE",
"987 834 OFFCURVE",
"987 649 CURVE SMOOTH",
"987 379 OFFCURVE",
"833 141 OFFCURVE",
"565 141 CURVE SMOOTH",
"414 141 OFFCURVE",
"300 249 OFFCURVE",
"300 393 CURVE SMOOTH",
"300 415 OFFCURVE",
"303 441 OFFCURVE",
"308 462 CURVE",
"197 459 LINE",
"188 422 OFFCURVE",
"183 388 OFFCURVE",
"183 350 CURVE SMOOTH",
"183 130 OFFCURVE",
"350 -20 OFFCURVE",
"565 -20 CURVE SMOOTH"
);
},
{
closed = 1;
nodes = (
"211 0 LINE",
"543 1563 LINE",
"372 1563 LINE",
"40 0 LINE"
);
}
);
width = 1265;
}
);
leftKerningGroup = h;
leftMetricsKey = h;
note = b;
rightKerningGroup = o;
rightMetricsKey = o;
unicode = 0062;
},
{
glyphname = c;
lastChange = "2020-06-22 23:49:58 +0000";
layers = (
{
anchors = (
{
name = bottom;
position = "{558, 0}";
},
{
name = top;
position = "{764, 1062}";
}
);
layerId = "3FDD6C00-F7FD-4E85-84B0-0136AF7D7529";
paths = (
{
closed = 1;
nodes = (
"938 -26 OFFCURVE",
"1175 210 OFFCURVE",
"1209 424 CURVE",
"809 424 LINE",
"781 344 OFFCURVE",
"723 285 OFFCURVE",
"604 285 CURVE SMOOTH",
"505 285 OFFCURVE",
"450 354 OFFCURVE",
"450 459 CURVE SMOOTH",
"450 619 OFFCURVE",
"548 773 OFFCURVE",
"708 773 CURVE SMOOTH",
"831 773 OFFCURVE",
"855 701 OFFCURVE",
"855 654 CURVE SMOOTH",
"855 643 OFFCURVE",
"855 639 OFFCURVE",
"854 631 CURVE",
"1253 631 LINE",
"1256 643 OFFCURVE",
"1259 668 OFFCURVE",
"1259 692 CURVE SMOOTH",
"1259 882 OFFCURVE",
"1093 1084 OFFCURVE",
"758 1084 CURVE SMOOTH",
"335 1084 OFFCURVE",
"43 844 OFFCURVE",
"43 437 CURVE SMOOTH",
"43 163 OFFCURVE",
"219 -26 OFFCURVE",
"562 -26 CURVE SMOOTH"
);
}
);
width = 1277;
},
{
anchors = (
{
name = bottom;
position = "{534, 0}";
},
{
name = top;
position = "{755, 1062}";
}
);
layerId = "2503C51C-5A6C-4B2C-A968-78FEA18C2585";
paths = (
{
closed = 1;
nodes = (
"839 -17 OFFCURVE",
"1020 168 OFFCURVE",
"1053 325 CURVE",
"1022 325 LINE",
"991 183 OFFCURVE",
"822 11 OFFCURVE",
"544 11 CURVE SMOOTH",
"322 11 OFFCURVE",
"172 151 OFFCURVE",
"172 415 CURVE SMOOTH",
"172 760 OFFCURVE",
"426 1047 OFFCURVE",
"764 1047 CURVE SMOOTH",
"968 1047 OFFCURVE",
"1111 928 OFFCURVE",
"1111 774 CURVE SMOOTH",
"1111 758 OFFCURVE",
"1110 739 OFFCURVE",
"1107 727 CURVE",
"1137 727 LINE",
"1139 736 OFFCURVE",
"1141 761 OFFCURVE",
"1141 773 CURVE SMOOTH",
"1141 913 OFFCURVE",
"1020 1075 OFFCURVE",
"764 1075 CURVE SMOOTH",
"410 1075 OFFCURVE",
"141 779 OFFCURVE",
"141 413 CURVE SMOOTH",
"141 133 OFFCURVE",
"305 -17 OFFCURVE",
"544 -17 CURVE SMOOTH"
);
}
);
width = 1247;
},
{
anchors = (
{
name = bottom;
position = "{539, 0}";
},
{
name = top;
position = "{758, 1062}";
}
);
layerId = "BEF1FBB1-ACEC-4AC1-9895-C09886024D55";
paths = (
{
closed = 1;
nodes = (
"879 -20 OFFCURVE",
"1081 179 OFFCURVE",
"1117 382 CURVE",
"948 382 LINE",
"912 251 OFFCURVE",
"798 136 OFFCURVE",
"572 136 CURVE SMOOTH",
"391 136 OFFCURVE",
"277 236 OFFCURVE",
"277 432 CURVE SMOOTH",
"277 716 OFFCURVE",
"462 922 OFFCURVE",
"740 922 CURVE SMOOTH",
"916 922 OFFCURVE",
"1010 839 OFFCURVE",
"1010 696 CURVE SMOOTH",
"1010 687 OFFCURVE",
"1009 678 OFFCURVE",
"1008 671 CURVE",
"1178 671 LINE",
"1180 681 OFFCURVE",
"1182 698 OFFCURVE",
"1182 725 CURVE SMOOTH",
"1182 896 OFFCURVE",
"1042 1078 OFFCURVE",
"764 1078 CURVE SMOOTH",
"393 1078 OFFCURVE",
"105 802 OFFCURVE",
"105 423 CURVE SMOOTH",
"105 145 OFFCURVE",
"279 -20 OFFCURVE",
"550 -20 CURVE SMOOTH"
);
}
);
width = 1262;
}
);
leftKerningGroup = o;
leftMetricsKey = o;
note = c;
rightKerningGroup = o;
rightMetricsKey = o;
unicode = 0063;
},
{
glyphname = ccedilla;
lastChange = "2020-06-22 23:49:58 +0000";
layers = (
{
components = (
{
name = c;
}
);
layerId = "3FDD6C00-F7FD-4E85-84B0-0136AF7D7529";
paths = (
{
closed = 1;
nodes = (
"606 -72 OFFCURVE",
"565 -91 OFFCURVE",
"548 -123 CURVE",
"558 -123 LINE",
"631 -16 LINE",
"465 -16 LINE",
"371 -159 LINE",
"511 -198 LINE",
"528 -176 OFFCURVE",
"564 -166 OFFCURVE",
"595 -166 CURVE SMOOTH",
"623 -166 OFFCURVE",
"646 -178 OFFCURVE",
"646 -206 CURVE SMOOTH",
"646 -256 OFFCURVE",
"588 -281 OFFCURVE",
"513 -281 CURVE SMOOTH",
"442 -281 OFFCURVE",
"363 -246 OFFCURVE",
"336 -228 CURVE",
"240 -369 LINE",
"279 -398 OFFCURVE",
"400 -426 OFFCURVE",
"489 -426 CURVE SMOOTH",
"655 -426 OFFCURVE",
"817 -352 OFFCURVE",
"817 -198 CURVE SMOOTH",
"817 -105 OFFCURVE",
"737 -72 OFFCURVE",
"671 -72 CURVE SMOOTH"
);
}
);
width = 1277;
},
{
components = (
{
name = c;
}
);
layerId = "2503C51C-5A6C-4B2C-A968-78FEA18C2585";
paths = (
{
closed = 1;
nodes = (
"514 -158 OFFCURVE",
"468 -175 OFFCURVE",
"453 -200 CURVE",
"453 -210 LINE",
"544 -15 LINE",
"514 -15 LINE",
"421 -214 LINE",
"448 -227 LINE",
"472 -203 OFFCURVE",
"519 -186 OFFCURVE",
"555 -186 CURVE SMOOTH",
"605 -186 OFFCURVE",
"637 -209 OFFCURVE",
"637 -264 CURVE SMOOTH",
"637 -363 OFFCURVE",
"554 -421 OFFCURVE",
"461 -421 CURVE SMOOTH",
"396 -421 OFFCURVE",
"363 -402 OFFCURVE",
"353 -394 CURVE",
"335 -422 LINE",
"344 -430 OFFCURVE",
"391 -449 OFFCURVE",
"457 -449 CURVE SMOOTH",
"567 -449 OFFCURVE",
"667 -383 OFFCURVE",
"667 -261 CURVE SMOOTH",
"667 -186 OFFCURVE",
"618 -158 OFFCURVE",
"560 -158 CURVE SMOOTH"
);
}
);
width = 1247;
},
{
components = (
{
name = c;
}
);
layerId = "BEF1FBB1-ACEC-4AC1-9895-C09886024D55";
paths = (
{
closed = 1;
nodes = (
"553 -115 OFFCURVE",
"489 -143 OFFCURVE",
"473 -171 CURVE",
"501 -177 LINE",
"585 -15 LINE",
"496 -15 LINE",
"403 -193 LINE",
"476 -216 LINE",
"497 -193 OFFCURVE",
"540 -178 OFFCURVE",
"574 -178 CURVE SMOOTH",
"616 -178 OFFCURVE",
"645 -197 OFFCURVE",
"645 -242 CURVE SMOOTH",
"645 -323 OFFCURVE",
"571 -368 OFFCURVE",
"485 -368 CURVE SMOOTH",
"418 -368 OFFCURVE",
"367 -343 OFFCURVE",
"351 -331 CURVE",
"304 -402 LINE",
"324 -418 OFFCURVE",
"399 -440 OFFCURVE",
"473 -440 CURVE SMOOTH",
"604 -440 OFFCURVE",
"728 -371 OFFCURVE",
"728 -237 CURVE SMOOTH",
"728 -155 OFFCURVE",
"667 -115 OFFCURVE",
"606 -115 CURVE SMOOTH"
);
}
);
width = 1262;
}
);
leftKerningGroup = o;
leftMetricsKey = c;
rightKerningGroup = c;
rightMetricsKey = c;
unicode = 00E7;
},
{
glyphname = d;
lastChange = "2020-06-22 23:49:58 +0000";
layers = (
{
anchors = (
{
name = bottom;
position = "{621, 0}";
},
{
name = center;
position = "{1212, 1298}";
},
{
name = top;
position = "{858, 1580}";
},
{
name = topright;
position = "{1472, 1062}";
}
);
layerId = "3FDD6C00-F7FD-4E85-84B0-0136AF7D7529";
paths = (
{
closed = 1;
nodes = (
"682 -26 OFFCURVE",
"931 210 OFFCURVE",
"994 505 CURVE",
"854 515 LINE",
"826 382 OFFCURVE",
"709 314 OFFCURVE",
"613 314 CURVE SMOOTH",
"522 314 OFFCURVE",
"456 375 OFFCURVE",
"456 487 CURVE SMOOTH",
"456 642 OFFCURVE",
"557 757 OFFCURVE",
"707 757 CURVE SMOOTH",
"789 757 OFFCURVE",
"869 709 OFFCURVE",
"869 608 CURVE SMOOTH",
"869 593 OFFCURVE",
"865 564 OFFCURVE",
"861 548 CURVE",
"1003 548 LINE",
"1014 591 OFFCURVE",
"1022 654 OFFCURVE",
"1022 697 CURVE SMOOTH",
"1022 923 OFFCURVE",
"876 1084 OFFCURVE",
"659 1084 CURVE SMOOTH",
"305 1084 OFFCURVE",
"37 778 OFFCURVE",
"37 414 CURVE SMOOTH",
"37 130 OFFCURVE",
"188 -26 OFFCURVE",
"427 -26 CURVE SMOOTH"
);
},
{
closed = 1;
nodes = (
"1148 0 LINE",
"1481 1563 LINE",
"1077 1563 LINE",
"744 0 LINE"
);
}
);
width = 1363;
},
{
anchors = (
{
name = bottom;
position = "{599, 0}";
},
{
name = center;
position = "{1166, 1295}";
},
{
name = top;
position = "{834, 1563}";
},
{
name = topright;
position = "{1191, 1062}";
}
);
layerId = "2503C51C-5A6C-4B2C-A968-78FEA18C2585";
paths = (
{
closed = 1;
nodes = (
"742 -17 OFFCURVE",
"935 172 OFFCURVE",
"980 383 CURVE",
"951 383 LINE",
"909 186 OFFCURVE",
"718 11 OFFCURVE",
"482 11 CURVE SMOOTH",
"274 11 OFFCURVE",
"173 163 OFFCURVE",
"173 389 CURVE SMOOTH",
"173 739 OFFCURVE",
"361 1045 OFFCURVE",
"692 1045 CURVE SMOOTH",
"883 1045 OFFCURVE",
"1020 910 OFFCURVE",
"1020 742 CURVE SMOOTH",
"1020 717 OFFCURVE",
"1016 692 OFFCURVE",
"1010 661 CURVE",
"1038 657 LINE",
"1040 663 OFFCURVE",
"1050 702 OFFCURVE",
"1050 747 CURVE SMOOTH",
"1050 927 OFFCURVE",
"905 1073 OFFCURVE",
"693 1073 CURVE SMOOTH",
"343 1073 OFFCURVE",
"141 760 OFFCURVE",
"141 387 CURVE SMOOTH",
"141 145 OFFCURVE",
"254 -17 OFFCURVE",
"480 -17 CURVE SMOOTH"
);
},
{
closed = 1;
nodes = (
"899 0 LINE",
"1232 1563 LINE",
"1202 1563 LINE",
"869 0 LINE"
);
}
);
width = 1202;
},
{
anchors = (
{
name = bottom;
position = "{613, 0}";
},
{
name = center;
position = "{1189, 1296}";
},
{
name = top;
position = "{849, 1569}";
},
{
name = topright;
position = "{1302, 1062}";
}
);
layerId = "BEF1FBB1-ACEC-4AC1-9895-C09886024D55";
paths = (
{
closed = 1;
nodes = (
"747 -20 OFFCURVE",
"1000 187 OFFCURVE",
"1058 459 CURVE",
"926 462 LINE",
"888 282 OFFCURVE",
"710 141 OFFCURVE",
"533 141 CURVE SMOOTH",
"375 141 OFFCURVE",
"277 231 OFFCURVE",
"277 416 CURVE SMOOTH",
"277 686 OFFCURVE",
"430 922 OFFCURVE",
"699 922 CURVE SMOOTH",
"849 922 OFFCURVE",
"964 816 OFFCURVE",
"964 672 CURVE SMOOTH",
"964 653 OFFCURVE",
"960 619 OFFCURVE",
"955 599 CURVE",
"1068 604 LINE",
"1076 636 OFFCURVE",
"1082 682 OFFCURVE",
"1082 714 CURVE SMOOTH",
"1082 933 OFFCURVE",
"913 1078 OFFCURVE",
"698 1078 CURVE SMOOTH",
"348 1078 OFFCURVE",
"102 767 OFFCURVE",
"102 400 CURVE SMOOTH",
"102 127 OFFCURVE",
"257 -20 OFFCURVE",
"485 -20 CURVE SMOOTH"
);
},
{
closed = 1;
nodes = (
"998 0 LINE",
"1330 1563 LINE",
"1159 1563 LINE",
"827 0 LINE"
);
}
);
width = 1258;
}
);
leftKerningGroup = o;
leftMetricsKey = o;
note = d;
rightKerningGroup = l;
unicode = 0064;
},
{
glyphname = eth;
lastChange = "2020-06-22 23:49:58 +0000";
layers = (
{
layerId = "3FDD6C00-F7FD-4E85-84B0-0136AF7D7529";
paths = (
{
closed = 1;
nodes = (
"629 1103 LINE",
"1017 1468 LINE",
"802 1591 LINE",
"412 1222 LINE"
);
},
{
closed = 1;
nodes = (
"1268 627 LINE",
"1268 1192 OFFCURVE",
"938 1475 OFFCURVE",
"501 1576 CURVE",
"332 1394 LINE",
"672 1306 OFFCURVE",
"874 1172 OFFCURVE",
"874 643 CURVE"
);
},
{
closed = 1;
nodes = (
"957 -26 OFFCURVE",
"1268 241 OFFCURVE",
"1268 627 CURVE SMOOTH",
"1268 901 OFFCURVE",
"1062 1084 OFFCURVE",
"740 1084 CURVE SMOOTH",
"350 1084 OFFCURVE",
"40 819 OFFCURVE",
"40 433 CURVE SMOOTH",
"40 159 OFFCURVE",
"246 -26 OFFCURVE",
"568 -26 CURVE SMOOTH"
);
},
{
closed = 1;
nodes = (
"497 280 OFFCURVE",
"448 349 OFFCURVE",
"448 462 CURVE SMOOTH",
"448 634 OFFCURVE",
"547 778 OFFCURVE",
"707 778 CURVE SMOOTH",
"810 778 OFFCURVE",
"861 710 OFFCURVE",
"861 599 CURVE SMOOTH",
"861 428 OFFCURVE",
"760 280 OFFCURVE",
"601 280 CURVE SMOOTH"
);
}
);
width = 1364;
},
{
layerId = "2503C51C-5A6C-4B2C-A968-78FEA18C2585";
paths = (
{
closed = 1;
nodes = (
"846 1339 LINE",
"1067 1509 LINE",
"1040 1530 LINE",
"819 1360 LINE"
);
},
{
closed = 1;
nodes = (
"1167 657 LINE",
"1167 1154 OFFCURVE",
"993 1479 OFFCURVE",
"747 1554 CURVE",
"724 1531 LINE",
"969 1456 OFFCURVE",
"1136 1133 OFFCURVE",
"1136 651 CURVE"
);
},
{
closed = 1;
nodes = (
"887 -17 OFFCURVE",
"1167 262 OFFCURVE",
"1167 657 CURVE SMOOTH",
"1167 893 OFFCURVE",
"1021 1075 OFFCURVE",
"763 1075 CURVE SMOOTH",
"407 1075 OFFCURVE",
"140 777 OFFCURVE",
"140 406 CURVE SMOOTH",
"140 154 OFFCURVE",
"289 -17 OFFCURVE",
"543 -17 CURVE SMOOTH"
);
},
{
closed = 1;
nodes = (
"303 11 OFFCURVE",
"172 176 OFFCURVE",
"172 412 CURVE SMOOTH",
"172 760 OFFCURVE",
"426 1047 OFFCURVE",
"763 1047 CURVE SMOOTH",
"1003 1047 OFFCURVE",
"1135 879 OFFCURVE",
"1135 652 CURVE SMOOTH",
"1135 274 OFFCURVE",
"865 11 OFFCURVE",
"543 11 CURVE SMOOTH"
);
}
);
width = 1347;
},
{
layerId = "BEF1FBB1-ACEC-4AC1-9895-C09886024D55";
paths = (
{
closed = 1;
nodes = (
"757 1221 LINE",
"1090 1484 LINE",
"953 1553 LINE",
"618 1288 LINE"
);
},
{
closed = 1;
nodes = (
"1207 646 LINE",
"1207 1168 OFFCURVE",
"974 1478 OFFCURVE",
"657 1562 CURVE",
"549 1460 LINE",
"830 1380 OFFCURVE",
"1040 1148 OFFCURVE",
"1040 648 CURVE"
);
},
{
closed = 1;
nodes = (
"915 -20 OFFCURVE",
"1207 254 OFFCURVE",
"1207 646 CURVE SMOOTH",
"1207 896 OFFCURVE",
"1038 1078 OFFCURVE",
"756 1078 CURVE SMOOTH",
"388 1078 OFFCURVE",
"104 793 OFFCURVE",
"104 416 CURVE SMOOTH",
"104 156 OFFCURVE",
"275 -20 OFFCURVE",
"554 -20 CURVE SMOOTH"
);
},
{
closed = 1;
nodes = (
"378 132 OFFCURVE",
"277 241 OFFCURVE",
"277 431 CURVE SMOOTH",
"277 713 OFFCURVE",
"473 926 OFFCURVE",
"744 926 CURVE SMOOTH",
"933 926 OFFCURVE",
"1034 816 OFFCURVE",
"1034 632 CURVE SMOOTH",
"1034 332 OFFCURVE",
"828 132 OFFCURVE",
"567 132 CURVE SMOOTH"
);
}
);
width = 1346;
}
);
leftKerningGroup = o;
leftMetricsKey = o;
rightKerningGroup = d;
rightMetricsKey = d;
unicode = 00F0;
},
{
glyphname = dcroat;
lastChange = "2020-06-22 23:49:58 +0000";
layers = (
{
components = (
{
name = d;
}
);
layerId = "3FDD6C00-F7FD-4E85-84B0-0136AF7D7529";
paths = (
{
closed = 1;
nodes = (
"1517 1220 LINE",
"1555 1399 LINE",
"654 1399 LINE",
"616 1220 LINE"
);
}
);
width = 1353;
},
{
components = (
{
name = d;
}
);
layerId = "2503C51C-5A6C-4B2C-A968-78FEA18C2585";
paths = (
{
closed = 1;
nodes = (
"1305 1362 LINE",
"1311 1388 LINE",
"823 1388 LINE",
"817 1362 LINE"
);
}
);
width = 1198;
},
{
components = (
{
alignment = -1;
name = d;
}
);
layerId = "BEF1FBB1-ACEC-4AC1-9895-C09886024D55";
paths = (
{
closed = 1;
nodes = (
"1373 1275 LINE",
"1401 1405 LINE",
"759 1405 LINE",
"731 1275 LINE"
);
}
);
width = 1252;
}
);
leftKerningGroup = o;
leftMetricsKey = o;
rightKerningGroup = l;
unicode = 0111;
},
{
glyphname = e;
lastChange = "2020-06-22 23:49:58 +0000";
layers = (
{
anchors = (
{
name = bottom;
position = "{554, 0}";
},
{
name = ogonek;
position = "{876, 25}";
},
{
name = top;
position = "{753, 1062}";
}
);
layerId = "3FDD6C00-F7FD-4E85-84B0-0136AF7D7529";
paths = (
{
closed = 1;
nodes = (
"1236 421 LINE",
"1257 480 OFFCURVE",
"1270 568 OFFCURVE",
"1270 632 CURVE SMOOTH",
"1270 913 OFFCURVE",
"1071 1084 OFFCURVE",
"742 1084 CURVE SMOOTH",
"349 1084 OFFCURVE",
"40 819 OFFCURVE",
"40 437 CURVE SMOOTH",
"40 166 OFFCURVE",
"232 -26 OFFCURVE",
"566 -26 CURVE SMOOTH",
"937 -26 OFFCURVE",
"1148 148 OFFCURVE",
"1208 336 CURVE",
"810 336 LINE",
"798 303 OFFCURVE",
"737 262 OFFCURVE",
"608 262 CURVE SMOOTH",
"468 262 OFFCURVE",
"426 326 OFFCURVE",
"426 432 CURVE SMOOTH",
"426 639 OFFCURVE",
"521 800 OFFCURVE",
"717 800 CURVE SMOOTH",
"842 800 OFFCURVE",
"885 734 OFFCURVE",
"885 672 CURVE SMOOTH",
"885 657 OFFCURVE",
"881 636 OFFCURVE",
"875 609 CURVE",
"914 661 LINE",
"288 661 LINE",
"239 421 LINE"
);
}
);
width = 1308;
},
{
anchors = (
{
name = bottom;
position = "{540, 0}";
},
{
name = ogonek;
position = "{745, 23}";
},
{
name = top;
position = "{763, 1062}";
}
);
layerId = "2503C51C-5A6C-4B2C-A968-78FEA18C2585";
paths = (
{
closed = 1;
nodes = (
"1120 512 LINE",
"1132 564 OFFCURVE",
"1138 613 OFFCURVE",
"1138 664 CURVE SMOOTH",
"1138 894 OFFCURVE",
"1009 1075 OFFCURVE",
"762 1075 CURVE SMOOTH",
"415 1075 OFFCURVE",
"140 771 OFFCURVE",
"140 410 CURVE SMOOTH",
"140 163 OFFCURVE",
"280 -17 OFFCURVE",
"537 -17 CURVE SMOOTH",
"836 -17 OFFCURVE",
"1027 202 OFFCURVE",
"1066 332 CURVE",
"1035 332 LINE",
"999 220 OFFCURVE",
"820 11 OFFCURVE",
"539 11 CURVE SMOOTH",
"288 11 OFFCURVE",
"171 190 OFFCURVE",
"171 416 CURVE SMOOTH",
"171 752 OFFCURVE",
"433 1047 OFFCURVE",
"760 1047 CURVE SMOOTH",
"994 1047 OFFCURVE",
"1107 869 OFFCURVE",
"1107 661 CURVE SMOOTH",
"1107 632 OFFCURVE",
"1101 562 OFFCURVE",
"1094 534 CURVE",
"1109 540 LINE",
"171 540 LINE",
"164 512 LINE"
);
}
);
width = 1274;
},
{
anchors = (
{
name = bottom;
position = "{550, 0}";
},
{
name = ogonek;
position = "{788, 19}";
},
{
name = top;
position = "{759, 1062}";
}
);
layerId = "BEF1FBB1-ACEC-4AC1-9895-C09886024D55";
paths = (
{
closed = 1;
nodes = (
"1165 463 LINE",
"1180 508 OFFCURVE",
"1194 596 OFFCURVE",
"1194 653 CURVE SMOOTH",
"1194 895 OFFCURVE",
"1036 1078 OFFCURVE",
"759 1078 CURVE SMOOTH",
"395 1078 OFFCURVE",
"104 794 OFFCURVE",
"104 421 CURVE SMOOTH",
"104 156 OFFCURVE",
"269 -21 OFFCURVE",
"551 -21 CURVE SMOOTH",
"874 -21 OFFCURVE",
"1086 164 OFFCURVE",
"1124 334 CURVE",
"952 334 LINE",
"922 241 OFFCURVE",
"811 135 OFFCURVE",
"576 135 CURVE SMOOTH",
"367 135 OFFCURVE",
"268 243 OFFCURVE",
"268 424 CURVE SMOOTH",
"268 709 OFFCURVE",
"455 924 OFFCURVE",
"742 924 CURVE SMOOTH",
"940 924 OFFCURVE",
"1030 814 OFFCURVE",
"1030 670 CURVE SMOOTH",
"1030 617 OFFCURVE",
"1025 593 OFFCURVE",
"1017 565 CURVE",
"1047 615 LINE",
"226 615 LINE",
"194 463 LINE"
);
}
);
width = 1295;
}
);
leftKerningGroup = o;
leftMetricsKey = o;
note = e;
rightKerningGroup = o;
rightMetricsKey = o;
unicode = 0065;
},
{
glyphname = ecedilla;
lastChange = "2020-06-22 01:19:25 +0000";
layers = (
{
components = (
{
name = e;
}
);
layerId = "2503C51C-5A6C-4B2C-A968-78FEA18C2585";
paths = (
{
closed = 1;
nodes = (
"521 -143 OFFCURVE",
"475 -160 OFFCURVE",
"460 -185 CURVE",
"460 -195 LINE",
"551 0 LINE",
"521 0 LINE",
"428 -199 LINE",
"455 -212 LINE",
"479 -188 OFFCURVE",
"526 -171 OFFCURVE",
"562 -171 CURVE SMOOTH",
"612 -171 OFFCURVE",
"644 -194 OFFCURVE",
"644 -249 CURVE SMOOTH",
"644 -348 OFFCURVE",
"561 -406 OFFCURVE",
"468 -406 CURVE SMOOTH",
"403 -406 OFFCURVE",
"370 -387 OFFCURVE",
"360 -379 CURVE",
"342 -407 LINE",
"351 -415 OFFCURVE",
"398 -434 OFFCURVE",
"464 -434 CURVE SMOOTH",
"574 -434 OFFCURVE",
"674 -368 OFFCURVE",
"674 -246 CURVE SMOOTH",
"674 -171 OFFCURVE",
"625 -143 OFFCURVE",
"567 -143 CURVE SMOOTH"
);
}
);
width = 1266;
},
{
components = (
{
name = e;
}
);
layerId = "3FDD6C00-F7FD-4E85-84B0-0136AF7D7529";
paths = (
{
closed = 1;
nodes = (
"607 -56 OFFCURVE",
"566 -75 OFFCURVE",
"549 -107 CURVE",
"559 -107 LINE",
"632 0 LINE",
"466 0 LINE",
"372 -143 LINE",
"512 -182 LINE",
"529 -160 OFFCURVE",
"565 -150 OFFCURVE",
"596 -150 CURVE SMOOTH",
"624 -150 OFFCURVE",
"647 -162 OFFCURVE",
"647 -190 CURVE SMOOTH",
"647 -240 OFFCURVE",
"589 -265 OFFCURVE",
"514 -265 CURVE SMOOTH",
"443 -265 OFFCURVE",
"364 -230 OFFCURVE",
"337 -212 CURVE",
"241 -353 LINE",
"280 -382 OFFCURVE",
"401 -410 OFFCURVE",
"490 -410 CURVE SMOOTH",
"656 -410 OFFCURVE",
"818 -336 OFFCURVE",
"818 -182 CURVE SMOOTH",
"818 -89 OFFCURVE",
"738 -56 OFFCURVE",
"672 -56 CURVE SMOOTH"
);
}
);
width = 1288;
},
{
components = (
{
name = e;
}
);
layerId = "BEF1FBB1-ACEC-4AC1-9895-C09886024D55";
paths = (
{
closed = 1;
nodes = (
"564 -100 OFFCURVE",
"500 -128 OFFCURVE",
"484 -156 CURVE",
"512 -162 LINE",
"596 0 LINE",
"507 0 LINE",
"414 -178 LINE",
"487 -201 LINE",
"508 -178 OFFCURVE",
"551 -163 OFFCURVE",
"585 -163 CURVE SMOOTH",
"627 -163 OFFCURVE",
"656 -182 OFFCURVE",
"656 -227 CURVE SMOOTH",
"656 -308 OFFCURVE",
"582 -353 OFFCURVE",
"496 -353 CURVE SMOOTH",
"429 -353 OFFCURVE",
"378 -328 OFFCURVE",
"362 -316 CURVE",
"315 -387 LINE",
"335 -403 OFFCURVE",
"410 -425 OFFCURVE",
"484 -425 CURVE SMOOTH",
"615 -425 OFFCURVE",
"739 -356 OFFCURVE",
"739 -222 CURVE SMOOTH",
"739 -140 OFFCURVE",
"678 -100 OFFCURVE",
"617 -100 CURVE SMOOTH"
);
}
);
width = 1295;
}
);
unicode = 0229;
},
{
glyphname = eogonek;
lastChange = "2020-06-22 23:49:58 +0000";
layers = (
{
components = (
{
name = e;
}
);
layerId = "3FDD6C00-F7FD-4E85-84B0-0136AF7D7529";
paths = (
{
closed = 1;
nodes = (
"816 -248 OFFCURVE",
"789 -251 OFFCURVE",
"765 -251 CURVE SMOOTH",
"717 -251 OFFCURVE",
"678 -242 OFFCURVE",
"678 -197 CURVE SMOOTH",
"678 -136 OFFCURVE",
"812 -15 OFFCURVE",
"866 25 CURVE",
"678 25 LINE",
"594 -27 OFFCURVE",
"460 -159 OFFCURVE",
"460 -273 CURVE SMOOTH",
"460 -389 OFFCURVE",
"580 -437 OFFCURVE",
"724 -437 CURVE SMOOTH",
"758 -437 OFFCURVE",
"790 -435 OFFCURVE",
"818 -432 CURVE",
"838 -245 LINE"
);
}
);
width = 1308;
},
{
components = (
{
name = e;
}
);
layerId = "2503C51C-5A6C-4B2C-A968-78FEA18C2585";
paths = (
{
closed = 1;
nodes = (
"680 -338 OFFCURVE",
"642 -342 OFFCURVE",
"614 -342 CURVE SMOOTH",
"552 -342 OFFCURVE",
"517 -313 OFFCURVE",
"517 -256 CURVE SMOOTH",
"517 -160 OFFCURVE",
"650 -51 OFFCURVE",
"741 23 CURVE",
"713 23 LINE",
"610 -49 OFFCURVE",
"481 -153 OFFCURVE",
"481 -262 CURVE SMOOTH",
"481 -340 OFFCURVE",
"535 -373 OFFCURVE",
"607 -373 CURVE SMOOTH",
"638 -373 OFFCURVE",
"676 -369 OFFCURVE",
"700 -364 CURVE",
"703 -333 LINE"
);
}
);
width = 1274;
},
{
components = (
{
name = e;
}
);
layerId = "BEF1FBB1-ACEC-4AC1-9895-C09886024D55";
paths = (
{
closed = 1;
nodes = (
"729 -320 OFFCURVE",
"696 -324 OFFCURVE",
"670 -324 CURVE SMOOTH",
"609 -324 OFFCURVE",
"576 -303 OFFCURVE",
"576 -250 CURVE SMOOTH",
"576 -169 OFFCURVE",
"709 -45 OFFCURVE",
"788 19 CURVE",
"690 19 LINE",
"600 -44 OFFCURVE",
"472 -154 OFFCURVE",
"472 -262 CURVE SMOOTH",
"472 -360 OFFCURVE",
"543 -413 OFFCURVE",
"649 -413 CURVE SMOOTH",
"681 -413 OFFCURVE",
"717 -410 OFFCURVE",
"743 -406 CURVE",
"752 -316 LINE"
);
}
);
width = 1295;
}
);
leftKerningGroup = o;
leftMetricsKey = e;
rightKerningGroup = e;
rightMetricsKey = e;
unicode = 0119;
},
{
glyphname = schwa;
lastChange = "2020-06-22 23:49:58 +0000";
layers = (
{
layerId = "2503C51C-5A6C-4B2C-A968-78FEA18C2585";
paths = (
{
closed = 1;
nodes = (
"858 -17 OFFCURVE",
"1133 287 OFFCURVE",
"1133 648 CURVE SMOOTH",
"1133 895 OFFCURVE",
"993 1075 OFFCURVE",
"736 1075 CURVE SMOOTH",
"437 1075 OFFCURVE",
"246 856 OFFCURVE",
"207 726 CURVE",
"238 726 LINE",
"274 838 OFFCURVE",
"453 1047 OFFCURVE",
"734 1047 CURVE SMOOTH",
"985 1047 OFFCURVE",
"1102 868 OFFCURVE",
"1102 642 CURVE SMOOTH",
"1102 306 OFFCURVE",
"840 11 OFFCURVE",
"513 11 CURVE SMOOTH",
"279 11 OFFCURVE",
"166 189 OFFCURVE",
"166 397 CURVE SMOOTH",
"166 426 OFFCURVE",
"172 492 OFFCURVE",
"179 520 CURVE",
"164 516 LINE",
"1102 516 LINE",
"1109 546 LINE",
"153 546 LINE",
"141 494 OFFCURVE",
"135 445 OFFCURVE",
"135 394 CURVE SMOOTH",
"135 164 OFFCURVE",
"264 -17 OFFCURVE",
"511 -17 CURVE SMOOTH"
);
}
);
width = 1274;
},
{
layerId = "3FDD6C00-F7FD-4E85-84B0-0136AF7D7529";
paths = (
{
closed = 1;
nodes = (
"960 -21 OFFCURVE",
"1266 244 OFFCURVE",
"1266 635 CURVE SMOOTH",
"1266 904 OFFCURVE",
"1094 1087 OFFCURVE",
"751 1087 CURVE SMOOTH",
"380 1087 OFFCURVE",
"161 914 OFFCURVE",
"101 726 CURVE",
"499 726 LINE",
"520 767 OFFCURVE",
"592 800 OFFCURVE",
"691 800 CURVE SMOOTH",
"841 800 OFFCURVE",
"881 747 OFFCURVE",
"881 647 CURVE SMOOTH",
"881 439 OFFCURVE",
"785 262 OFFCURVE",
"592 262 CURVE SMOOTH",
"472 262 OFFCURVE",
"424 330 OFFCURVE",
"424 393 CURVE SMOOTH",
"424 403 OFFCURVE",
"429 433 OFFCURVE",
"433 453 CURVE",
"393 401 LINE",
"939 401 LINE",
"990 641 LINE",
"73 641 LINE",
"53 585 OFFCURVE",
"36 487 OFFCURVE",
"36 421 CURVE SMOOTH",
"36 148 OFFCURVE",
"242 -21 OFFCURVE",
"559 -21 CURVE SMOOTH"
);
}
);
width = 1305;
},
{
layerId = "BEF1FBB1-ACEC-4AC1-9895-C09886024D55";
paths = (
{
closed = 1;
nodes = (
"901 -21 OFFCURVE",
"1189 257 OFFCURVE",
"1189 634 CURVE SMOOTH",
"1189 900 OFFCURVE",
"1023 1078 OFFCURVE",
"740 1078 CURVE SMOOTH",
"417 1078 OFFCURVE",
"219 893 OFFCURVE",
"169 723 CURVE",
"339 723 LINE",
"369 816 OFFCURVE",
"482 922 OFFCURVE",
"717 922 CURVE SMOOTH",
"926 922 OFFCURVE",
"1025 821 OFFCURVE",
"1025 636 CURVE SMOOTH",
"1025 340 OFFCURVE",
"851 133 OFFCURVE",
"551 133 CURVE SMOOTH",
"356 133 OFFCURVE",
"272 240 OFFCURVE",
"272 381 CURVE SMOOTH",
"272 437 OFFCURVE",
"276 455 OFFCURVE",
"286 492 CURVE",
"246 442 LINE",
"1067 442 LINE",
"1099 594 LINE",
"128 594 LINE",
"112 546 OFFCURVE",
"99 458 OFFCURVE",
"99 397 CURVE SMOOTH",
"99 150 OFFCURVE",
"253 -21 OFFCURVE",
"532 -21 CURVE SMOOTH"
);
}
);
width = 1296;
}
);
leftKerningGroup = o;
leftMetricsKey = e;
rightKerningGroup = o;
rightMetricsKey = e;
unicode = 0259;
},
{
glyphname = f;
lastChange = "2020-06-22 23:51:06 +0000";
layers = (
{
anchors = (
{
name = bottom;
position = "{318, 0}";
},
{
name = top;
position = "{680, 1563}";
}
);
layerId = "3FDD6C00-F7FD-4E85-84B0-0136AF7D7529";
paths = (
{
closed = 1;
nodes = (
"518 0 LINE",
"680 762 LINE",
"949 762 LINE",
"1013 1062 LINE",
"744 1062 LINE",
"750 1089 LINE SMOOTH",
"776 1204 OFFCURVE",
"834 1267 OFFCURVE",
"971 1267 CURVE SMOOTH",
"1020 1267 OFFCURVE",
"1066 1257 OFFCURVE",
"1081 1252 CURVE",
"1148 1557 LINE",
"1131 1563 OFFCURVE",
"1062 1577 OFFCURVE",
"988 1577 CURVE SMOOTH",
"775 1577 OFFCURVE",
"445 1518 OFFCURVE",
"349 1093 CURVE SMOOTH",
"342 1062 LINE",
"128 1062 LINE",
"64 762 LINE",
"278 762 LINE",
"116 0 LINE"
);
}
);
width = 930;
},
{
anchors = (
{
name = bottom;
position = "{191, 0}";
},
{
name = top;
position = "{603, 1563}";
}
);
layerId = "2503C51C-5A6C-4B2C-A968-78FEA18C2585";
paths = (
{
closed = 1;
nodes = (
"208 0 LINE",
"429 1034 LINE",
"747 1034 LINE",
"753 1062 LINE",
"434 1062 LINE",
"470 1230 LINE SMOOTH",
"504 1389 OFFCURVE",
"580 1550 OFFCURVE",
"770 1550 CURVE SMOOTH",
"808 1550 OFFCURVE",
"842 1542 OFFCURVE",
"858 1536 CURVE",
"863 1564 LINE",
"850 1570 OFFCURVE",
"817 1578 OFFCURVE",
"775 1578 CURVE SMOOTH",
"556 1578 OFFCURVE",
"476 1403 OFFCURVE",
"439 1230 CURVE SMOOTH",
"403 1062 LINE",
"164 1062 LINE",
"159 1034 LINE",
"397 1034 LINE",
"177 0 LINE"
);
}
);
width = 717;
},
{
anchors = (
{
name = bottom;
position = "{256, 0}";
},
{
name = top;
position = "{649, 1563}";
}
);
layerId = "BEF1FBB1-ACEC-4AC1-9895-C09886024D55";
paths = (
{
closed = 1;
nodes = (
"342 0 LINE",
"536 912 LINE",
"846 912 LINE",
"878 1062 LINE",
"568 1062 LINE",
"591 1168 LINE SMOOTH",
"620 1301 OFFCURVE",
"679 1425 OFFCURVE",
"861 1425 CURVE SMOOTH",
"904 1425 OFFCURVE",
"943 1416 OFFCURVE",
"958 1411 CURVE",
"990 1561 LINE",
"977 1567 OFFCURVE",
"942 1578 OFFCURVE",
"877 1578 CURVE SMOOTH",
"650 1578 OFFCURVE",
"477 1437 OFFCURVE",
"427 1199 CURVE SMOOTH",
"398 1062 LINE",
"166 1062 LINE",
"134 912 LINE",
"366 912 LINE",
"172 0 LINE"
);
}
);
width = 813;
}
);
leftKerningGroup = f;
leftMetricsKey = t;
note = f;
rightKerningGroup = f;
unicode = 0066;
},
{
glyphname = g;
lastChange = "2020-06-22 23:49:58 +0000";
layers = (
{
anchors = (
{
name = bottom;
position = "{465, -467}";
},
{
name = top;
position = "{742, 1062}";
}
);
layerId = "3FDD6C00-F7FD-4E85-84B0-0136AF7D7529";
paths = (
{
closed = 1;
nodes = (
"790 -457 OFFCURVE",
"1084 -359 OFFCURVE",
"1160 0 CURVE SMOOTH",
"1385 1062 LINE",
"982 1062 LINE",
"757 0 LINE SMOOTH",
"733 -115 OFFCURVE",
"654 -180 OFFCURVE",
"520 -180 CURVE SMOOTH",
"415 -180 OFFCURVE",
"369 -139 OFFCURVE",
"369 -96 CURVE SMOOTH",
"369 -86 OFFCURVE",
"371 -76 OFFCURVE",
"372 -71 CURVE",
"-31 -71 LINE",
"-36 -94 OFFCURVE",
"-41 -122 OFFCURVE",
"-41 -157 CURVE SMOOTH",
"-41 -370 OFFCURVE",
"248 -457 OFFCURVE",
"491 -457 CURVE SMOOTH"
);
},
{
closed = 1;
nodes = (
"703 -26 OFFCURVE",
"937 179 OFFCURVE",
"1004 494 CURVE",
"867 513 LINE",
"839 380 OFFCURVE",
"734 313 OFFCURVE",
"628 313 CURVE SMOOTH",
"535 313 OFFCURVE",
"470 378 OFFCURVE",
"470 498 CURVE SMOOTH",
"470 653 OFFCURVE",
"579 756 OFFCURVE",
"713 756 CURVE SMOOTH",
"796 756 OFFCURVE",
"881 707 OFFCURVE",
"881 605 CURVE SMOOTH",
"881 587 OFFCURVE",
"878 567 OFFCURVE",
"874 549 CURVE",
"1017 557 LINE",
"1027 595 OFFCURVE",
"1034 652 OFFCURVE",
"1034 690 CURVE SMOOTH",
"1034 928 OFFCURVE",
"855 1084 OFFCURVE",
"641 1084 CURVE SMOOTH",
"291 1084 OFFCURVE",
"41 795 OFFCURVE",
"41 434 CURVE SMOOTH",
"41 135 OFFCURVE",
"213 -26 OFFCURVE",
"458 -26 CURVE SMOOTH"
);
}
);
width = 1363;
},
{
anchors = (
{
name = bottom;
position = "{450, -467}";
},
{
name = top;
position = "{775, 1062}";
}
);
layerId = "2503C51C-5A6C-4B2C-A968-78FEA18C2585";
paths = (
{
closed = 1;
nodes = (
"687 -447 OFFCURVE",
"899 -340 OFFCURVE",
"971 0 CURVE SMOOTH",
"1197 1062 LINE",
"1166 1062 LINE",
"940 0 LINE SMOOTH",
"872 -318 OFFCURVE",
"675 -419 OFFCURVE",
"448 -419 CURVE SMOOTH",
"265 -419 OFFCURVE",
"83 -332 OFFCURVE",
"83 -172 CURVE SMOOTH",
"83 -148 OFFCURVE",
"87 -125 OFFCURVE",
"96 -97 CURVE",
"64 -97 LINE",
"56 -122 OFFCURVE",
"50 -150 OFFCURVE",
"50 -179 CURVE SMOOTH",
"50 -359 OFFCURVE",
"257 -447 OFFCURVE",
"448 -447 CURVE SMOOTH"
);
},
{
closed = 1;
nodes = (
"794 -17 OFFCURVE",
"1006 166 OFFCURVE",
"1052 383 CURVE",
"1023 383 LINE",
"981 186 OFFCURVE",
"777 11 OFFCURVE",
"538 11 CURVE SMOOTH",
"329 11 OFFCURVE",
"170 156 OFFCURVE",
"170 408 CURVE SMOOTH",
"170 748 OFFCURVE",
"427 1047 OFFCURVE",
"758 1047 CURVE SMOOTH",
"967 1047 OFFCURVE",
"1093 913 OFFCURVE",
"1093 748 CURVE SMOOTH",
"1093 722 OFFCURVE",
"1087 676 OFFCURVE",
"1080 655 CURVE",
"1108 655 LINE",
"1114 674 OFFCURVE",
"1121 724 OFFCURVE",
"1121 754 CURVE SMOOTH",
"1121 934 OFFCURVE",
"982 1075 OFFCURVE",
"758 1075 CURVE SMOOTH",
"408 1075 OFFCURVE",
"139 767 OFFCURVE",
"139 403 CURVE SMOOTH",
"139 130 OFFCURVE",
"313 -17 OFFCURVE",
"538 -17 CURVE SMOOTH"
);
}
);
width = 1279;
},
{
anchors = (
{
name = bottom;
position = "{452, -467}";
},
{
name = top;
position = "{759, 1062}";
}
);
layerId = "BEF1FBB1-ACEC-4AC1-9895-C09886024D55";
paths = (
{
closed = 1;
nodes = (
"727 -451 OFFCURVE",
"968 -329 OFFCURVE",
"1044 30 CURVE SMOOTH",
"1263 1062 LINE",
"1092 1062 LINE",
"873 30 LINE SMOOTH",
"817 -232 OFFCURVE",
"652 -309 OFFCURVE",
"472 -309 CURVE SMOOTH",
"315 -309 OFFCURVE",
"180 -257 OFFCURVE",
"180 -135 CURVE SMOOTH",
"180 -121 OFFCURVE",
"182 -109 OFFCURVE",
"186 -87 CURVE",
"16 -87 LINE",
"10 -115 OFFCURVE",
"7 -136 OFFCURVE",
"7 -162 CURVE SMOOTH",
"7 -370 OFFCURVE",
"251 -451 OFFCURVE",
"463 -451 CURVE SMOOTH"
);
},
{
closed = 1;
nodes = (
"786 -20 OFFCURVE",
"1015 137 OFFCURVE",
"1084 461 CURVE",
"967 468 LINE",
"922 255 OFFCURVE",
"742 134 OFFCURVE",
"569 134 CURVE SMOOTH",
"407 134 OFFCURVE",
"283 220 OFFCURVE",
"283 425 CURVE SMOOTH",
"283 706 OFFCURVE",
"450 924 OFFCURVE",
"737 924 CURVE SMOOTH",
"886 924 OFFCURVE",
"1003 838 OFFCURVE",
"1003 677 CURVE SMOOTH",
"1003 653 OFFCURVE",
"998 607 OFFCURVE",
"992 585 CURVE",
"1101 585 LINE",
"1110 622 OFFCURVE",
"1118 686 OFFCURVE",
"1118 725 CURVE SMOOTH",
"1118 960 OFFCURVE",
"954 1078 OFFCURVE",
"740 1078 CURVE SMOOTH",
"375 1078 OFFCURVE",
"104 789 OFFCURVE",
"104 414 CURVE SMOOTH",
"104 116 OFFCURVE",
"305 -20 OFFCURVE",
"537 -20 CURVE SMOOTH"
);
}
);
width = 1287;
}
);
leftKerningGroup = o;
leftMetricsKey = a;
rightKerningGroup = n;
rightMetricsKey = u;
unicode = 0067;
},
{
color = 3;
glyphname = g.ss01;
lastChange = "2020-06-22 01:19:25 +0000";
layers = (
{
anchors = (
{
name = bottom;
position = "{387, -437}";
},
{
name = top;
position = "{699, 1062}";
}
);
layerId = "3FDD6C00-F7FD-4E85-84B0-0136AF7D7529";
paths = (
{
closed = 1;
nodes = (
"427 208 LINE SMOOTH",
"344 218 OFFCURVE",
"315 237 OFFCURVE",
"315 263 CURVE SMOOTH",
"315 292 OFFCURVE",
"350 319 OFFCURVE",
"377 323 CURVE",
"222 416 LINE",
"162 398 OFFCURVE",
"-18 307 OFFCURVE",
"-18 157 CURVE SMOOTH",
"-18 51 OFFCURVE",
"84 -12 OFFCURVE",
"233 -30 CURVE SMOOTH",
"623 -76 LINE SMOOTH",
"671 -82 OFFCURVE",
"705 -97 OFFCURVE",
"705 -130 CURVE SMOOTH",
"705 -199 OFFCURVE",
"557 -220 OFFCURVE",
"457 -220 CURVE SMOOTH",
"326 -220 OFFCURVE",
"222 -190 OFFCURVE",
"232 -143 CURVE SMOOTH",
"236 -121 OFFCURVE",
"246 -108 OFFCURVE",
"251 -103 CURVE",
"-99 -51 LINE",
"-133 -91 OFFCURVE",
"-157 -154 OFFCURVE",
"-157 -206 CURVE SMOOTH",
"-157 -363 OFFCURVE",
"46 -463 OFFCURVE",
"397 -463 CURVE SMOOTH",
"746 -463 OFFCURVE",
"1085 -371 OFFCURVE",
"1085 -69 CURVE SMOOTH",
"1085 80 OFFCURVE",
"983 144 OFFCURVE",
"792 166 CURVE SMOOTH"
);
},
{
closed = 1;
nodes = (
"986 820 LINE",
"1043 842 LINE",
"1043 1021 OFFCURVE",
"848 1084 OFFCURVE",
"662 1084 CURVE SMOOTH",
"363 1084 OFFCURVE",
"87 914 OFFCURVE",
"87 614 CURVE SMOOTH",
"87 408 OFFCURVE",
"271 270 OFFCURVE",
"583 270 CURVE SMOOTH",
"904 270 OFFCURVE",
"1051 429 OFFCURVE",
"1181 660 CURVE SMOOTH",
"1408 1062 LINE",
"1059 1062 LINE"
);
},
{
closed = 1;
nodes = (
"540 548 OFFCURVE",
"481 581 OFFCURVE",
"481 645 CURVE SMOOTH",
"481 737 OFFCURVE",
"568 797 OFFCURVE",
"673 797 CURVE SMOOTH",
"754 797 OFFCURVE",
"812 763 OFFCURVE",
"812 699 CURVE SMOOTH",
"812 607 OFFCURVE",
"725 548 OFFCURVE",
"620 548 CURVE SMOOTH"
);
}
);
width = 1290;
},
{
anchors = (
{
name = bottom;
position = "{388, -440}";
},
{
name = top;
position = "{704, 1062}";
}
);
layerId = "2503C51C-5A6C-4B2C-A968-78FEA18C2585";
paths = (
{
closed = 1;
nodes = (
"284 34 LINE SMOOTH",
"167 42 OFFCURVE",
"140 84 OFFCURVE",
"140 134 CURVE SMOOTH",
"140 219 OFFCURVE",
"242 262 OFFCURVE",
"288 271 CURVE",
"260 295 LINE",
"211 286 OFFCURVE",
"109 228 OFFCURVE",
"109 132 CURVE SMOOTH",
"109 60 OFFCURVE",
"164 13 OFFCURVE",
"278 5 CURVE SMOOTH",
"677 -24 LINE SMOOTH",
"796 -33 OFFCURVE",
"880 -69 OFFCURVE",
"880 -156 CURVE SMOOTH",
"880 -333 OFFCURVE",
"631 -419 OFFCURVE",
"380 -419 CURVE SMOOTH",
"108 -419 OFFCURVE",
"-2 -362 OFFCURVE",
"-2 -230 CURVE SMOOTH",
"-2 -156 OFFCURVE",
"43 -92 OFFCURVE",
"61 -71 CURVE",
"34 -64 LINE",
"13 -89 OFFCURVE",
"-33 -153 OFFCURVE",
"-33 -235 CURVE SMOOTH",
"-33 -369 OFFCURVE",
"74 -447 OFFCURVE",
"380 -447 CURVE SMOOTH",
"653 -447 OFFCURVE",
"911 -357 OFFCURVE",
"911 -153 CURVE SMOOTH",
"911 -51 OFFCURVE",
"813 -4 OFFCURVE",
"684 5 CURVE SMOOTH"
);
},
{
closed = 1;
nodes = (
"1036 782 LINE",
"1042 774 LINE",
"1042 896 OFFCURVE",
"949 1075 OFFCURVE",
"694 1075 CURVE SMOOTH",
"410 1075 OFFCURVE",
"171 833 OFFCURVE",
"171 540 CURVE SMOOTH",
"171 357 OFFCURVE",
"265 201 OFFCURVE",
"518 201 CURVE SMOOTH",
"788 201 OFFCURVE",
"984 396 OFFCURVE",
"1035 634 CURVE SMOOTH",
"1126 1062 LINE",
"1095 1062 LINE"
);
},
{
closed = 1;
nodes = (
"286 229 OFFCURVE",
"203 370 OFFCURVE",
"203 544 CURVE SMOOTH",
"203 813 OFFCURVE",
"430 1047 OFFCURVE",
"694 1047 CURVE SMOOTH",
"908 1047 OFFCURVE",
"1016 911 OFFCURVE",
"1016 737 CURVE SMOOTH",
"1016 463 OFFCURVE",
"799 229 OFFCURVE",
"518 229 CURVE SMOOTH"
);
}
);
width = 1187;
},
{
anchors = (
{
name = bottom;
position = "{382, -439}";
},
{
name = top;
position = "{691, 1062}";
}
);
layerId = "BEF1FBB1-ACEC-4AC1-9895-C09886024D55";
paths = (
{
closed = 1;
nodes = (
"374 90 LINE SMOOTH",
"284 98 OFFCURVE",
"256 134 OFFCURVE",
"256 174 CURVE SMOOTH",
"256 237 OFFCURVE",
"338 285 OFFCURVE",
"377 292 CURVE",
"246 353 LINE",
"193 341 OFFCURVE",
"70 246 OFFCURVE",
"70 130 CURVE SMOOTH",
"70 33 OFFCURVE",
"135 -36 OFFCURVE",
"268 -46 CURVE SMOOTH",
"656 -76 LINE SMOOTH",
"750 -83 OFFCURVE",
"823 -92 OFFCURVE",
"823 -159 CURVE SMOOTH",
"823 -260 OFFCURVE",
"698 -314 OFFCURVE",
"427 -314 CURVE SMOOTH",
"222 -314 OFFCURVE",
"106 -282 OFFCURVE",
"106 -194 CURVE SMOOTH",
"106 -163 OFFCURVE",
"125 -110 OFFCURVE",
"150 -83 CURVE",
"-7 -59 LINE",
"-42 -102 OFFCURVE",
"-68 -169 OFFCURVE",
"-68 -224 CURVE SMOOTH",
"-68 -366 OFFCURVE",
"114 -453 OFFCURVE",
"401 -453 CURVE SMOOTH",
"705 -453 OFFCURVE",
"987 -381 OFFCURVE",
"987 -123 CURVE SMOOTH",
"987 -3 OFFCURVE",
"882 48 OFFCURVE",
"733 60 CURVE SMOOTH"
);
},
{
closed = 1;
nodes = (
"1017 796 LINE",
"1062 800 LINE",
"1062 972 OFFCURVE",
"890 1078 OFFCURVE",
"691 1078 CURVE SMOOTH",
"398 1078 OFFCURVE",
"147 873 OFFCURVE",
"147 581 CURVE SMOOTH",
"147 374 OFFCURVE",
"291 227 OFFCURVE",
"564 227 CURVE SMOOTH",
"853 227 OFFCURVE",
"1024 410 OFFCURVE",
"1108 644 CURVE SMOOTH",
"1258 1062 LINE",
"1088 1062 LINE"
);
},
{
closed = 1;
nodes = (
"401 379 OFFCURVE",
"314 456 OFFCURVE",
"314 591 CURVE SMOOTH",
"314 794 OFFCURVE",
"483 926 OFFCURVE",
"689 926 CURVE SMOOTH",
"854 926 OFFCURVE",
"948 847 OFFCURVE",
"948 718 CURVE SMOOTH",
"948 515 OFFCURVE",
"790 379 OFFCURVE",
"572 379 CURVE SMOOTH"
);
}
);
width = 1217;
}
);
leftKerningGroup = g;
note = g;
rightKerningGroup = g;
},
{
glyphname = h;
lastChange = "2020-06-22 16:25:38 +0000";
layers = (
{
anchors = (
{
name = bottom;
position = "{564, 0}";
},
{
name = center;
position = "{456, 1298}";
},
{
name = top;
position = "{524, 1563}";
}
);
layerId = "3FDD6C00-F7FD-4E85-84B0-0136AF7D7529";
paths = (
{
closed = 1;
nodes = (
"1129 0 LINE",
"1235 497 LINE",
"1266 642 OFFCURVE",
"1286 740 OFFCURVE",
"1286 808 CURVE SMOOTH",
"1286 921 OFFCURVE",
"1245 1084 OFFCURVE",
"981 1084 CURVE SMOOTH",
"715 1084 OFFCURVE",
"504 903 OFFCURVE",
"442 612 CURVE",
"502 532 LINE",
"531 670 OFFCURVE",
"597 751 OFFCURVE",
"726 751 CURVE SMOOTH",
"829 751 OFFCURVE",
"852 702 OFFCURVE",
"852 641 CURVE SMOOTH",
"852 605 OFFCURVE",
"833 506 OFFCURVE",
"826 475 CURVE",
"726 0 LINE"
);
},
{
closed = 1;
nodes = (
"390 0 LINE",
"722 1563 LINE",
"319 1563 LINE",
"-13 0 LINE"
);
}
);
width = 1332;
},
{
anchors = (
{
name = bottom;
position = "{513, 0}";
},
{
name = center;
position = "{382, 1295}";
},
{
name = top;
position = "{436, 1546}";
}
);
layerId = "2503C51C-5A6C-4B2C-A968-78FEA18C2585";
paths = (
{
closed = 1;
nodes = (
"894 0 LINE",
"1015 572 LINE",
"1031 648 OFFCURVE",
"1050 740 OFFCURVE",
"1050 812 CURVE SMOOTH",
"1050 893 OFFCURVE",
"1013 1075 OFFCURVE",
"754 1075 CURVE SMOOTH",
"493 1075 OFFCURVE",
"281 887 OFFCURVE",
"241 699 CURVE",
"269 693 LINE",
"307 870 OFFCURVE",
"525 1047 OFFCURVE",
"752 1047 CURVE SMOOTH",
"975 1047 OFFCURVE",
"1018 888 OFFCURVE",
"1018 812 CURVE SMOOTH",
"1018 742 OFFCURVE",
"1001 642 OFFCURVE",
"986 573 CURVE",
"864 0 LINE"
);
},
{
closed = 1;
nodes = (
"122 0 LINE",
"454 1563 LINE",
"424 1563 LINE",
"92 0 LINE"
);
}
);
width = 1202;
},
{
anchors = (
{
name = bottom;
position = "{512, 0}";
},
{
name = center;
position = "{397, 1296}";
},
{
name = top;
position = "{457, 1552}";
}
);
layerId = "BEF1FBB1-ACEC-4AC1-9895-C09886024D55";
paths = (
{
closed = 1;
nodes = (
"969 0 LINE",
"1056 378 LINE SMOOTH",
"1104 587 OFFCURVE",
"1124 691 OFFCURVE",
"1124 781 CURVE SMOOTH",
"1124 969 OFFCURVE",
"997 1078 OFFCURVE",
"788 1078 CURVE SMOOTH",
"525 1078 OFFCURVE",
"281 893 OFFCURVE",
"232 666 CURVE",
"343 633 LINE",
"378 795 OFFCURVE",
"533 916 OFFCURVE",
"723 916 CURVE SMOOTH",
"868 916 OFFCURVE",
"946 855 OFFCURVE",
"946 734 CURVE SMOOTH",
"946 660 OFFCURVE",
"926 556 OFFCURVE",
"889 395 CURVE SMOOTH",
"799 0 LINE"
);
},
{
closed = 1;
nodes = (
"210 0 LINE",
"542 1563 LINE",
"372 1563 LINE",
"40 0 LINE"
);
}
);
width = 1227;
}
);
leftKerningGroup = h;
note = h;
rightKerningGroup = n;
unicode = 0068;
},
{
glyphname = hbar;
lastChange = "2020-06-22 01:19:25 +0000";
layers = (
{
components = (
{
name = h;
}
);
layerId = "3FDD6C00-F7FD-4E85-84B0-0136AF7D7529";
paths = (
{
closed = 1;
nodes = (
"981 1220 LINE",
"1019 1399 LINE",
"153 1399 LINE",
"115 1220 LINE"
);
}
);
width = 1246;
},
{
components = (
{
name = h;
}
);
layerId = "2503C51C-5A6C-4B2C-A968-78FEA18C2585";
paths = (
{
closed = 1;
nodes = (
"730 1362 LINE",
"736 1388 LINE",
"245 1388 LINE",
"240 1362 LINE"
);
}
);
width = 1191;
},
{
components = (
{
alignment = -1;
name = h;
}
);
layerId = "BEF1FBB1-ACEC-4AC1-9895-C09886024D55";
paths = (
{
closed = 1;
nodes = (
"816 1275 LINE",
"844 1405 LINE",
"212 1405 LINE",
"184 1275 LINE"
);
}
);
width = 1208;
}
);
leftKerningGroup = h;
rightKerningGroup = n;
unicode = 0127;
},
{
glyphname = i;
lastChange = "2020-06-22 01:19:25 +0000";
layers = (
{
anchors = (
{
name = bottom;
position = "{168, 0}";
}
);
layerId = "3FDD6C00-F7FD-4E85-84B0-0136AF7D7529";
paths = (
{
closed = 1;
nodes = (
"369 0 LINE",
"594 1062 LINE",
"193 1062 LINE",
"-32 0 LINE"
);
},
{
closed = 1;
nodes = (
"565 1187 OFFCURVE",
"682 1256 OFFCURVE",
"682 1383 CURVE SMOOTH",
"682 1486 OFFCURVE",
"589 1541 OFFCURVE",
"478 1541 CURVE SMOOTH",
"353 1541 OFFCURVE",
"236 1472 OFFCURVE",
"236 1345 CURVE SMOOTH",
"236 1243 OFFCURVE",
"328 1187 OFFCURVE",
"440 1187 CURVE SMOOTH"
);
}
);
width = 564;
},
{
anchors = (
{
name = bottom;
position = "{113, 0}";
}
);
layerId = "2503C51C-5A6C-4B2C-A968-78FEA18C2585";
paths = (
{
closed = 1;
nodes = (
"128 0 LINE",
"353 1062 LINE",
"323 1062 LINE",
"98 0 LINE"
);
},
{
closed = 1;
nodes = (
"444 1377 OFFCURVE",
"467 1400 OFFCURVE",
"467 1429 CURVE SMOOTH",
"467 1457 OFFCURVE",
"444 1480 OFFCURVE",
"416 1480 CURVE SMOOTH",
"387 1480 OFFCURVE",
"364 1457 OFFCURVE",
"364 1429 CURVE SMOOTH",
"364 1400 OFFCURVE",
"387 1377 OFFCURVE",
"416 1377 CURVE SMOOTH"
);
}
);
width = 455;
},
{
anchors = (
{
name = bottom;
position = "{134, 0}";
}
);
layerId = "BEF1FBB1-ACEC-4AC1-9895-C09886024D55";
paths = (
{
closed = 1;
nodes = (
"219 0 LINE",
"444 1062 LINE",
"275 1062 LINE",
"50 0 LINE"
);
},
{
closed = 1;
nodes = (
"492 1306 OFFCURVE",
"550 1346 OFFCURVE",
"550 1412 CURVE SMOOTH",
"550 1468 OFFCURVE",
"501 1503 OFFCURVE",
"442 1503 CURVE SMOOTH",
"377 1503 OFFCURVE",
"319 1463 OFFCURVE",
"319 1398 CURVE SMOOTH",
"319 1341 OFFCURVE",
"368 1306 OFFCURVE",
"428 1306 CURVE SMOOTH"
);
}
);
width = 497;
}
);
leftKerningGroup = i;
note = i;
rightKerningGroup = i;
unicode = 0069;
},
{
glyphname = idotless;
lastChange = "2020-06-22 01:19:25 +0000";
layers = (
{
anchors = (
{
name = bottom;
position = "{161, 0}";
},
{
name = ogonek;
position = "{369, 0}";
},
{
name = top;
position = "{387, 1062}";
}
);
layerId = "3FDD6C00-F7FD-4E85-84B0-0136AF7D7529";
paths = (
{
closed = 1;
nodes = (
"369 0 LINE",
"594 1062 LINE",
"193 1062 LINE",
"-32 0 LINE"
);
}
);
width = 564;
},
{
anchors = (
{
name = bottom;
position = "{112, 0}";
},
{
name = ogonek;
position = "{128, 0}";
},
{
name = top;
position = "{337, 1062}";
}
);
layerId = "2503C51C-5A6C-4B2C-A968-78FEA18C2585";
paths = (
{
closed = 1;
nodes = (
"128 0 LINE",
"353 1062 LINE",
"323 1062 LINE",
"98 0 LINE"
);
}
);
width = 455;
},
{
anchors = (
{
name = bottom;
position = "{131, 0}";
},
{
name = ogonek;
position = "{219, 0}";
},
{
name = top;
position = "{356, 1062}";
}
);
layerId = "BEF1FBB1-ACEC-4AC1-9895-C09886024D55";
paths = (
{
closed = 1;
nodes = (
"219 0 LINE",
"444 1062 LINE",
"275 1062 LINE",
"50 0 LINE"
);
}
);
width = 497;
}
);
leftKerningGroup = i;
rightKerningGroup = i;
unicode = 0131;
},
{
glyphname = j;
lastChange = "2020-06-22 01:19:25 +0000";
layers = (
{
layerId = "3FDD6C00-F7FD-4E85-84B0-0136AF7D7529";
paths = (
{
closed = 1;
nodes = (
"198 -464 OFFCURVE",
"313 -264 OFFCURVE",
"350 -89 CURVE SMOOTH",
"593 1062 LINE",
"191 1062 LINE",
"-52 -81 LINE SMOOTH",
"-60 -121 OFFCURVE",
"-98 -173 OFFCURVE",
"-193 -173 CURVE SMOOTH",
"-235 -173 OFFCURVE",
"-275 -169 OFFCURVE",
"-302 -165 CURVE",
"-364 -460 LINE",
"-337 -462 OFFCURVE",
"-295 -464 OFFCURVE",
"-255 -464 CURVE SMOOTH"
);
},
{
closed = 1;
nodes = (
"549 1187 OFFCURVE",
"666 1256 OFFCURVE",
"666 1383 CURVE SMOOTH",
"666 1486 OFFCURVE",
"573 1541 OFFCURVE",
"462 1541 CURVE SMOOTH",
"337 1541 OFFCURVE",
"220 1472 OFFCURVE",
"220 1345 CURVE SMOOTH",
"220 1243 OFFCURVE",
"312 1187 OFFCURVE",
"424 1187 CURVE SMOOTH"
);
}
);
width = 559;
},
{
layerId = "2503C51C-5A6C-4B2C-A968-78FEA18C2585";
paths = (
{
closed = 1;
nodes = (
"23 -436 OFFCURVE",
"100 -277 OFFCURVE",
"137 -104 CURVE SMOOTH",
"386 1062 LINE",
"355 1062 LINE",
"108 -95 LINE SMOOTH",
"78 -237 OFFCURVE",
"9 -408 OFFCURVE",
"-195 -408 CURVE SMOOTH",
"-233 -408 OFFCURVE",
"-249 -402 OFFCURVE",
"-263 -394 CURVE",
"-276 -420 LINE",
"-265 -427 OFFCURVE",
"-240 -436 OFFCURVE",
"-198 -436 CURVE SMOOTH"
);
},
{
closed = 1;
nodes = (
"477 1377 OFFCURVE",
"500 1400 OFFCURVE",
"500 1429 CURVE SMOOTH",
"500 1457 OFFCURVE",
"477 1480 OFFCURVE",
"449 1480 CURVE SMOOTH",
"420 1480 OFFCURVE",
"397 1457 OFFCURVE",
"397 1429 CURVE SMOOTH",
"397 1400 OFFCURVE",
"420 1377 OFFCURVE",
"449 1377 CURVE SMOOTH"
);
}
);
width = 510;
},
{
layerId = "BEF1FBB1-ACEC-4AC1-9895-C09886024D55";
paths = (
{
closed = 1;
nodes = (
"90 -446 OFFCURVE",
"181 -272 OFFCURVE",
"218 -98 CURVE SMOOTH",
"464 1062 LINE",
"294 1062 LINE",
"48 -89 LINE SMOOTH",
"26 -193 OFFCURVE",
"-30 -319 OFFCURVE",
"-200 -319 CURVE SMOOTH",
"-240 -319 OFFCURVE",
"-265 -314 OFFCURVE",
"-284 -308 CURVE",
"-315 -434 LINE",
"-298 -440 OFFCURVE",
"-267 -446 OFFCURVE",
"-226 -446 CURVE SMOOTH"
);
},
{
closed = 1;
nodes = (
"507 1306 OFFCURVE",
"566 1346 OFFCURVE",
"566 1412 CURVE SMOOTH",
"566 1468 OFFCURVE",
"516 1503 OFFCURVE",
"457 1503 CURVE SMOOTH",
"392 1503 OFFCURVE",
"334 1463 OFFCURVE",
"334 1398 CURVE SMOOTH",
"334 1341 OFFCURVE",
"383 1306 OFFCURVE",
"443 1306 CURVE SMOOTH"
);
}
);
width = 512;
}
);
leftKerningGroup = j;
note = j;
rightKerningGroup = j;
unicode = 006A;
},
{
glyphname = jdotless;
lastChange = "2020-06-22 01:19:25 +0000";
layers = (
{
anchors = (
{
name = bottom;
position = "{41, -437}";
},
{
name = top;
position = "{371, 1062}";
}
);
layerId = "2503C51C-5A6C-4B2C-A968-78FEA18C2585";
paths = (
{
closed = 1;
nodes = (
"23 -436 OFFCURVE",
"100 -277 OFFCURVE",
"137 -104 CURVE SMOOTH",
"385 1061 LINE",
"354 1061 LINE",
"108 -95 LINE SMOOTH",
"78 -237 OFFCURVE",
"9 -408 OFFCURVE",
"-195 -408 CURVE SMOOTH",
"-233 -408 OFFCURVE",
"-249 -402 OFFCURVE",
"-263 -394 CURVE",
"-276 -420 LINE",
"-265 -427 OFFCURVE",
"-240 -436 OFFCURVE",
"-198 -436 CURVE SMOOTH"
);
}
);
width = 510;
},
{
anchors = (
{
name = bottom;
position = "{67, -437}";
},
{
name = top;
position = "{396, 1062}";
}
);
layerId = "3FDD6C00-F7FD-4E85-84B0-0136AF7D7529";
paths = (
{
closed = 1;
nodes = (
"198 -464 OFFCURVE",
"313 -264 OFFCURVE",
"350 -89 CURVE SMOOTH",
"593 1062 LINE",
"191 1062 LINE",
"-52 -81 LINE SMOOTH",
"-60 -121 OFFCURVE",
"-98 -173 OFFCURVE",
"-193 -173 CURVE SMOOTH",
"-235 -173 OFFCURVE",
"-275 -169 OFFCURVE",
"-302 -165 CURVE",
"-364 -460 LINE",
"-337 -462 OFFCURVE",
"-295 -464 OFFCURVE",
"-255 -464 CURVE SMOOTH"
);
}
);
width = 559;
},
{
anchors = (
{
name = bottom;
position = "{49, -437}";
},
{
name = top;
position = "{379, 1062}";
}
);
layerId = "BEF1FBB1-ACEC-4AC1-9895-C09886024D55";
paths = (
{
closed = 1;
nodes = (
"90 -446 OFFCURVE",
"181 -272 OFFCURVE",
"218 -98 CURVE SMOOTH",
"464 1062 LINE",
"294 1062 LINE",
"48 -89 LINE SMOOTH",
"26 -193 OFFCURVE",
"-30 -319 OFFCURVE",
"-200 -319 CURVE SMOOTH",
"-240 -319 OFFCURVE",
"-265 -314 OFFCURVE",
"-284 -308 CURVE",
"-315 -434 LINE",
"-298 -440 OFFCURVE",
"-267 -446 OFFCURVE",
"-226 -446 CURVE SMOOTH"
);
}
);
width = 512;
}
);
leftKerningGroup = j;
rightKerningGroup = j;
unicode = 0237;
},
{
glyphname = k;
lastChange = "2020-06-22 16:25:56 +0000";
layers = (
{
anchors = (
{
name = bottom;
position = "{534, 0}";
},
{
name = top;
position = "{496, 1563}";
}
);
layerId = "3FDD6C00-F7FD-4E85-84B0-0136AF7D7529";
paths = (
{
closed = 1;
nodes = (
"369 0 LINE",
"478 514 LINE",
"405 345 LINE",
"617 510 LINE",
"519 507 LINE",
"704 0 LINE",
"1105 0 LINE",
"818 716 LINE",
"709 577 LINE",
"1349 1062 LINE",
"842 1062 LINE",
"429 748 LINE",
"520 710 LINE",
"701 1563 LINE",
"319 1563 LINE",
"-13 0 LINE"
);
}
);
width = 1225;
},
{
anchors = (
{
name = bottom;
position = "{417, 0}";
},
{
name = top;
position = "{443, 1563}";
}
);
layerId = "2503C51C-5A6C-4B2C-A968-78FEA18C2585";
paths = (
{
closed = 1;
nodes = (
"122 0 LINE",
"235 531 LINE",
"219 507 LINE",
"392 627 LINE",
"380 630 LINE",
"762 0 LINE",
"798 0 LINE",
"402 653 LINE",
"394 630 LINE",
"1006 1062 LINE",
"958 1062 LINE",
"224 549 LINE",
"237 542 LINE",
"454 1563 LINE",
"424 1563 LINE",
"92 0 LINE"
);
}
);
width = 1035;
},
{
anchors = (
{
name = bottom;
position = "{448, 0}";
},
{
name = top;
position = "{450, 1563}";
}
);
layerId = "BEF1FBB1-ACEC-4AC1-9895-C09886024D55";
paths = (
{
closed = 1;
nodes = (
"202 0 LINE",
"314 525 LINE",
"275 444 LINE",
"464 587 LINE",
"440 597 LINE",
"694 0 LINE",
"870 0 LINE",
"560 697 LINE",
"500 614 LINE",
"1111 1062 LINE",
"866 1062 LINE",
"272 634 LINE",
"330 605 LINE",
"534 1563 LINE",
"372 1563 LINE",
"40 0 LINE"
);
}
);
width = 1028;
}
);
leftKerningGroup = h;
leftMetricsKey = h;
note = k;
rightKerningGroup = k;
unicode = 006B;
},
{
glyphname = kgreenlandic;
lastChange = "2020-06-22 16:26:17 +0000";
layers = (
{
anchors = (
{
name = bottom;
position = "{363, 0}";
},
{
name = top;
position = "{589, 1062}";
}
);
layerId = "2503C51C-5A6C-4B2C-A968-78FEA18C2585";
paths = (
{
closed = 1;
nodes = (
"841 1062 LINE",
"800 1062 LINE",
"199 447 LINE",
"217 446 LINE",
"348 1062 LINE",
"318 1062 LINE",
"92 0 LINE",
"122 0 LINE",
"214 433 LINE",
"203 412 LINE",
"346 555 LINE",
"326 559 LINE",
"614 0 LINE",
"649 0 LINE",
"349 579 LINE",
"352 560 LINE"
);
}
);
width = 886;
},
{
anchors = (
{
name = bottom;
position = "{495, 0}";
},
{
name = top;
position = "{721, 1062}";
}
);
layerId = "3FDD6C00-F7FD-4E85-84B0-0136AF7D7529";
paths = (
{
closed = 1;
nodes = (
"1265 1062 LINE",
"830 1062 LINE",
"422 554 LINE",
"481 532 LINE",
"594 1062 LINE",
"213 1062 LINE",
"-13 0 LINE",
"368 0 LINE",
"453 400 LINE",
"386 163 LINE",
"658 443 LINE",
"459 500 LINE",
"633 0 LINE",
"1029 0 LINE",
"749 722 LINE",
"743 500 LINE"
);
}
);
width = 1141;
},
{
anchors = (
{
name = bottom;
position = "{400, 0}";
},
{
name = top;
position = "{626, 1062}";
}
);
layerId = "BEF1FBB1-ACEC-4AC1-9895-C09886024D55";
paths = (
{
closed = 1;
nodes = (
"988 1062 LINE",
"799 1062 LINE",
"240 505 LINE",
"304 478 LINE",
"428 1062 LINE",
"266 1062 LINE",
"40 0 LINE",
"202 0 LINE",
"291 421 LINE",
"259 319 LINE",
"451 513 LINE",
"363 537 LINE",
"609 0 LINE",
"779 0 LINE",
"487 633 LINE",
"482 538 LINE"
);
}
);
width = 922;
}
);
leftKerningGroup = h;
leftMetricsKey = h;
rightKerningGroup = k;
rightMetricsKey = k;
unicode = 0138;
},
{
glyphname = l;
lastChange = "2020-06-23 14:54:06 +0000";
layers = (
{
anchors = (
{
name = bottom;
position = "{197, 0}";
},
{
name = center;
position = "{363, 782}";
},
{
name = top;
position = "{529, 1563}";
},
{
name = topright;
position = "{681, 1062}";
}
);
layerId = "3FDD6C00-F7FD-4E85-84B0-0136AF7D7529";
paths = (
{
closed = 1;
nodes = (
"334 1563 LINE",
"2 0 LINE",
"403 0 LINE",
"735 1563 LINE"
);
}
);
width = 621;
},
{
anchors = (
{
name = bottom;
position = "{121, 0}";
},
{
name = center;
position = "{287, 782}";
},
{
name = top;
position = "{453, 1563}";
},
{
name = topright;
position = "{424, 1062}";
}
);
layerId = "2503C51C-5A6C-4B2C-A968-78FEA18C2585";
paths = (
{
closed = 1;
nodes = (
"439 1563 LINE",
"107 0 LINE",
"137 0 LINE",
"469 1563 LINE"
);
}
);
width = 460;
},
{
anchors = (
{
name = bottom;
position = "{137, 0}";
},
{
name = center;
position = "{303, 782}";
},
{
name = top;
position = "{469, 1563}";
},
{
name = topright;
position = "{508, 1062}";
}
);
layerId = "BEF1FBB1-ACEC-4AC1-9895-C09886024D55";
paths = (
{
closed = 1;
nodes = (
"387 1563 LINE",
"55 0 LINE",
"224 0 LINE",
"556 1563 LINE"
);
}
);
width = 489;
}
);
leftKerningGroup = h;
leftMetricsKey = "=h+15";
note = l;
rightKerningGroup = l;
rightMetricsKey = "=h+15";
unicode = 006C;
},
{
color = 3;
glyphname = l.ss01;
lastChange = "2020-06-22 16:25:38 +0000";
layers = (
{
anchors = (
{
name = bottom;
position = "{336, 0}";
},
{
name = center;
position = "{441, 767}";
},
{
name = top;
position = "{527, 1563}";
},
{
name = topright;
position = "{693, 1062}";
}
);
layerId = "3FDD6C00-F7FD-4E85-84B0-0136AF7D7529";
paths = (
{
closed = 1;
nodes = (
"480 -26 OFFCURVE",
"529 -14 OFFCURVE",
"570 1 CURVE",
"632 293 LINE",
"603 281 OFFCURVE",
"563 271 OFFCURVE",
"528 271 CURVE SMOOTH",
"495 271 OFFCURVE",
"464 282 OFFCURVE",
"464 317 CURVE SMOOTH",
"464 343 OFFCURVE",
"467 359 OFFCURVE",
"482 430 CURVE SMOOTH",
"726 1563 LINE",
"322 1563 LINE",
"75 415 LINE SMOOTH",
"58 334 OFFCURVE",
"48 282 OFFCURVE",
"48 228 CURVE SMOOTH",
"48 2 OFFCURVE",
"252 -26 OFFCURVE",
"401 -26 CURVE SMOOTH"
);
}
);
width = 703;
},
{
anchors = (
{
name = bottom;
position = "{189, 0}";
},
{
name = center;
position = "{352, 767}";
},
{
name = top;
position = "{440, 1563}";
},
{
name = topright;
position = "{443, 1062}";
}
);
layerId = "2503C51C-5A6C-4B2C-A968-78FEA18C2585";
paths = (
{
closed = 1;
nodes = (
"265 -7 OFFCURVE",
"298 -3 OFFCURVE",
"314 0 CURVE",
"320 28 LINE",
"304 25 OFFCURVE",
"271 21 OFFCURVE",
"239 21 CURVE SMOOTH",
"201 21 OFFCURVE",
"152 34 OFFCURVE",
"152 114 CURVE SMOOTH",
"152 143 OFFCURVE",
"156 164 OFFCURVE",
"161 186 CURVE SMOOTH",
"454 1563 LINE",
"424 1563 LINE",
"132 188 LINE SMOOTH",
"127 164 OFFCURVE",
"123 143 OFFCURVE",
"123 114 CURVE SMOOTH",
"123 5 OFFCURVE",
"187 -7 OFFCURVE",
"232 -7 CURVE SMOOTH"
);
}
);
width = 495;
},
{
anchors = (
{
name = bottom;
position = "{232, 0}";
},
{
name = center;
position = "{373, 767}";
},
{
name = top;
position = "{460, 1563}";
},
{
name = topright;
position = "{524, 1062}";
}
);
layerId = "BEF1FBB1-ACEC-4AC1-9895-C09886024D55";
paths = (
{
closed = 1;
nodes = (
"352 -14 OFFCURVE",
"379 -8 OFFCURVE",
"400 0 CURVE",
"432 147 LINE",
"411 141 OFFCURVE",
"370 135 OFFCURVE",
"333 135 CURVE SMOOTH",
"286 135 OFFCURVE",
"260 147 OFFCURVE",
"260 204 CURVE SMOOTH",
"260 235 OFFCURVE",
"269 279 OFFCURVE",
"281 334 CURVE SMOOTH",
"543 1563 LINE",
"373 1563 LINE",
"107 313 LINE SMOOTH",
"94 252 OFFCURVE",
"89 221 OFFCURVE",
"89 166 CURVE SMOOTH",
"89 4 OFFCURVE",
"202 -14 OFFCURVE",
"302 -14 CURVE SMOOTH"
);
}
);
width = 543;
}
);
leftKerningGroup = h;
leftMetricsKey = h;
rightKerningGroup = l.ss01;
},
{
glyphname = lslash;
lastChange = "2020-06-22 01:19:25 +0000";
layers = (
{
components = (
{
name = l;
}
);
layerId = "2503C51C-5A6C-4B2C-A968-78FEA18C2585";
paths = (
{
closed = 1;
nodes = (
"90 774 LINE",
"504 1038 LINE",
"487 1062 LINE",
"73 798 LINE"
);
}
);
width = 481;
},
{
components = (
{
name = l;
}
);
layerId = "BEF1FBB1-ACEC-4AC1-9895-C09886024D55";
paths = (
{
closed = 1;
nodes = (
"72 699 LINE",
"602 978 LINE",
"571 1071 LINE",
"41 792 LINE"
);
}
);
width = 511;
},
{
components = (
{
name = l;
}
);
layerId = "3FDD6C00-F7FD-4E85-84B0-0136AF7D7529";
paths = (
{
closed = 1;
nodes = (
"20 575 LINE",
"743 878 LINE",
"689 1086 LINE",
"-34 782 LINE"
);
}
);
width = 571;
}
);
leftKerningGroup = h;
rightKerningGroup = l;
unicode = 0142;
},
{
color = 3;
glyphname = lslash.ss01;
lastChange = "2020-06-22 01:19:25 +0000";
layers = (
{
components = (
{
name = l.ss01;
}
);
layerId = "3FDD6C00-F7FD-4E85-84B0-0136AF7D7529";
paths = (
{
closed = 1;
nodes = (
"10 575 LINE",
"733 878 LINE",
"679 1086 LINE",
"-44 782 LINE"
);
}
);
width = 683;
},
{
components = (
{
name = l.ss01;
}
);
layerId = "2503C51C-5A6C-4B2C-A968-78FEA18C2585";
paths = (
{
closed = 1;
nodes = (
"90 774 LINE",
"504 1038 LINE",
"487 1062 LINE",
"73 798 LINE"
);
}
);
width = 500;
},
{
components = (
{
alignment = -1;
name = l.ss01;
}
);
layerId = "BEF1FBB1-ACEC-4AC1-9895-C09886024D55";
paths = (
{
closed = 1;
nodes = (
"58 699 LINE",
"588 978 LINE",
"557 1071 LINE",
"27 792 LINE"
);
}
);
width = 565;
}
);
leftKerningGroup = lslash;
rightKerningGroup = l.ss01;
},
{
glyphname = m;
lastChange = "2020-06-22 16:25:38 +0000";
layers = (
{
anchors = (
{
name = bottom;
position = "{874, 0}";
},
{
name = top;
position = "{1192, 1062}";
}
);
layerId = "3FDD6C00-F7FD-4E85-84B0-0136AF7D7529";
paths = (
{
closed = 1;
nodes = (
"1057 0 LINE",
"1127 330 LINE",
"1182 587 OFFCURVE",
"1207 707 OFFCURVE",
"1207 801 CURVE SMOOTH",
"1207 957 OFFCURVE",
"1140 1084 OFFCURVE",
"924 1084 CURVE SMOOTH",
"671 1084 OFFCURVE",
"505 903 OFFCURVE",
"443 612 CURVE",
"500 522 LINE",
"529 659 OFFCURVE",
"598 751 OFFCURVE",
"692 751 CURVE SMOOTH",
"764 751 OFFCURVE",
"782 708 OFFCURVE",
"782 648 CURVE SMOOTH",
"782 597 OFFCURVE",
"767 513 OFFCURVE",
"736 370 CURVE",
"657 0 LINE"
);
},
{
closed = 1;
nodes = (
"390 0 LINE",
"616 1062 LINE",
"213 1062 LINE",
"-13 0 LINE"
);
},
{
closed = 1;
nodes = (
"1725 0 LINE",
"1800 333 LINE",
"1854 590 OFFCURVE",
"1874 697 OFFCURVE",
"1874 798 CURVE SMOOTH",
"1874 956 OFFCURVE",
"1806 1084 OFFCURVE",
"1590 1084 CURVE SMOOTH",
"1337 1084 OFFCURVE",
"1172 903 OFFCURVE",
"1110 612 CURVE",
"1167 522 LINE",
"1196 659 OFFCURVE",
"1264 751 OFFCURVE",
"1358 751 CURVE SMOOTH",
"1428 751 OFFCURVE",
"1449 713 OFFCURVE",
"1449 651 CURVE SMOOTH",
"1449 602 OFFCURVE",
"1433 522 OFFCURVE",
"1401 371 CURVE",
"1322 0 LINE"
);
}
);
width = 1932;
},
{
anchors = (
{
name = bottom;
position = "{749, 0}";
},
{
name = top;
position = "{975, 1062}";
}
);
layerId = "2503C51C-5A6C-4B2C-A968-78FEA18C2585";
paths = (
{
closed = 1;
nodes = (
"765 0 LINE",
"904 653 LINE SMOOTH",
"921 732 OFFCURVE",
"935 803 OFFCURVE",
"935 853 CURVE SMOOTH",
"935 994 OFFCURVE",
"863 1075 OFFCURVE",
"691 1075 CURVE SMOOTH",
"451 1075 OFFCURVE",
"281 881 OFFCURVE",
"236 673 CURVE",
"262 662 LINE",
"288 788 OFFCURVE",
"425 1047 OFFCURVE",
"694 1047 CURVE SMOOTH",
"863 1047 OFFCURVE",
"904 944 OFFCURVE",
"904 846 CURVE SMOOTH",
"904 804 OFFCURVE",
"893 741 OFFCURVE",
"874 653 CURVE SMOOTH",
"735 0 LINE"
);
},
{
closed = 1;
nodes = (
"122 0 LINE",
"348 1062 LINE",
"318 1062 LINE",
"92 0 LINE"
);
},
{
closed = 1;
nodes = (
"1407 0 LINE",
"1546 653 LINE SMOOTH",
"1562 726 OFFCURVE",
"1576 791 OFFCURVE",
"1576 852 CURVE SMOOTH",
"1576 1002 OFFCURVE",
"1492 1075 OFFCURVE",
"1327 1075 CURVE SMOOTH",
"1085 1075 OFFCURVE",
"925 883 OFFCURVE",
"885 694 CURVE",
"911 687 LINE",
"932 787 OFFCURVE",
"1057 1047 OFFCURVE",
"1330 1047 CURVE SMOOTH",
"1507 1047 OFFCURVE",
"1544 945 OFFCURVE",
"1544 851 CURVE SMOOTH",
"1544 806 OFFCURVE",
"1537 752 OFFCURVE",
"1516 653 CURVE SMOOTH",
"1377 0 LINE"
);
}
);
width = 1715;
},
{
anchors = (
{
name = bottom;
position = "{784, 0}";
},
{
name = top;
position = "{1028, 1062}";
}
);
layerId = "BEF1FBB1-ACEC-4AC1-9895-C09886024D55";
paths = (
{
closed = 1;
nodes = (
"862 0 LINE",
"960 452 LINE",
"999 634 OFFCURVE",
"1023 746 OFFCURVE",
"1023 812 CURVE SMOOTH",
"1023 973 OFFCURVE",
"934 1078 OFFCURVE",
"737 1078 CURVE SMOOTH",
"493 1078 OFFCURVE",
"298 868 OFFCURVE",
"247 629 CURVE",
"335 590 LINE",
"367 740 OFFCURVE",
"474 916 OFFCURVE",
"677 916 CURVE SMOOTH",
"813 916 OFFCURVE",
"846 842 OFFCURVE",
"846 762 CURVE SMOOTH",
"846 708 OFFCURVE",
"828 621 OFFCURVE",
"795 469 CURVE",
"693 0 LINE"
);
},
{
closed = 1;
nodes = (
"210 0 LINE",
"436 1062 LINE",
"266 1062 LINE",
"40 0 LINE"
);
},
{
closed = 1;
nodes = (
"1514 0 LINE",
"1621 463 LINE",
"1660 649 OFFCURVE",
"1677 743 OFFCURVE",
"1677 815 CURVE SMOOTH",
"1677 978 OFFCURVE",
"1577 1078 OFFCURVE",
"1385 1078 CURVE SMOOTH",
"1139 1078 OFFCURVE",
"950 869 OFFCURVE",
"902 642 CURVE",
"990 605 LINE",
"1019 739 OFFCURVE",
"1118 916 OFFCURVE",
"1324 916 CURVE SMOOTH",
"1465 916 OFFCURVE",
"1498 844 OFFCURVE",
"1498 765 CURVE SMOOTH",
"1498 712 OFFCURVE",
"1490 654 OFFCURVE",
"1451 467 CURVE",
"1344 0 LINE"
);
}
);
width = 1772;
}
);
leftKerningGroup = n;
leftMetricsKey = h;
note = m;
rightKerningGroup = n;
rightMetricsKey = h;
unicode = 006D;
},
{
glyphname = n;
lastChange = "2020-06-22 16:25:38 +0000";
layers = (
{
anchors = (
{
name = bottom;
position = "{556, 0}";
},
{
name = top;
position = "{799, 1062}";
}
);
layerId = "3FDD6C00-F7FD-4E85-84B0-0136AF7D7529";
paths = (
{
closed = 1;
nodes = (
"1129 0 LINE",
"1211 375 LINE SMOOTH",
"1255 577 OFFCURVE",
"1282 704 OFFCURVE",
"1282 793 CURVE SMOOTH",
"1282 969 OFFCURVE",
"1191 1084 OFFCURVE",
"973 1084 CURVE SMOOTH",
"717 1084 OFFCURVE",
"504 903 OFFCURVE",
"442 612 CURVE",
"502 532 LINE",
"531 669 OFFCURVE",
"600 751 OFFCURVE",
"727 751 CURVE SMOOTH",
"825 751 OFFCURVE",
"852 700 OFFCURVE",
"852 634 CURVE SMOOTH",
"852 588 OFFCURVE",
"840 523 OFFCURVE",
"816 413 CURVE SMOOTH",
"726 0 LINE"
);
},
{
closed = 1;
nodes = (
"390 0 LINE",
"616 1062 LINE",
"213 1062 LINE",
"-13 0 LINE"
);
}
);
width = 1335;
},
{
anchors = (
{
name = bottom;
position = "{492, 0}";
},
{
name = top;
position = "{752, 1062}";
}
);
layerId = "2503C51C-5A6C-4B2C-A968-78FEA18C2585";
paths = (
{
closed = 1;
nodes = (
"892 0 LINE",
"1037 684 LINE SMOOTH",
"1044 717 OFFCURVE",
"1056 778 OFFCURVE",
"1056 828 CURVE SMOOTH",
"1056 989 OFFCURVE",
"933 1075 OFFCURVE",
"745 1075 CURVE SMOOTH",
"542 1075 OFFCURVE",
"295 935 OFFCURVE",
"242 701 CURVE",
"268 690 LINE",
"312 898 OFFCURVE",
"546 1047 OFFCURVE",
"743 1047 CURVE SMOOTH",
"921 1047 OFFCURVE",
"1025 964 OFFCURVE",
"1025 825 CURVE SMOOTH",
"1025 786 OFFCURVE",
"1022 757 OFFCURVE",
"1007 684 CURVE SMOOTH",
"862 0 LINE"
);
},
{
closed = 1;
nodes = (
"122 0 LINE",
"348 1062 LINE",
"318 1062 LINE",
"92 0 LINE"
);
}
);
width = 1200;
},
{
anchors = (
{
name = bottom;
position = "{506, 0}";
},
{
name = top;
position = "{759, 1062}";
}
);
layerId = "BEF1FBB1-ACEC-4AC1-9895-C09886024D55";
paths = (
{
closed = 1;
nodes = (
"970 0 LINE",
"1079 493 LINE SMOOTH",
"1111 636 OFFCURVE",
"1129 725 OFFCURVE",
"1129 798 CURVE SMOOTH",
"1129 975 OFFCURVE",
"998 1078 OFFCURVE",
"792 1078 CURVE SMOOTH",
"549 1078 OFFCURVE",
"290 878 OFFCURVE",
"237 628 CURVE",
"335 591 LINE",
"374 772 OFFCURVE",
"551 916 OFFCURVE",
"722 916 CURVE SMOOTH",
"874 916 OFFCURVE",
"949 849 OFFCURVE",
"949 741 CURVE SMOOTH",
"949 686 OFFCURVE",
"936 624 OFFCURVE",
"911 509 CURVE SMOOTH",
"800 0 LINE"
);
},
{
closed = 1;
nodes = (
"210 0 LINE",
"436 1062 LINE",
"266 1062 LINE",
"40 0 LINE"
);
}
);
width = 1225;
}
);
leftKerningGroup = n;
leftMetricsKey = h;
note = n;
rightKerningGroup = n;
rightMetricsKey = h;
unicode = 006E;
},
{
glyphname = eng;
lastChange = "2020-06-22 16:25:38 +0000";
layers = (
{
layerId = "3FDD6C00-F7FD-4E85-84B0-0136AF7D7529";
paths = (
{
closed = 1;
nodes = (
"838 -456 OFFCURVE",
"1052 -363 OFFCURVE",
"1126 -19 CURVE SMOOTH",
"1211 375 LINE SMOOTH",
"1255 577 OFFCURVE",
"1282 704 OFFCURVE",
"1282 793 CURVE SMOOTH",
"1282 969 OFFCURVE",
"1191 1084 OFFCURVE",
"973 1084 CURVE SMOOTH",
"717 1084 OFFCURVE",
"504 903 OFFCURVE",
"442 612 CURVE",
"502 532 LINE",
"531 669 OFFCURVE",
"600 751 OFFCURVE",
"727 751 CURVE SMOOTH",
"825 751 OFFCURVE",
"852 700 OFFCURVE",
"852 634 CURVE SMOOTH",
"852 588 OFFCURVE",
"840 523 OFFCURVE",
"816 413 CURVE SMOOTH",
"720 -28 LINE SMOOTH",
"694 -148 OFFCURVE",
"576 -169 OFFCURVE",
"459 -169 CURVE",
"405 -456 LINE"
);
},
{
closed = 1;
nodes = (
"390 0 LINE",
"616 1062 LINE",
"213 1062 LINE",
"-13 0 LINE"
);
}
);
width = 1335;
},
{
layerId = "2503C51C-5A6C-4B2C-A968-78FEA18C2585";
paths = (
{
closed = 1;
nodes = (
"729 -457 OFFCURVE",
"808 -255 OFFCURVE",
"842 -96 CURVE SMOOTH",
"1007 684 LINE SMOOTH",
"1014 717 OFFCURVE",
"1026 778 OFFCURVE",
"1026 828 CURVE SMOOTH",
"1026 989 OFFCURVE",
"933 1075 OFFCURVE",
"745 1075 CURVE SMOOTH",
"542 1075 OFFCURVE",
"295 935 OFFCURVE",
"242 701 CURVE",
"268 690 LINE",
"312 898 OFFCURVE",
"546 1047 OFFCURVE",
"743 1047 CURVE SMOOTH",
"921 1047 OFFCURVE",
"995 964 OFFCURVE",
"995 825 CURVE SMOOTH",
"995 786 OFFCURVE",
"993 757 OFFCURVE",
"977 684 CURVE SMOOTH",
"811 -96 LINE SMOOTH",
"784 -224 OFFCURVE",
"717 -429 OFFCURVE",
"485 -429 CURVE",
"479 -457 LINE"
);
},
{
closed = 1;
nodes = (
"122 0 LINE",
"348 1062 LINE",
"318 1062 LINE",
"92 0 LINE"
);
}
);
width = 1170;
},
{
layerId = "BEF1FBB1-ACEC-4AC1-9895-C09886024D55";
paths = (
{
closed = 1;
nodes = (
"755 -457 OFFCURVE",
"886 -296 OFFCURVE",
"936 -67 CURVE SMOOTH",
"1059 493 LINE SMOOTH",
"1091 640 OFFCURVE",
"1109 725 OFFCURVE",
"1109 797 CURVE SMOOTH",
"1109 975 OFFCURVE",
"997 1078 OFFCURVE",
"791 1078 CURVE SMOOTH",
"548 1078 OFFCURVE",
"290 878 OFFCURVE",
"236 628 CURVE",
"335 591 LINE",
"373 772 OFFCURVE",
"551 916 OFFCURVE",
"722 916 CURVE SMOOTH",
"873 916 OFFCURVE",
"928 850 OFFCURVE",
"928 742 CURVE SMOOTH",
"928 688 OFFCURVE",
"916 622 OFFCURVE",
"891 509 CURVE SMOOTH",
"765 -71 LINE SMOOTH",
"738 -195 OFFCURVE",
"649 -332 OFFCURVE",
"462 -332 CURVE",
"436 -457 LINE"
);
},
{
closed = 1;
nodes = (
"210 0 LINE",
"436 1062 LINE",
"266 1062 LINE",
"40 0 LINE"
);
}
);
width = 1204;
}
);
leftKerningGroup = n;
leftMetricsKey = n;
rightKerningGroup = n;
rightMetricsKey = n;
unicode = 014B;
},
{
glyphname = nhookleft;
lastChange = "2020-06-22 16:21:53 +0000";
layers = (
{
layerId = "2503C51C-5A6C-4B2C-A968-78FEA18C2585";
paths = (
{
closed = 1;
nodes = (
"835 0 LINE",
"980 684 LINE SMOOTH",
"987 717 OFFCURVE",
"999 778 OFFCURVE",
"999 828 CURVE SMOOTH",
"999 989 OFFCURVE",
"906 1075 OFFCURVE",
"718 1075 CURVE SMOOTH",
"515 1075 OFFCURVE",
"268 935 OFFCURVE",
"215 701 CURVE",
"241 690 LINE",
"285 898 OFFCURVE",
"519 1047 OFFCURVE",
"716 1047 CURVE SMOOTH",
"894 1047 OFFCURVE",
"968 964 OFFCURVE",
"968 825 CURVE SMOOTH",
"968 786 OFFCURVE",
"965 757 OFFCURVE",
"950 684 CURVE SMOOTH",
"805 0 LINE"
);
},
{
closed = 1;
nodes = (
"-43 -457 OFFCURVE",
"38 -268 OFFCURVE",
"74 -98 CURVE SMOOTH",
"321 1062 LINE",
"291 1062 LINE",
"43 -96 LINE SMOOTH",
"13 -225 OFFCURVE",
"-53 -429 OFFCURVE",
"-278 -429 CURVE",
"-284 -457 LINE"
);
}
);
width = 1143;
},
{
layerId = "3FDD6C00-F7FD-4E85-84B0-0136AF7D7529";
paths = (
{
closed = 1;
nodes = (
"1041 0 LINE",
"1123 375 LINE SMOOTH",
"1167 577 OFFCURVE",
"1194 704 OFFCURVE",
"1194 793 CURVE SMOOTH",
"1194 969 OFFCURVE",
"1103 1084 OFFCURVE",
"885 1084 CURVE SMOOTH",
"629 1084 OFFCURVE",
"416 903 OFFCURVE",
"354 612 CURVE",
"414 532 LINE",
"443 669 OFFCURVE",
"512 751 OFFCURVE",
"639 751 CURVE SMOOTH",
"737 751 OFFCURVE",
"764 700 OFFCURVE",
"764 634 CURVE SMOOTH",
"764 588 OFFCURVE",
"752 523 OFFCURVE",
"728 413 CURVE SMOOTH",
"638 0 LINE"
);
},
{
closed = 1;
nodes = (
"97 -465 OFFCURVE",
"238 -302 OFFCURVE",
"295 -33 CURVE SMOOTH",
"528 1062 LINE",
"125 1062 LINE",
"-102 -5 LINE SMOOTH",
"-130 -146 OFFCURVE",
"-251 -187 OFFCURVE",
"-306 -187 CURVE",
"-366 -465 LINE"
);
}
);
width = 1247;
},
{
layerId = "BEF1FBB1-ACEC-4AC1-9895-C09886024D55";
paths = (
{
closed = 1;
nodes = (
"912 0 LINE",
"1021 493 LINE SMOOTH",
"1053 636 OFFCURVE",
"1071 725 OFFCURVE",
"1071 797 CURVE SMOOTH",
"1071 975 OFFCURVE",
"959 1078 OFFCURVE",
"753 1078 CURVE SMOOTH",
"510 1078 OFFCURVE",
"252 878 OFFCURVE",
"199 628 CURVE",
"297 591 LINE",
"335 772 OFFCURVE",
"513 916 OFFCURVE",
"684 916 CURVE SMOOTH",
"836 916 OFFCURVE",
"891 849 OFFCURVE",
"891 741 CURVE SMOOTH",
"891 686 OFFCURVE",
"879 624 OFFCURVE",
"854 509 CURVE SMOOTH",
"742 0 LINE"
);
},
{
closed = 1;
nodes = (
"36 -460 OFFCURVE",
"120 -250 OFFCURVE",
"159 -66 CURVE SMOOTH",
"399 1062 LINE",
"229 1062 LINE",
"-11 -66 LINE SMOOTH",
"-37 -190 OFFCURVE",
"-117 -335 OFFCURVE",
"-294 -335 CURVE",
"-320 -460 LINE"
);
}
);
width = 1167;
}
);
leftKerningGroup = j;
leftMetricsKey = j;
rightKerningGroup = n;
rightMetricsKey = n;
unicode = 0272;
},
{
glyphname = o;
lastChange = "2020-06-22 23:49:56 +0000";
layers = (
{
anchors = (
{
name = bottom;
position = "{554, 0}";
},
{
name = center;
position = "{645, 531}";
},
{
name = ogonek;
position = "{844, 25}";
},
{
name = top;
position = "{748, 1062}";
},
{
name = topright;
position = "{1019, 1023}";
}
);
layerId = "3FDD6C00-F7FD-4E85-84B0-0136AF7D7529";
paths = (
{
closed = 1;
nodes = (
"957 -25 OFFCURVE",
"1268 241 OFFCURVE",
"1268 627 CURVE SMOOTH",
"1268 901 OFFCURVE",
"1062 1084 OFFCURVE",
"740 1084 CURVE SMOOTH",
"350 1084 OFFCURVE",
"40 819 OFFCURVE",
"40 433 CURVE SMOOTH",
"40 159 OFFCURVE",
"246 -25 OFFCURVE",
"568 -25 CURVE SMOOTH"
);
},
{
closed = 1;
nodes = (
"499 280 OFFCURVE",
"452 349 OFFCURVE",
"452 462 CURVE SMOOTH",
"452 634 OFFCURVE",
"546 778 OFFCURVE",
"698 778 CURVE SMOOTH",
"809 778 OFFCURVE",
"857 710 OFFCURVE",
"857 599 CURVE SMOOTH",
"857 428 OFFCURVE",
"762 280 OFFCURVE",
"611 280 CURVE SMOOTH"
);
}
);
width = 1308;
},
{
anchors = (
{
name = bottom;
position = "{538, 0}";
},
{
name = center;
position = "{650, 531}";
},
{
name = ogonek;
position = "{756, 23}";
},
{
name = top;
position = "{770, 1062}";
},
{
name = topright;
position = "{1072, 929}";
}
);
layerId = "2503C51C-5A6C-4B2C-A968-78FEA18C2585";
paths = (
{
closed = 1;
nodes = (
"896 -17 OFFCURVE",
"1158 262 OFFCURVE",
"1158 657 CURVE SMOOTH",
"1158 893 OFFCURVE",
"1012 1075 OFFCURVE",
"754 1075 CURVE SMOOTH",
"398 1075 OFFCURVE",
"141 777 OFFCURVE",
"141 406 CURVE SMOOTH",
"141 154 OFFCURVE",
"298 -17 OFFCURVE",
"554 -17 CURVE SMOOTH"
);
},
{
closed = 1;
nodes = (
"314 11 OFFCURVE",
"173 176 OFFCURVE",
"173 412 CURVE SMOOTH",
"173 760 OFFCURVE",
"417 1047 OFFCURVE",
"754 1047 CURVE SMOOTH",
"994 1047 OFFCURVE",
"1126 877 OFFCURVE",
"1126 650 CURVE SMOOTH",
"1126 272 OFFCURVE",
"876 11 OFFCURVE",
"554 11 CURVE SMOOTH"
);
}
);
width = 1300;
},
{
anchors = (
{
name = bottom;
position = "{542, 0}";
},
{
name = center;
position = "{649, 531}";
},
{
name = ogonek;
position = "{777, 19}";
},
{
name = top;
position = "{763, 1062}";
},
{
name = topright;
position = "{1053, 964}";
}
);
layerId = "BEF1FBB1-ACEC-4AC1-9895-C09886024D55";
paths = (
{
closed = 1;
nodes = (
"914 -20 OFFCURVE",
"1207 254 OFFCURVE",
"1207 646 CURVE SMOOTH",
"1207 896 OFFCURVE",
"1038 1078 OFFCURVE",
"756 1078 CURVE SMOOTH",
"388 1078 OFFCURVE",
"104 793 OFFCURVE",
"104 416 CURVE SMOOTH",
"104 156 OFFCURVE",
"274 -20 OFFCURVE",
"554 -20 CURVE SMOOTH"
);
},
{
closed = 1;
nodes = (
"379 132 OFFCURVE",
"277 241 OFFCURVE",
"277 431 CURVE SMOOTH",
"277 713 OFFCURVE",
"472 926 OFFCURVE",
"743 926 CURVE SMOOTH",
"932 926 OFFCURVE",
"1034 814 OFFCURVE",
"1034 631 CURVE SMOOTH",
"1034 331 OFFCURVE",
"829 132 OFFCURVE",
"568 132 CURVE SMOOTH"
);
}
);
width = 1312;
}
);
leftKerningGroup = o;
note = o;
rightKerningGroup = o;
unicode = 006F;
},
{
glyphname = ohorn;
lastChange = "2020-06-22 01:19:25 +0000";
layers = (
{
anchors = (
{
name = bottom;
position = "{533, 0}";
},
{
name = center;
position = "{645, 531}";
},
{
name = ogonek;
position = "{751, 23}";
},
{
name = top;
position = "{765, 1062}";
},
{
name = topright;
position = "{1067, 929}";
}
);
layerId = "2503C51C-5A6C-4B2C-A968-78FEA18C2585";
paths = (
{
closed = 1;
nodes = (
"1060 901 LINE",
"1213 901 OFFCURVE",
"1287 1010 OFFCURVE",
"1307 1201 CURVE",
"1275 1201 LINE",
"1256 1024 OFFCURVE",
"1201 929 OFFCURVE",
"1067 929 CURVE"
);
},
{
closed = 1;
nodes = (
"891 -17 OFFCURVE",
"1153 262 OFFCURVE",
"1153 657 CURVE SMOOTH",
"1153 893 OFFCURVE",
"1007 1075 OFFCURVE",
"749 1075 CURVE SMOOTH",
"393 1075 OFFCURVE",
"136 777 OFFCURVE",
"136 406 CURVE SMOOTH",
"136 154 OFFCURVE",
"293 -17 OFFCURVE",
"549 -17 CURVE SMOOTH"
);
},
{
closed = 1;
nodes = (
"309 11 OFFCURVE",
"168 176 OFFCURVE",
"168 412 CURVE SMOOTH",
"168 760 OFFCURVE",
"412 1047 OFFCURVE",
"749 1047 CURVE SMOOTH",
"989 1047 OFFCURVE",
"1121 877 OFFCURVE",
"1121 650 CURVE SMOOTH",
"1121 272 OFFCURVE",
"871 11 OFFCURVE",
"549 11 CURVE SMOOTH"
);
}
);
width = 1300;
},
{
anchors = (
{
name = bottom;
position = "{554, 0}";
},
{
name = center;
position = "{645, 531}";
},
{
name = ogonek;
position = "{844, 25}";
},
{
name = top;
position = "{748, 1062}";
},
{
name = topright;
position = "{1019, 1023}";
}
);
layerId = "3FDD6C00-F7FD-4E85-84B0-0136AF7D7529";
paths = (
{
closed = 1;
nodes = (
"970 843 LINE",
"1207 843 OFFCURVE",
"1349 930 OFFCURVE",
"1388 1294 CURVE",
"1174 1294 LINE",
"1150 1095 OFFCURVE",
"1130 1023 OFFCURVE",
"1010 1023 CURVE"
);
},
{
closed = 1;
nodes = (
"957 -25 OFFCURVE",
"1268 241 OFFCURVE",
"1268 627 CURVE SMOOTH",
"1268 901 OFFCURVE",
"1062 1084 OFFCURVE",
"740 1084 CURVE SMOOTH",
"350 1084 OFFCURVE",
"40 819 OFFCURVE",
"40 433 CURVE SMOOTH",
"40 159 OFFCURVE",
"246 -25 OFFCURVE",
"568 -25 CURVE SMOOTH"
);
},
{
closed = 1;
nodes = (
"499 280 OFFCURVE",
"452 349 OFFCURVE",
"452 462 CURVE SMOOTH",
"452 634 OFFCURVE",
"546 778 OFFCURVE",
"698 778 CURVE SMOOTH",
"809 778 OFFCURVE",
"857 710 OFFCURVE",
"857 599 CURVE SMOOTH",
"857 428 OFFCURVE",
"762 280 OFFCURVE",
"611 280 CURVE SMOOTH"
);
}
);
width = 1293;
},
{
anchors = (
{
name = bottom;
position = "{532, 0}";
},
{
name = center;
position = "{639, 531}";
},
{
name = ogonek;
position = "{767, 19}";
},
{
name = top;
position = "{753, 1062}";
},
{
name = topright;
position = "{1043, 964}";
}
);
layerId = "BEF1FBB1-ACEC-4AC1-9895-C09886024D55";
paths = (
{
closed = 1;
nodes = (
"1025 879 LINE",
"1209 879 OFFCURVE",
"1309 980 OFFCURVE",
"1336 1236 CURVE",
"1236 1236 LINE",
"1215 1051 OFFCURVE",
"1173 964 OFFCURVE",
"1044 964 CURVE"
);
},
{
closed = 1;
nodes = (
"904 -20 OFFCURVE",
"1197 254 OFFCURVE",
"1197 646 CURVE SMOOTH",
"1197 896 OFFCURVE",
"1028 1078 OFFCURVE",
"746 1078 CURVE SMOOTH",
"378 1078 OFFCURVE",
"94 793 OFFCURVE",
"94 416 CURVE SMOOTH",
"94 156 OFFCURVE",
"264 -20 OFFCURVE",
"544 -20 CURVE SMOOTH"
);
},
{
closed = 1;
nodes = (
"369 132 OFFCURVE",
"267 241 OFFCURVE",
"267 431 CURVE SMOOTH",
"267 713 OFFCURVE",
"462 926 OFFCURVE",
"733 926 CURVE SMOOTH",
"922 926 OFFCURVE",
"1024 814 OFFCURVE",
"1024 631 CURVE SMOOTH",
"1024 331 OFFCURVE",
"819 132 OFFCURVE",
"558 132 CURVE SMOOTH"
);
}
);
width = 1281;
}
);
leftKerningGroup = o;
rightKerningGroup = ohorn;
unicode = 01A1;
},
{
glyphname = oogonek;
lastChange = "2020-06-22 01:19:25 +0000";
layers = (
{
components = (
{
name = o;
}
);
layerId = "2503C51C-5A6C-4B2C-A968-78FEA18C2585";
paths = (
{
closed = 1;
nodes = (
"690 -338 OFFCURVE",
"652 -342 OFFCURVE",
"624 -342 CURVE SMOOTH",
"562 -342 OFFCURVE",
"527 -313 OFFCURVE",
"527 -256 CURVE SMOOTH",
"527 -160 OFFCURVE",
"660 -51 OFFCURVE",
"751 23 CURVE",
"723 23 LINE",
"620 -49 OFFCURVE",
"491 -153 OFFCURVE",
"491 -262 CURVE SMOOTH",
"491 -340 OFFCURVE",
"545 -373 OFFCURVE",
"617 -373 CURVE SMOOTH",
"648 -373 OFFCURVE",
"686 -369 OFFCURVE",
"710 -364 CURVE",
"713 -333 LINE"
);
}
);
width = 1300;
},
{
components = (
{
name = o;
}
);
layerId = "3FDD6C00-F7FD-4E85-84B0-0136AF7D7529";
paths = (
{
closed = 1;
nodes = (
"784 -248 OFFCURVE",
"757 -251 OFFCURVE",
"733 -251 CURVE SMOOTH",
"685 -251 OFFCURVE",
"646 -242 OFFCURVE",
"646 -197 CURVE SMOOTH",
"646 -136 OFFCURVE",
"780 -15 OFFCURVE",
"834 25 CURVE",
"646 25 LINE",
"562 -27 OFFCURVE",
"428 -159 OFFCURVE",
"428 -273 CURVE SMOOTH",
"428 -389 OFFCURVE",
"548 -437 OFFCURVE",
"692 -437 CURVE SMOOTH",
"726 -437 OFFCURVE",
"758 -435 OFFCURVE",
"786 -432 CURVE",
"806 -245 LINE"
);
}
);
width = 1288;
},
{
components = (
{
name = o;
}
);
layerId = "BEF1FBB1-ACEC-4AC1-9895-C09886024D55";
paths = (
{
closed = 1;
nodes = (
"718 -320 OFFCURVE",
"685 -324 OFFCURVE",
"659 -324 CURVE SMOOTH",
"598 -324 OFFCURVE",
"565 -303 OFFCURVE",
"565 -250 CURVE SMOOTH",
"565 -169 OFFCURVE",
"698 -45 OFFCURVE",
"777 19 CURVE",
"679 19 LINE",
"589 -44 OFFCURVE",
"461 -154 OFFCURVE",
"461 -262 CURVE SMOOTH",
"461 -360 OFFCURVE",
"532 -413 OFFCURVE",
"638 -413 CURVE SMOOTH",
"670 -413 OFFCURVE",
"706 -410 OFFCURVE",
"732 -406 CURVE",
"741 -316 LINE"
);
}
);
width = 1312;
}
);
leftKerningGroup = o;
rightKerningGroup = o;
unicode = 01EB;
},
{
glyphname = oslash;
lastChange = "2020-06-22 23:49:58 +0000";
layers = (
{
anchors = (
{
name = top;
position = "{759, 1062}";
}
);
components = (
{
name = o;
}
);
layerId = "3FDD6C00-F7FD-4E85-84B0-0136AF7D7529";
paths = (
{
closed = 1;
nodes = (
"1125 1132 LINE",
"35 34 LINE",
"143 -70 LINE",
"1234 1028 LINE"
);
}
);
width = 1308;
},
{
anchors = (
{
name = top;
position = "{744, 1062}";
}
);
components = (
{
name = o;
}
);
layerId = "2503C51C-5A6C-4B2C-A968-78FEA18C2585";
paths = (
{
closed = 1;
nodes = (
"1049 1085 LINE",
"217 -7 LINE",
"242 -23 LINE",
"1073 1069 LINE"
);
}
);
width = 1300;
},
{
anchors = (
{
name = top;
position = "{740, 1062}";
}
);
components = (
{
name = o;
}
);
layerId = "BEF1FBB1-ACEC-4AC1-9895-C09886024D55";
paths = (
{
closed = 1;
nodes = (
"1071 1108 LINE",
"142 14 LINE",
"221 -48 LINE",
"1150 1046 LINE"
);
}
);
width = 1312;
}
);
leftKerningGroup = o;
leftMetricsKey = o;
rightKerningGroup = o;
rightMetricsKey = o;
unicode = 00F8;
},
{
glyphname = oe;
lastChange = "2020-06-23 15:36:08 +0000";
layers = (
{
anchors = (
{
name = bottom;
position = "{945, 0}";
},
{
name = top;
position = "{1171, 1062}";
}
);
layerId = "3FDD6C00-F7FD-4E85-84B0-0136AF7D7529";
paths = (
{
closed = 1;
nodes = (
"770 -25 OFFCURVE",
"951 48 OFFCURVE",
"1077 173 CURVE",
"920 177 LINE",
"1006 53 OFFCURVE",
"1161 -26 OFFCURVE",
"1373 -26 CURVE SMOOTH",
"1744 -26 OFFCURVE",
"1955 148 OFFCURVE",
"2015 336 CURVE",
"1617 336 LINE",
"1605 303 OFFCURVE",
"1544 262 OFFCURVE",
"1415 262 CURVE SMOOTH",
"1275 262 OFFCURVE",
"1233 327 OFFCURVE",
"1233 433 CURVE SMOOTH",
"1233 474 OFFCURVE",
"1239 521 OFFCURVE",
"1248 572 CURVE",
"1051 421 LINE",
"2043 421 LINE",
"2064 480 OFFCURVE",
"2077 568 OFFCURVE",
"2077 632 CURVE SMOOTH",
"2077 913 OFFCURVE",
"1878 1084 OFFCURVE",
"1549 1084 CURVE SMOOTH",
"1342 1084 OFFCURVE",
"1160 1012 OFFCURVE",
"1032 886 CURVE",
"1190 878 LINE",
"1103 1007 OFFCURVE",
"946 1084 OFFCURVE",
"740 1084 CURVE SMOOTH",
"350 1084 OFFCURVE",
"40 819 OFFCURVE",
"40 433 CURVE SMOOTH",
"40 159 OFFCURVE",
"246 -25 OFFCURVE",
"568 -25 CURVE SMOOTH"
);
},
{
closed = 1;
nodes = (
"499 280 OFFCURVE",
"452 349 OFFCURVE",
"452 462 CURVE SMOOTH",
"452 634 OFFCURVE",
"546 778 OFFCURVE",
"698 778 CURVE SMOOTH",
"809 778 OFFCURVE",
"857 710 OFFCURVE",
"857 599 CURVE SMOOTH",
"857 428 OFFCURVE",
"762 280 OFFCURVE",
"611 280 CURVE SMOOTH"
);
},
{
closed = 1;
nodes = (
"1331 746 OFFCURVE",
"1411 800 OFFCURVE",
"1524 800 CURVE SMOOTH",
"1649 800 OFFCURVE",
"1692 734 OFFCURVE",
"1692 672 CURVE SMOOTH",
"1692 669 OFFCURVE",
"1692 665 OFFCURVE",
"1691 661 CURVE",
"1284 661 LINE"
);
}
);
width = 2115;
},
{
anchors = (
{
name = bottom;
position = "{1018, 0}";
},
{
name = top;
position = "{1244, 1062}";
}
);
layerId = "2503C51C-5A6C-4B2C-A968-78FEA18C2585";
paths = (
{
closed = 1;
nodes = (
"819 -17 OFFCURVE",
"1036 150 OFFCURVE",
"1120 409 CURVE",
"1117 410 LINE",
"1117 163 OFFCURVE",
"1256 -17 OFFCURVE",
"1514 -17 CURVE SMOOTH",
"1813 -17 OFFCURVE",
"2004 202 OFFCURVE",
"2043 332 CURVE",
"2012 332 LINE",
"1976 220 OFFCURVE",
"1797 11 OFFCURVE",
"1516 11 CURVE SMOOTH",
"1265 11 OFFCURVE",
"1148 190 OFFCURVE",
"1148 416 CURVE SMOOTH",
"1148 451 OFFCURVE",
"1150 487 OFFCURVE",
"1157 521 CURVE",
"1141 512 LINE",
"2097 512 LINE",
"2109 564 OFFCURVE",
"2115 613 OFFCURVE",
"2115 664 CURVE SMOOTH",
"2115 894 OFFCURVE",
"1986 1075 OFFCURVE",
"1739 1075 CURVE SMOOTH",
"1469 1075 OFFCURVE",
"1242 890 OFFCURVE",
"1155 637 CURVE",
"1158 635 LINE",
"1162 904 OFFCURVE",
"1005 1075 OFFCURVE",
"754 1075 CURVE SMOOTH",
"398 1075 OFFCURVE",
"141 777 OFFCURVE",
"141 406 CURVE SMOOTH",
"141 154 OFFCURVE",
"298 -17 OFFCURVE",
"554 -17 CURVE SMOOTH"
);
},
{
closed = 1;
nodes = (
"314 11 OFFCURVE",
"173 176 OFFCURVE",
"173 412 CURVE SMOOTH",
"173 760 OFFCURVE",
"417 1047 OFFCURVE",
"754 1047 CURVE SMOOTH",
"994 1047 OFFCURVE",
"1126 877 OFFCURVE",
"1126 650 CURVE SMOOTH",
"1126 272 OFFCURVE",
"876 11 OFFCURVE",
"554 11 CURVE SMOOTH"
);
},
{
closed = 1;
nodes = (
"1215 821 OFFCURVE",
"1451 1047 OFFCURVE",
"1737 1047 CURVE SMOOTH",
"1971 1047 OFFCURVE",
"2084 869 OFFCURVE",
"2084 661 CURVE SMOOTH",
"2084 634 OFFCURVE",
"2079 571 OFFCURVE",
"2072 540 CURVE",
"1160 540 LINE"
);
}
);
width = 2251;
},
{
anchors = (
{
name = bottom;
position = "{997, 0}";
},
{
name = top;
position = "{1223, 1062}";
}
);
layerId = "BEF1FBB1-ACEC-4AC1-9895-C09886024D55";
paths = (
{
closed = 1;
nodes = (
"779 -20 OFFCURVE",
"978 88 OFFCURVE",
"1095 263 CURVE",
"1048 270 LINE",
"1101 91 OFFCURVE",
"1251 -21 OFFCURVE",
"1475 -21 CURVE SMOOTH",
"1798 -21 OFFCURVE",
"2010 164 OFFCURVE",
"2048 334 CURVE",
"1876 334 LINE",
"1846 241 OFFCURVE",
"1735 135 OFFCURVE",
"1500 135 CURVE SMOOTH",
"1291 135 OFFCURVE",
"1192 243 OFFCURVE",
"1192 424 CURVE SMOOTH",
"1192 454 OFFCURVE",
"1192 484 OFFCURVE",
"1204 514 CURVE",
"1116 463 LINE",
"2089 463 LINE",
"2104 508 OFFCURVE",
"2118 596 OFFCURVE",
"2118 653 CURVE SMOOTH",
"2118 895 OFFCURVE",
"1960 1078 OFFCURVE",
"1683 1078 CURVE SMOOTH",
"1456 1078 OFFCURVE",
"1257 968 OFFCURVE",
"1140 793 CURVE",
"1187 788 LINE",
"1134 962 OFFCURVE",
"981 1078 OFFCURVE",
"756 1078 CURVE SMOOTH",
"388 1078 OFFCURVE",
"104 793 OFFCURVE",
"104 416 CURVE SMOOTH",
"104 156 OFFCURVE",
"274 -20 OFFCURVE",
"554 -20 CURVE SMOOTH"
);
},
{
closed = 1;
nodes = (
"379 132 OFFCURVE",
"277 241 OFFCURVE",
"277 431 CURVE SMOOTH",
"277 713 OFFCURVE",
"472 926 OFFCURVE",
"743 926 CURVE SMOOTH",
"932 926 OFFCURVE",
"1034 814 OFFCURVE",
"1034 631 CURVE SMOOTH",
"1034 331 OFFCURVE",
"829 132 OFFCURVE",
"568 132 CURVE SMOOTH"
);
},
{
closed = 1;
nodes = (
"1287 800 OFFCURVE",
"1448 924 OFFCURVE",
"1666 924 CURVE SMOOTH",
"1864 924 OFFCURVE",
"1954 814 OFFCURVE",
"1954 670 CURVE SMOOTH",
"1954 647 OFFCURVE",
"1953 630 OFFCURVE",
"1951 615 CURVE",
"1223 615 LINE"
);
}
);
width = 2219;
}
);
leftKerningGroup = o;
leftMetricsKey = o;
rightKerningGroup = o;
rightMetricsKey = e;
unicode = 0153;
},
